<svg width="682" height="681" viewBox="0 0 682 681" fill="none" xmlns="http://www.w3.org/2000/svg">
<mask id="path-1-inside-1_101_2" fill="white">
<path d="M366.509 593.687C416.678 588.545 464.207 568.668 503.087 536.57C541.967 504.473 570.45 461.596 584.936 413.361C599.421 365.127 599.258 313.701 584.467 265.588C569.676 217.475 540.921 174.835 501.839 143.06L442.1 216.258C466.692 236.252 484.786 263.082 494.093 293.357C503.4 323.632 503.502 355.99 494.387 386.341C485.273 416.692 467.35 443.672 442.885 463.869C418.421 484.066 388.514 496.573 356.945 499.809L366.509 593.687Z"/>
</mask>
<path d="M366.509 593.687C416.678 588.545 464.207 568.668 503.087 536.57C541.967 504.473 570.45 461.596 584.936 413.361C599.421 365.127 599.258 313.701 584.467 265.588C569.676 217.475 540.921 174.835 501.839 143.06L442.1 216.258C466.692 236.252 484.786 263.082 494.093 293.357C503.4 323.632 503.502 355.99 494.387 386.341C485.273 416.692 467.35 443.672 442.885 463.869C418.421 484.066 388.514 496.573 356.945 499.809L366.509 593.687Z" stroke="white" stroke-opacity="0.26" stroke-width="2" stroke-dasharray="5 5" mask="url(#path-1-inside-1_101_2)"/>
<mask id="path-2-inside-2_101_2" fill="white">
<path d="M161.987 521.737C130.792 491.05 108.019 452.872 95.857 410.877C83.6955 368.883 82.5557 324.486 92.5473 281.958C102.539 239.43 123.326 200.204 152.907 168.054C182.488 135.904 219.868 111.913 261.45 98.3885L290.839 188.149C264.674 196.659 241.153 211.755 222.539 231.985C203.926 252.215 190.846 276.898 184.559 303.658C178.272 330.417 178.989 358.354 186.642 384.778C194.294 411.203 208.624 435.225 228.253 454.535L161.987 521.737Z"/>
</mask>
<path d="M161.987 521.737C130.792 491.05 108.019 452.872 95.857 410.877C83.6955 368.883 82.5557 324.486 92.5473 281.958C102.539 239.43 123.326 200.204 152.907 168.054C182.488 135.904 219.868 111.913 261.45 98.3885L290.839 188.149C264.674 196.659 241.153 211.755 222.539 231.985C203.926 252.215 190.846 276.898 184.559 303.658C178.272 330.417 178.989 358.354 186.642 384.778C194.294 411.203 208.624 435.225 228.253 454.535L161.987 521.737Z" stroke="white" stroke-opacity="0.26" stroke-width="2" stroke-dasharray="5 5" mask="url(#path-2-inside-2_101_2)"/>
<mask id="path-3-inside-3_101_2" fill="white">
<path d="M228.299 480.181C250.601 498.009 276.855 510.227 304.857 515.808C332.858 521.39 361.79 520.173 389.224 512.26C416.657 504.347 441.793 489.968 462.52 470.331C483.246 450.693 498.96 426.37 508.342 399.403C517.723 372.436 520.499 343.612 516.436 315.35C512.373 287.089 501.589 260.214 484.99 236.982C468.391 213.751 446.462 194.84 421.042 181.837C395.623 168.834 367.455 162.119 338.903 162.255L339.044 191.974C362.842 191.86 386.32 197.458 407.508 208.296C428.695 219.133 446.974 234.896 460.809 254.26C474.644 273.623 483.632 296.024 487.019 319.58C490.406 343.136 488.092 367.161 480.272 389.638C472.453 412.115 459.355 432.389 442.079 448.757C424.803 465.124 403.853 477.109 380.987 483.705C358.121 490.301 334.006 491.315 310.667 486.662C287.327 482.01 265.445 471.827 246.855 456.967L228.299 480.181Z"/>
</mask>
<path d="M228.299 480.181C250.601 498.009 276.855 510.227 304.857 515.808C332.858 521.39 361.79 520.173 389.224 512.26C416.657 504.347 441.793 489.968 462.52 470.331C483.246 450.693 498.96 426.37 508.342 399.403C517.723 372.436 520.499 343.612 516.436 315.35C512.373 287.089 501.589 260.214 484.99 236.982C468.391 213.751 446.462 194.84 421.042 181.837C395.623 168.834 367.455 162.119 338.903 162.255L339.044 191.974C362.842 191.86 386.32 197.458 407.508 208.296C428.695 219.133 446.974 234.896 460.809 254.26C474.644 273.623 483.632 296.024 487.019 319.58C490.406 343.136 488.092 367.161 480.272 389.638C472.453 412.115 459.355 432.389 442.079 448.757C424.803 465.124 403.853 477.109 380.987 483.705C358.121 490.301 334.006 491.315 310.667 486.662C287.327 482.01 265.445 471.827 246.855 456.967L228.299 480.181Z" stroke="#C75B5B" stroke-width="58" mask="url(#path-3-inside-3_101_2)"/>
<mask id="path-4-inside-4_101_2" fill="white">
<path d="M339.5 162.253C302.444 162.305 266.323 173.889 236.148 195.396C205.973 216.904 183.239 247.27 171.101 282.281C158.963 317.292 158.021 355.213 168.407 390.783C178.793 426.354 199.992 457.81 229.063 480.788L247.492 457.473C223.262 438.32 205.592 412.101 196.935 382.453C188.279 352.805 189.063 321.198 199.181 292.016C209.298 262.834 228.247 237.524 253.398 219.597C278.549 201.671 308.656 192.016 339.542 191.972L339.5 162.253Z"/>
</mask>
<path d="M339.5 162.253C302.444 162.305 266.323 173.889 236.148 195.396C205.973 216.904 183.239 247.27 171.101 282.281C158.963 317.292 158.021 355.213 168.407 390.783C178.793 426.354 199.992 457.81 229.063 480.788L247.492 457.473C223.262 438.32 205.592 412.101 196.935 382.453C188.279 352.805 189.063 321.198 199.181 292.016C209.298 262.834 228.247 237.524 253.398 219.597C278.549 201.671 308.656 192.016 339.542 191.972L339.5 162.253Z" stroke="#C7A15B" stroke-width="58" mask="url(#path-4-inside-4_101_2)"/>
<mask id="mask0_101_2" style="mask-type:alpha" maskUnits="userSpaceOnUse" x="161" y="162" width="179" height="319">
<mask id="path-5-inside-5_101_2" fill="white">
<path d="M339.5 162.253C302.444 162.305 266.324 173.889 236.148 195.396C205.973 216.904 183.24 247.27 171.101 282.281C158.963 317.292 158.021 355.213 168.407 390.783C178.793 426.354 199.992 457.81 229.063 480.788L247.492 457.473C223.262 438.32 205.592 412.101 196.936 382.453C188.279 352.805 189.063 321.198 199.181 292.016C209.298 262.834 228.247 237.524 253.398 219.597C278.549 201.671 308.656 192.016 339.542 191.972L339.5 162.253Z"/>
</mask>
<path d="M339.5 162.253C302.444 162.305 266.324 173.889 236.148 195.396C205.973 216.904 183.24 247.27 171.101 282.281C158.963 317.292 158.021 355.213 168.407 390.783C178.793 426.354 199.992 457.81 229.063 480.788L247.492 457.473C223.262 438.32 205.592 412.101 196.936 382.453C188.279 352.805 189.063 321.198 199.181 292.016C209.298 262.834 228.247 237.524 253.398 219.597C278.549 201.671 308.656 192.016 339.542 191.972L339.5 162.253Z" stroke="#C7A15B" stroke-width="58" mask="url(#path-5-inside-5_101_2)"/>
</mask>
<g mask="url(#mask0_101_2)">
<path d="M254.5 217.768L233.5 197.768L135.5 145.268L75.5001 342.768L167.5 527.268L289.5 476.768L254.5 217.768Z" fill="#C75B5B"/>
</g>
</svg>
