<svg width="26" height="26" viewBox="0 0 26 26" fill="none" xmlns="http://www.w3.org/2000/svg">
<path d="M9.1505 25.9696C9.00994 26.0042 8.86429 26.0093 8.72186 25.9846C8.57943 25.9599 8.44302 25.9059 8.32044 25.8256C8.19785 25.7453 8.09149 25.6404 8.00744 25.5167C7.92339 25.3931 7.86328 25.2533 7.83058 25.1052L3.02873 3.42061C2.99595 3.27256 2.99117 3.11916 3.01466 2.96917C3.03816 2.81917 3.08948 2.67551 3.16568 2.54641C3.24189 2.4173 3.34149 2.30526 3.4588 2.2167C3.5761 2.12814 3.70882 2.06479 3.84938 2.03025C3.98993 1.99572 4.13556 1.9907 4.27796 2.01545C4.42036 2.0402 4.55674 2.09425 4.6793 2.17452C4.80187 2.25479 4.90823 2.35971 4.99231 2.48327C5.07638 2.60684 5.13653 2.74664 5.16931 2.89469L9.97114 24.5792C10.004 24.7273 10.0089 24.8807 9.9854 25.0308C9.96194 25.1808 9.91064 25.3245 9.83442 25.4536C9.7582 25.5827 9.65857 25.6948 9.54122 25.7833C9.42387 25.8719 9.29109 25.9352 9.1505 25.9696Z" fill="#322D25"/>
<path d="M22.1505 22.9709C22.01 23.0041 21.8643 23.0089 21.7219 22.9853C21.5794 22.9616 21.443 22.9098 21.3204 22.8329C21.1979 22.7559 21.0915 22.6553 21.0074 22.5369C20.9234 22.4184 20.8633 22.2844 20.8306 22.1425L16.0287 1.36142C15.9959 1.21954 15.9912 1.07253 16.0147 0.928785C16.0382 0.785038 16.0895 0.647366 16.1657 0.523639C16.2419 0.399913 16.3415 0.292543 16.4588 0.207672C16.5761 0.122802 16.7088 0.0620876 16.8494 0.0289941C16.9899 -0.00409946 17.1356 -0.00891325 17.278 0.0148082C17.4204 0.0385296 17.5567 0.0903226 17.6793 0.167248C17.8019 0.244173 17.9082 0.34472 17.9923 0.463138C18.0764 0.581555 18.1365 0.715533 18.1693 0.857415L22.9711 21.6385C23.004 21.7803 23.0089 21.9274 22.9854 22.0712C22.9619 22.2149 22.9106 22.3526 22.8344 22.4764C22.7582 22.6001 22.6586 22.7075 22.5412 22.7923C22.4239 22.8772 22.2911 22.9379 22.1505 22.9709Z" fill="#322D25"/>
<path d="M22.1424 5.16972L1.35699 9.97234C1.07092 10.0371 0.770581 9.98704 0.521703 9.83301C0.272825 9.67899 0.09567 9.43357 0.0290105 9.15047C-0.0376491 8.86737 0.011613 8.56965 0.166015 8.32244C0.320417 8.07524 0.567385 7.89868 0.852877 7.83141L21.6383 3.02874C21.7802 2.99595 21.9272 2.99116 22.071 3.01467C22.2148 3.03817 22.3525 3.08949 22.4762 3.1657C22.6 3.24192 22.7074 3.34154 22.7923 3.45887C22.8772 3.5762 22.9379 3.70894 22.971 3.84952C23.0041 3.9901 23.0089 4.13575 22.9852 4.27818C22.9615 4.4206 22.9097 4.557 22.8327 4.67959C22.7558 4.80218 22.6552 4.90855 22.5368 4.99264C22.4183 5.07673 22.2843 5.1369 22.1424 5.16969V5.16972Z" fill="#322D25"/>
<path d="M25.1426 17.4792L4.36144 22.9672C4.0749 23.0428 3.77354 22.9865 3.52366 22.8107C3.27378 22.6348 3.09585 22.3537 3.02901 22.0293C2.96217 21.7049 3.0119 21.3637 3.16725 21.0808C3.32261 20.7979 3.57087 20.5964 3.85741 20.5208L24.6386 15.0328C24.7805 14.9954 24.9275 14.9899 25.0712 15.0168C25.215 15.0436 25.3526 15.1023 25.4764 15.1893C25.6001 15.2764 25.7074 15.3903 25.7923 15.5243C25.8772 15.6584 25.9379 15.8101 25.971 15.9707C26.0041 16.1313 26.0089 16.2978 25.9852 16.4605C25.9615 16.6233 25.9097 16.7791 25.8328 16.9192C25.7558 17.0593 25.6553 17.1809 25.5369 17.2769C25.4185 17.373 25.2845 17.4418 25.1426 17.4792Z" fill="#322D25"/>
</svg>
