<svg width="42" height="25" viewBox="0 0 42 25" fill="none" xmlns="http://www.w3.org/2000/svg">
<path d="M15.6352 10.4915C15.1452 11.9989 14.2191 13.3272 12.9741 14.3083C11.7291 15.2894 10.2212 15.8792 8.64092 16.0033C7.06069 16.1273 5.47917 15.7799 4.09637 15.005C2.71358 14.2302 1.59163 13.0626 0.872419 11.6501C0.153206 10.2376 -0.130955 8.64347 0.0558585 7.06942C0.242672 5.49537 0.892068 4.01208 1.92193 2.80713C2.9518 1.60218 4.31587 0.729697 5.84162 0.300032C7.36737 -0.129632 8.98627 -0.0971797 10.4936 0.393281C12.513 1.05276 14.1883 2.48625 15.1522 4.37933C16.1161 6.27241 16.2898 8.4705 15.6352 10.4915ZM2.57223 6.24288C2.22195 7.31915 2.19869 8.47511 2.50538 9.56459C2.81208 10.6541 3.43495 11.6282 4.29524 12.3636C5.15553 13.0991 6.21461 13.563 7.33853 13.6966C8.46245 13.8301 9.60074 13.6274 10.6095 13.1141C11.6182 12.6007 12.452 11.7998 13.0055 10.8125C13.559 9.8253 13.8074 8.69608 13.7191 7.5677C13.6308 6.43932 13.21 5.36244 12.5097 4.47326C11.8094 3.58408 10.8612 2.92253 9.78492 2.57225C8.34166 2.10504 6.77205 2.22904 5.42006 2.91709C4.06807 3.60514 3.04398 4.8011 2.57223 6.24288Z" fill="#322D25"/>
<path d="M41.6096 18.9398C41.1196 20.4472 40.1935 21.7755 38.9486 22.7566C37.7036 23.7377 36.1956 24.3275 34.6154 24.4516C33.0351 24.5756 31.4536 24.2282 30.0708 23.4533C28.688 22.6785 27.5661 21.5109 26.8469 20.0984C26.1276 18.6859 25.8435 17.0918 26.0303 15.5177C26.2171 13.9437 26.8665 12.4604 27.8964 11.2554C28.9262 10.0505 30.2903 9.178 31.816 8.74833C33.3418 8.31867 34.9607 8.35112 36.468 8.84159C38.4874 9.50107 40.1627 10.9346 41.1266 12.8276C42.0905 14.7207 42.2642 16.9188 41.6096 18.9398ZM28.5467 14.6912C28.1964 15.7675 28.1731 16.9234 28.4798 18.0129C28.7865 19.1024 29.4094 20.0765 30.2697 20.8119C31.13 21.5474 32.189 22.0113 33.313 22.1449C34.4369 22.2784 35.5752 22.0757 36.5839 21.5624C37.5926 21.049 38.4264 20.2481 38.9799 19.2609C39.5335 18.2736 39.7818 17.1444 39.6935 16.016C39.6053 14.8876 39.1844 13.8108 38.4841 12.9216C37.7838 12.0324 36.8356 11.3708 35.7594 11.0205C34.3161 10.5533 32.7465 10.6773 31.3945 11.3654C30.0425 12.0534 29.0184 13.2494 28.5467 14.6912Z" fill="#322D25"/>
<path d="M28.6979 14.7401C28.6515 14.8832 28.5773 15.0158 28.4795 15.1302C28.3818 15.2446 28.2625 15.3387 28.1284 15.4069C27.9943 15.4752 27.8481 15.5164 27.6981 15.5281C27.548 15.5398 27.3972 15.5219 27.2541 15.4752L14.1911 11.2266C13.9022 11.1327 13.6624 10.9277 13.5245 10.657C13.3866 10.3862 13.362 10.0717 13.456 9.78279C13.5499 9.49384 13.7548 9.25405 14.0256 9.11618C14.2964 8.97831 14.6109 8.95365 14.8998 9.04763L27.9628 13.2962C28.1059 13.3427 28.2385 13.4169 28.3529 13.5146C28.4674 13.6123 28.5614 13.7317 28.6297 13.8658C28.6979 13.9999 28.7391 14.1461 28.7508 14.2961C28.7626 14.4462 28.7446 14.597 28.6979 14.7401Z" fill="#322D25"/>
</svg>
