<svg width="24" height="43" viewBox="0 0 24 43" fill="none" xmlns="http://www.w3.org/2000/svg">
<path d="M27.0912 37.3039C26.9926 37.4529 26.8643 37.5786 26.7136 37.674C26.5629 37.7694 26.3929 37.8326 26.2131 37.8598C26.0334 37.8871 25.8475 37.8779 25.6661 37.8328C25.4847 37.7878 25.3113 37.7077 25.1559 37.5972L2.38665 21.4305C2.2312 21.3201 2.0967 21.1815 1.99085 21.0225C1.88499 20.8636 1.80984 20.6874 1.7697 20.504C1.72957 20.3207 1.72521 20.1338 1.7569 19.9539C1.78859 19.7741 1.85569 19.6049 1.95438 19.456C2.05308 19.3071 2.18143 19.1814 2.3321 19.0861C2.48277 18.9908 2.6528 18.9277 2.83251 18.9004C3.01222 18.8732 3.19808 18.8823 3.37947 18.9273C3.56086 18.9723 3.73423 19.0523 3.88969 19.1626L26.6589 35.3294C26.8145 35.4397 26.949 35.5783 27.055 35.7373C27.1609 35.8962 27.2361 36.0724 27.2762 36.2558C27.3164 36.4392 27.3207 36.6261 27.2889 36.806C27.2572 36.9858 27.19 37.155 27.0912 37.3039Z" fill="#322D25"/>
<path d="M36.9319 22.4831C36.8319 22.6305 36.7034 22.7561 36.5537 22.8526C36.4041 22.9491 36.2362 23.0146 36.0597 23.0454C35.8832 23.0762 35.7016 23.0717 35.5252 23.0321C35.3487 22.9925 35.181 22.9186 35.0316 22.8147L13.1383 7.60783C12.9889 7.504 12.8606 7.37217 12.7608 7.21985C12.661 7.06752 12.5916 6.8977 12.5567 6.72007C12.5218 6.54244 12.522 6.36047 12.5572 6.18458C12.5925 6.00869 12.6622 5.8423 12.7622 5.69492C12.8623 5.54754 12.9909 5.42207 13.1406 5.32564C13.2902 5.22921 13.4581 5.16372 13.6345 5.13292C13.811 5.10212 13.9926 5.10662 14.169 5.14614C14.3454 5.18566 14.5132 5.25945 14.6626 5.36327L36.5558 20.5702C36.7054 20.6739 36.8338 20.8057 36.9336 20.9581C37.0335 21.1104 37.1029 21.2802 37.1378 21.4579C37.1727 21.6355 37.1725 21.8175 37.1372 21.9934C37.1019 22.1693 37.0321 22.3357 36.9319 22.4831Z" fill="#322D25"/>
<path d="M22.2583 6.44258L7.04804 28.3402C6.83762 28.6404 6.51853 28.848 6.16061 28.9176C5.80269 28.9871 5.43508 28.913 5.13823 28.7114C4.84137 28.5098 4.63946 28.1972 4.57665 27.8419C4.51384 27.4866 4.59526 27.1176 4.80309 26.8157L20.0133 4.91803C20.1172 4.76852 20.249 4.6402 20.4014 4.54038C20.5537 4.44056 20.7236 4.3712 20.9013 4.33627C21.0789 4.30133 21.2609 4.30151 21.4369 4.33678C21.6128 4.37204 21.7792 4.44172 21.9266 4.54182C22.074 4.64192 22.1995 4.77049 22.296 4.92018C22.3924 5.06988 22.4579 5.23777 22.4887 5.41427C22.5195 5.59077 22.515 5.7724 22.4755 5.94884C22.436 6.12527 22.3622 6.29304 22.2583 6.44255L22.2583 6.44258Z" fill="#322D25"/>
<path d="M34.379 15.4559L19.8372 38.078C19.6366 38.39 19.3105 38.5917 18.9304 38.6389C18.5504 38.6861 18.1476 38.5748 17.8106 38.3296C17.4736 38.0844 17.2301 37.7253 17.1336 37.3313C17.0371 36.9374 17.0956 36.5408 17.2961 36.2289L31.8379 13.6067C31.9372 13.4523 32.0683 13.3232 32.2239 13.227C32.3795 13.1308 32.5564 13.0692 32.7446 13.0459C32.9328 13.0225 33.1285 13.0378 33.3207 13.0909C33.5128 13.1439 33.6976 13.2337 33.8645 13.3552C34.0313 13.4766 34.177 13.6272 34.2931 13.7985C34.4093 13.9698 34.4937 14.1584 34.5414 14.3534C34.5892 14.5485 34.5995 14.7463 34.5716 14.9354C34.5437 15.1246 34.4783 15.3014 34.379 15.4559Z" fill="#322D25"/>
</svg>
