<svg width="56" height="66" viewBox="0 0 56 66" fill="none" xmlns="http://www.w3.org/2000/svg">
<path d="M28 66C27.7984 65.9999 27.6004 65.9455 27.4259 65.842L0.583162 49.9492C0.406063 49.8462 0.258784 49.6969 0.156327 49.5164C0.0538701 49.336 -7.16941e-05 49.1308 7.15156e-08 48.922V17.0774C-5.44948e-05 16.8702 0.0530578 16.6665 0.154052 16.487C0.255045 16.3075 0.400339 16.1584 0.575301 16.0548L27.4247 0.157368C27.5998 0.0542548 27.7982 0 28 0C28.2019 0 28.4002 0.0542548 28.5753 0.157368L55.4248 16.0548C55.5997 16.1584 55.745 16.3075 55.8459 16.487C55.9469 16.6665 56.0001 16.8702 56 17.0774V48.922C56.0001 49.1292 55.9469 49.3329 55.8459 49.5124C55.745 49.6919 55.5997 49.8409 55.4248 49.9446L28.5753 65.842C28.4003 65.9453 28.202 65.9998 28 66ZM2.3012 48.2337L9.54643 52.5409L28 63.4567L53.6988 48.2406V17.7588L28 2.54273L2.3012 17.7588V48.2337Z" fill="#312D25"/>
<path d="M28.5 57C28.2926 57 28.0888 56.9468 27.9091 56.846L7.59099 45.4256C7.41127 45.3246 7.26203 45.1792 7.15829 45.0042C7.05455 44.8292 6.99994 44.6307 7 44.4286V21.5708C6.99994 21.3688 7.05455 21.1702 7.15829 20.9952C7.26203 20.8202 7.41127 20.6749 7.59099 20.5739L27.9091 9.15342C28.0889 9.0529 28.2927 9 28.5 9C28.7074 9 28.9111 9.0529 29.091 9.15342L49.409 20.5739C49.5887 20.6749 49.738 20.8202 49.8417 20.9952C49.9454 21.1702 50.0001 21.3688 50 21.5708V44.4286C50 44.6306 49.9454 44.8292 49.8417 45.0042C49.738 45.1792 49.5887 45.3245 49.409 45.4255L29.091 56.846C28.9112 56.9468 28.7074 56.9999 28.5 57ZM9.36379 43.7644L28.5 54.5207L47.6363 43.7644V22.2351L28.5 11.4787L9.36379 22.2351V43.7644Z" fill="#312D25"/>
</svg>
