<svg width="37" height="37" viewBox="0 0 37 37" fill="none" xmlns="http://www.w3.org/2000/svg">
<path d="M10.4198 14.0793C9.19187 13.7504 8.08906 13.0649 7.2508 12.1092C6.41255 11.1536 5.8765 9.97078 5.71049 8.71047C5.54447 7.45016 5.75595 6.16893 6.31814 5.02882C6.88034 3.8887 7.76801 2.94091 8.86889 2.30532C9.96978 1.66972 11.2344 1.37487 12.5029 1.45805C13.7714 1.54124 14.9867 1.99871 15.9951 2.77263C17.0036 3.54656 17.7599 4.60215 18.1684 5.80593C18.5769 7.0097 18.6192 8.30758 18.29 9.53541C17.847 11.1805 16.7697 12.5827 15.2943 13.4345C13.8189 14.2863 12.0659 14.5182 10.4198 14.0793ZM13.271 3.43841C12.3943 3.20331 11.4676 3.23346 10.608 3.52506C9.74841 3.81667 8.99462 4.35661 8.44191 5.07663C7.8892 5.79664 7.5624 6.66439 7.50286 7.57012C7.44333 8.47586 7.6537 9.37892 8.1074 10.1651C8.5611 10.9513 9.23774 11.5852 10.0518 11.9868C10.8658 12.3884 11.7806 12.5397 12.6806 12.4213C13.5805 12.303 14.4251 11.9205 15.1077 11.3221C15.7902 10.7238 16.28 9.93646 16.5151 9.05974C16.8283 7.8842 16.6627 6.63242 16.0546 5.57874C15.4465 4.52506 14.4455 3.75541 13.271 3.43847L13.271 3.43841Z" fill="#312D25"/>
<path d="M23.2523 34.3621C22.0246 34.0329 20.9221 33.3472 20.0841 32.3914C19.2462 31.4357 18.7104 30.253 18.5446 28.9928C18.3788 27.7326 18.5903 26.4516 19.1525 25.3117C19.7147 24.1717 20.6023 23.2241 21.7031 22.5886C22.8038 21.9531 24.0683 21.6582 25.3367 21.7413C26.605 21.8244 27.8202 22.2817 28.8286 23.0554C29.8371 23.829 30.5934 24.8844 31.0021 26.0879C31.4108 27.2914 31.4535 28.5892 31.1247 29.8169C30.682 31.4627 29.6045 32.8656 28.1286 33.7178C26.6526 34.5699 24.8989 34.8016 23.2523 34.3621ZM26.1035 23.7212C25.2267 23.4865 24.2999 23.517 23.4405 23.8089C22.581 24.1008 21.8275 24.6411 21.275 25.3613C20.7226 26.0815 20.3962 26.9494 20.337 27.8552C20.2778 28.7609 20.4885 29.6639 20.9425 30.4499C21.3965 31.2359 22.0734 31.8696 22.8875 32.2709C23.7017 32.6722 24.6166 32.823 25.5165 32.7044C26.4164 32.5857 27.2609 32.2029 27.9432 31.6043C28.6255 31.0057 29.115 30.2182 29.3498 29.3414C29.6634 28.1656 29.4977 26.9135 28.8891 25.8598C28.2805 24.8061 27.2786 24.037 26.1035 23.7212Z" fill="#312D25"/>
<path d="M19.3586 27.6154L7.63441 24.4739C7.51783 24.4427 7.40856 24.3889 7.3128 24.3154C7.21705 24.242 7.13668 24.1504 7.07634 24.0459C7.016 23.9414 6.97688 23.826 6.96117 23.7064C6.94545 23.5867 6.95344 23.4652 6.98474 23.3486L9.77 12.9539C9.83307 12.7186 9.98706 12.5179 10.1981 12.3961C10.4091 12.2742 10.6599 12.2412 10.8953 12.3043C11.1306 12.3673 11.3313 12.5213 11.4531 12.7323C11.575 12.9434 11.608 13.1941 11.5449 13.4295L8.99746 22.9368L19.8342 25.8405C20.0695 25.9035 20.2702 26.0575 20.3921 26.2685C20.5139 26.4796 20.5469 26.7303 20.4838 26.9657C20.4208 27.2011 20.2668 27.4018 20.0558 27.5236C19.8448 27.6454 19.594 27.6784 19.3586 27.6154Z" fill="#312D25"/>
</svg>
