<svg width="42" height="42" viewBox="0 0 42 42" fill="none" xmlns="http://www.w3.org/2000/svg">
<path d="M14.7816 41.951C14.5545 42.007 14.3192 42.0152 14.0891 41.9753C13.8591 41.9354 13.6387 41.8481 13.4407 41.7184C13.2427 41.5887 13.0708 41.4192 12.9351 41.2195C12.7993 41.0198 12.7022 40.7939 12.6494 40.5546L4.89254 5.52573C4.83958 5.28657 4.83186 5.03877 4.86982 4.79647C4.90778 4.55417 4.99067 4.32211 5.11377 4.11355C5.23687 3.905 5.39777 3.72401 5.58726 3.58095C5.77676 3.43789 5.99115 3.33555 6.2182 3.27977C6.44524 3.22399 6.6805 3.21587 6.91053 3.25586C7.14056 3.29584 7.36086 3.38315 7.55885 3.51281C7.75684 3.64248 7.92866 3.81196 8.06447 4.01157C8.20028 4.21118 8.29744 4.43701 8.3504 4.67617L16.1072 39.7051C16.1603 39.9442 16.1681 40.1921 16.1302 40.4344C16.0923 40.6768 16.0095 40.9089 15.8863 41.1175C15.7632 41.3261 15.6023 41.5071 15.4127 41.6501C15.2231 41.7931 15.0087 41.8954 14.7816 41.951Z" fill="#322D25"/>
<path d="M35.7816 37.1068C35.5545 37.1604 35.3192 37.1683 35.0891 37.13C34.8591 37.0918 34.6387 37.0081 34.4407 36.8838C34.2427 36.7596 34.0709 36.5971 33.9351 36.4057C33.7993 36.2144 33.7022 35.9979 33.6494 35.7686L25.8925 2.19922C25.8396 1.97003 25.8319 1.73255 25.8698 1.50034C25.9078 1.26814 25.9907 1.04574 26.1138 0.845879C26.2369 0.646013 26.3978 0.472569 26.5873 0.335471C26.7768 0.198373 26.9912 0.100295 27.2182 0.0468366C27.4452 -0.0066222 27.6805 -0.0143983 27.9105 0.0239209C28.1406 0.0622401 28.3609 0.145906 28.5589 0.270169C28.7568 0.394433 28.9287 0.556856 29.0645 0.748145C29.2003 0.939435 29.2974 1.15586 29.3504 1.38505L37.1072 34.9544C37.1603 35.1836 37.1681 35.4212 37.1302 35.6534C37.0923 35.8857 37.0095 36.1081 36.8863 36.308C36.7632 36.5079 36.6023 36.6813 36.4127 36.8184C36.2231 36.9555 36.0087 37.0535 35.7816 37.1068Z" fill="#322D25"/>
<path d="M35.7685 8.35106L2.19206 16.1091C1.72994 16.2138 1.24478 16.1329 0.84275 15.8841C0.440717 15.6353 0.154544 15.2388 0.0468631 14.7815C-0.0608177 14.3242 0.0187594 13.8433 0.268178 13.4439C0.517596 13.0446 0.916545 12.7594 1.37773 12.6507L34.9542 4.89255C35.1834 4.83958 35.4209 4.83186 35.6532 4.86982C35.8854 4.90779 36.1079 4.99068 36.3078 5.1138C36.5077 5.23692 36.6812 5.39785 36.8183 5.58738C36.9554 5.77691 37.0535 5.99135 37.107 6.21843C37.1605 6.44552 37.1683 6.68081 37.1299 6.91088C37.0916 7.14095 37.0079 7.36129 36.8836 7.55932C36.7593 7.75735 36.5969 7.92917 36.4056 8.065C36.2142 8.20084 35.9978 8.29804 35.7685 8.35101V8.35106Z" fill="#322D25"/>
<path d="M40.6149 28.2358L7.04538 37.1009C6.5825 37.2231 6.09569 37.1322 5.69204 36.848C5.28839 36.5639 5.00096 36.1099 4.89299 35.5858C4.78502 35.0618 4.86535 34.5106 5.11631 34.0536C5.36727 33.5966 5.7683 33.2712 6.23118 33.149L39.8007 24.2839C40.0299 24.2234 40.2674 24.2145 40.4996 24.2579C40.7318 24.3013 40.9542 24.396 41.1541 24.5367C41.354 24.6774 41.5274 24.8612 41.6645 25.0778C41.8016 25.2944 41.8997 25.5394 41.9531 25.7989C42.0066 26.0584 42.0144 26.3273 41.9761 26.5901C41.9377 26.853 41.8541 27.1048 41.7298 27.3311C41.6056 27.5574 41.4431 27.7538 41.2519 27.909C41.0606 28.0642 40.8441 28.1752 40.6149 28.2358Z" fill="#322D25"/>
</svg>
