<svg width="1843" height="1151" viewBox="0 0 1843 1151" fill="none" xmlns="http://www.w3.org/2000/svg">
<path d="M331.635 232.406C331.145 233.914 330.219 235.242 328.974 236.223C327.729 237.204 326.221 237.794 324.641 237.918C323.061 238.042 321.479 237.695 320.096 236.92C318.714 236.145 317.592 234.977 316.872 233.565C316.153 232.152 315.869 230.558 316.056 228.984C316.243 227.41 316.892 225.927 317.922 224.722C318.952 223.517 320.316 222.644 321.842 222.215C323.367 221.785 324.986 221.818 326.494 222.308C328.513 222.968 330.188 224.401 331.152 226.294C332.116 228.187 332.29 230.385 331.635 232.406ZM318.572 228.158C318.222 229.234 318.199 230.39 318.505 231.479C318.812 232.569 319.435 233.543 320.295 234.278C321.156 235.014 322.215 235.478 323.339 235.611C324.462 235.745 325.601 235.542 326.609 235.029C327.618 234.516 328.452 233.715 329.006 232.727C329.559 231.74 329.807 230.611 329.719 229.482C329.631 228.354 329.21 227.277 328.51 226.388C327.809 225.499 326.861 224.837 325.785 224.487C324.342 224.02 322.772 224.144 321.42 224.832C320.068 225.52 319.044 226.716 318.572 228.158V228.158Z" fill="#322E25"/>
<path d="M357.61 240.854C357.12 242.362 356.194 243.69 354.949 244.671C353.704 245.652 352.196 246.242 350.615 246.366C349.035 246.49 347.454 246.143 346.071 245.368C344.688 244.593 343.566 243.426 342.847 242.013C342.128 240.601 341.843 239.007 342.03 237.432C342.217 235.858 342.866 234.375 343.896 233.17C344.926 231.965 346.29 231.093 347.816 230.663C349.342 230.233 350.961 230.266 352.468 230.756C354.487 231.416 356.163 232.849 357.127 234.742C358.091 236.635 358.264 238.834 357.61 240.854V240.854ZM344.547 236.606C344.196 237.682 344.173 238.838 344.48 239.928C344.787 241.017 345.409 241.991 346.27 242.727C347.13 243.462 348.189 243.926 349.313 244.06C350.437 244.193 351.575 243.99 352.584 243.477C353.593 242.964 354.426 242.163 354.98 241.176C355.533 240.188 355.782 239.059 355.694 237.931C355.605 236.802 355.184 235.725 354.484 234.836C353.784 233.947 352.836 233.286 351.759 232.935C350.316 232.468 348.746 232.592 347.394 233.28C346.042 233.968 345.018 235.164 344.547 236.606V236.606Z" fill="#322E25"/>
<path d="M344.698 236.655C344.651 236.798 344.577 236.931 344.48 237.045C344.382 237.159 344.262 237.253 344.128 237.322C343.994 237.39 343.848 237.431 343.698 237.443C343.548 237.455 343.397 237.437 343.254 237.39L330.191 233.141C329.902 233.047 329.662 232.843 329.525 232.572C329.387 232.301 329.362 231.987 329.456 231.698C329.55 231.409 329.755 231.169 330.026 231.031C330.296 230.893 330.611 230.868 330.9 230.962L343.963 235.211C344.106 235.257 344.239 235.332 344.353 235.429C344.467 235.527 344.561 235.646 344.63 235.781C344.698 235.915 344.739 236.061 344.751 236.211C344.763 236.361 344.745 236.512 344.698 236.655V236.655Z" fill="#322E25"/>
<path d="M797.635 816.406C797.145 817.914 796.219 819.242 794.974 820.223C793.729 821.204 792.221 821.794 790.641 821.918C789.061 822.042 787.479 821.695 786.096 820.92C784.714 820.145 783.592 818.977 782.872 817.565C782.153 816.152 781.869 814.558 782.056 812.984C782.243 811.41 782.892 809.927 783.922 808.722C784.952 807.517 786.316 806.644 787.842 806.215C789.367 805.785 790.986 805.818 792.494 806.308C794.513 806.968 796.188 808.401 797.152 810.294C798.116 812.187 798.29 814.385 797.635 816.406ZM784.572 812.158C784.222 813.234 784.199 814.39 784.505 815.479C784.812 816.569 785.435 817.543 786.295 818.278C787.156 819.014 788.215 819.478 789.339 819.611C790.462 819.745 791.601 819.542 792.609 819.029C793.618 818.516 794.452 817.715 795.006 816.727C795.559 815.74 795.807 814.611 795.719 813.482C795.631 812.354 795.21 811.277 794.51 810.388C793.809 809.499 792.861 808.837 791.785 808.487C790.342 808.02 788.772 808.144 787.42 808.832C786.068 809.52 785.044 810.716 784.572 812.158V812.158Z" fill="#322E25"/>
<path d="M823.61 824.854C823.12 826.362 822.194 827.69 820.949 828.671C819.704 829.652 818.196 830.242 816.615 830.366C815.035 830.49 813.454 830.143 812.071 829.368C810.688 828.593 809.566 827.426 808.847 826.013C808.128 824.601 807.843 823.007 808.03 821.432C808.217 819.858 808.866 818.375 809.896 817.17C810.926 815.965 812.29 815.093 813.816 814.663C815.342 814.233 816.961 814.266 818.468 814.756C820.487 815.416 822.163 816.849 823.127 818.742C824.091 820.635 824.264 822.834 823.61 824.854V824.854ZM810.547 820.606C810.196 821.682 810.173 822.838 810.48 823.928C810.787 825.017 811.409 825.991 812.27 826.727C813.13 827.462 814.189 827.926 815.313 828.06C816.437 828.193 817.575 827.99 818.584 827.477C819.593 826.964 820.426 826.163 820.98 825.176C821.533 824.188 821.782 823.059 821.694 821.931C821.605 820.802 821.184 819.725 820.484 818.836C819.784 817.947 818.836 817.286 817.759 816.935C816.316 816.468 814.746 816.592 813.394 817.28C812.042 817.968 811.018 819.164 810.547 820.606V820.606Z" fill="#322E25"/>
<path d="M810.698 820.655C810.651 820.798 810.577 820.931 810.48 821.045C810.382 821.159 810.262 821.253 810.128 821.322C809.994 821.39 809.848 821.431 809.698 821.443C809.548 821.455 809.397 821.437 809.254 821.39L796.191 817.141C795.902 817.047 795.662 816.843 795.524 816.572C795.387 816.301 795.362 815.987 795.456 815.698C795.55 815.409 795.755 815.169 796.026 815.031C796.296 814.893 796.611 814.868 796.9 814.962L809.963 819.211C810.106 819.257 810.238 819.332 810.353 819.429C810.467 819.527 810.561 819.646 810.63 819.781C810.698 819.915 810.739 820.061 810.751 820.211C810.763 820.361 810.745 820.512 810.698 820.655V820.655Z" fill="#322E25"/>
<path d="M219.949 736.897C218.473 737.474 216.858 737.6 215.31 737.259C213.762 736.919 212.35 736.127 211.252 734.983C210.154 733.84 209.42 732.397 209.142 730.836C208.865 729.276 209.056 727.668 209.692 726.216C210.329 724.764 211.381 723.534 212.717 722.68C214.052 721.826 215.611 721.388 217.196 721.42C218.781 721.453 220.32 721.954 221.62 722.862C222.92 723.769 223.921 725.042 224.498 726.518C225.268 728.498 225.222 730.702 224.369 732.648C223.516 734.594 221.927 736.122 219.949 736.897ZM214.952 724.102C213.897 724.513 212.989 725.228 212.341 726.156C211.693 727.084 211.334 728.183 211.311 729.315C211.288 730.447 211.601 731.56 212.21 732.514C212.819 733.467 213.698 734.219 214.734 734.674C215.771 735.128 216.919 735.265 218.033 735.067C219.148 734.869 220.178 734.345 220.995 733.561C221.812 732.778 222.377 731.769 222.621 730.664C222.865 729.559 222.775 728.406 222.363 727.352C221.809 725.939 220.718 724.804 219.329 724.195C217.94 723.586 216.366 723.552 214.952 724.102V724.102Z" fill="#322E25"/>
<path d="M229.886 762.339C228.409 762.916 226.795 763.042 225.247 762.702C223.699 762.361 222.286 761.569 221.189 760.426C220.091 759.282 219.357 757.839 219.079 756.278C218.801 754.718 218.993 753.11 219.629 751.658C220.265 750.206 221.318 748.976 222.653 748.122C223.989 747.269 225.548 746.83 227.133 746.863C228.717 746.895 230.257 747.397 231.557 748.304C232.856 749.211 233.858 750.484 234.434 751.96C235.205 753.94 235.158 756.145 234.306 758.09C233.453 760.036 231.863 761.564 229.886 762.339V762.339ZM224.888 749.544C223.834 749.956 222.925 750.671 222.277 751.598C221.629 752.526 221.271 753.626 221.248 754.757C221.224 755.889 221.537 757.002 222.146 757.956C222.756 758.91 223.634 759.661 224.671 760.116C225.707 760.57 226.855 760.707 227.97 760.509C229.084 760.311 230.115 759.787 230.932 759.004C231.748 758.22 232.314 757.212 232.558 756.106C232.801 755.001 232.711 753.848 232.3 752.794C231.746 751.382 230.655 750.247 229.266 749.637C227.876 749.028 226.302 748.995 224.888 749.544V749.544Z" fill="#322E25"/>
<path d="M224.946 749.692C224.806 749.747 224.656 749.774 224.506 749.771C224.356 749.768 224.207 749.735 224.069 749.674C223.932 749.614 223.807 749.527 223.703 749.419C223.599 749.31 223.517 749.182 223.462 749.042L218.465 736.246C218.354 735.963 218.361 735.648 218.483 735.37C218.605 735.091 218.832 734.873 219.115 734.762C219.398 734.652 219.714 734.658 219.992 734.78C220.27 734.902 220.489 735.13 220.599 735.413L225.597 748.208C225.651 748.348 225.678 748.498 225.675 748.648C225.672 748.799 225.639 748.947 225.579 749.085C225.519 749.223 225.432 749.347 225.323 749.451C225.214 749.556 225.086 749.637 224.946 749.692V749.692Z" fill="#322E25"/>
<path d="M883 715.915C882.863 715.915 882.729 715.878 882.61 715.809L864.396 705.214C864.276 705.146 864.176 705.046 864.106 704.926C864.037 704.805 864 704.669 864 704.529V683.3C864 683.162 864.036 683.026 864.105 682.906C864.173 682.786 864.272 682.687 864.39 682.618L882.61 672.02C882.728 671.951 882.863 671.915 883 671.915C883.137 671.915 883.272 671.951 883.39 672.02L901.61 682.618C901.728 682.687 901.827 682.786 901.895 682.906C901.964 683.026 902 683.162 902 683.3V704.529C902 704.668 901.964 704.803 901.895 704.923C901.827 705.043 901.728 705.142 901.61 705.211L883.39 715.809C883.272 715.878 883.137 715.915 883 715.915V715.915ZM865.562 704.071L870.478 706.942L883 714.219L900.438 704.075V683.754L883 673.61L865.562 683.754V704.071Z" fill="#322E25"/>
<path d="M883.5 709.915C883.36 709.915 883.223 709.879 883.101 709.812L869.399 702.199C869.277 702.131 869.177 702.034 869.107 701.918C869.037 701.801 869 701.669 869 701.534V686.295C869 686.161 869.037 686.028 869.107 685.912C869.177 685.795 869.277 685.698 869.399 685.631L883.101 678.017C883.223 677.95 883.36 677.915 883.5 677.915C883.64 677.915 883.777 677.95 883.899 678.017L897.601 685.631C897.723 685.698 897.823 685.795 897.893 685.912C897.963 686.028 898 686.161 898 686.295V701.534C898 701.669 897.963 701.801 897.893 701.918C897.823 702.034 897.723 702.131 897.601 702.198L883.899 709.812C883.777 709.879 883.64 709.915 883.5 709.915ZM870.594 701.091L883.5 708.262L896.406 701.091V686.738L883.5 679.567L870.594 686.738V701.091Z" fill="#322E25"/>
<path d="M883 705.915C882.875 705.915 882.751 705.884 882.64 705.824C882.529 705.765 882.434 705.678 882.363 705.573L875.136 694.849C875.047 694.718 875 694.563 875 694.404C875 694.245 875.047 694.09 875.136 693.96L882.363 683.236C882.438 683.136 882.534 683.055 882.645 683C882.755 682.944 882.877 682.915 883 682.915C883.123 682.915 883.245 682.944 883.355 683C883.466 683.055 883.562 683.136 883.637 683.236L890.864 693.96C890.953 694.09 891 694.245 891 694.404C891 694.563 890.953 694.718 890.864 694.849L883.637 705.573C883.566 705.678 883.471 705.765 883.36 705.824C883.249 705.884 883.125 705.915 883 705.915V705.915ZM876.709 694.404L883 703.738L889.291 694.404L883 685.071L876.709 694.404Z" fill="#322E25"/>
<path d="M883.5 697.915C883.39 697.915 883.281 697.89 883.181 697.841L876 694.384L876.638 692.915L883.5 696.218L890.362 692.915L891 694.384L883.819 697.841C883.719 697.89 883.61 697.915 883.5 697.915Z" fill="#322E25"/>
<path d="M884 682.915H882V696.915H884V682.915Z" fill="#322E25"/>
<path d="M9.1505 164.884C9.00994 164.919 8.86429 164.924 8.72186 164.899C8.57943 164.875 8.44302 164.821 8.32044 164.74C8.19785 164.66 8.09149 164.555 8.00744 164.432C7.92339 164.308 7.86328 164.168 7.83058 164.02L3.02873 142.335C2.99595 142.187 2.99117 142.034 3.01466 141.884C3.03816 141.734 3.08948 141.59 3.16568 141.461C3.24189 141.332 3.34149 141.22 3.4588 141.131C3.57611 141.043 3.70882 140.98 3.84938 140.945C3.98993 140.911 4.13556 140.905 4.27796 140.93C4.42036 140.955 4.55674 141.009 4.6793 141.089C4.80187 141.17 4.90823 141.275 4.99231 141.398C5.07638 141.522 5.13653 141.661 5.16931 141.809L9.97114 163.494C10.004 163.642 10.0089 163.796 9.9854 163.946C9.96194 164.096 9.91064 164.239 9.83442 164.368C9.7582 164.498 9.65857 164.61 9.54122 164.698C9.42387 164.787 9.29109 164.85 9.1505 164.884Z" fill="#322E25"/>
<path d="M22.1505 161.886C22.01 161.919 21.8643 161.924 21.7219 161.9C21.5794 161.876 21.443 161.825 21.3204 161.748C21.1979 161.671 21.0915 161.57 21.0074 161.452C20.9234 161.333 20.8633 161.199 20.8306 161.057L16.0287 140.276C15.9959 140.134 15.9912 139.987 16.0147 139.844C16.0382 139.7 16.0895 139.562 16.1657 139.438C16.2419 139.315 16.3415 139.207 16.4588 139.122C16.5761 139.038 16.7088 138.977 16.8494 138.944C16.9899 138.911 17.1356 138.906 17.278 138.93C17.4204 138.953 17.5567 139.005 17.6793 139.082C17.8019 139.159 17.9082 139.26 17.9923 139.378C18.0764 139.496 18.1365 139.63 18.1693 139.772L22.9711 160.553C23.004 160.695 23.0089 160.842 22.9854 160.986C22.9619 161.13 22.9106 161.267 22.8344 161.391C22.7582 161.515 22.6586 161.622 22.5412 161.707C22.4239 161.792 22.2911 161.853 22.1505 161.886V161.886Z" fill="#322E25"/>
<path d="M22.1424 144.085L1.35699 148.887C1.07092 148.952 0.770581 148.902 0.521703 148.748C0.272825 148.594 0.09567 148.348 0.0290105 148.065C-0.0376491 147.782 0.011613 147.484 0.166015 147.237C0.320417 146.99 0.567385 146.813 0.852877 146.746L21.6383 141.944C21.7802 141.911 21.9272 141.906 22.071 141.929C22.2148 141.953 22.3525 142.004 22.4762 142.08C22.6 142.157 22.7074 142.256 22.7923 142.374C22.8772 142.491 22.9379 142.624 22.971 142.764C23.0041 142.905 23.0089 143.051 22.9852 143.193C22.9615 143.335 22.9097 143.472 22.8327 143.594C22.7558 143.717 22.6552 143.823 22.5368 143.907C22.4183 143.992 22.2843 144.052 22.1424 144.084V144.085Z" fill="#322E25"/>
<path d="M25.1426 156.394L4.36144 161.882C4.0749 161.958 3.77354 161.901 3.52366 161.725C3.27378 161.55 3.09585 161.268 3.02901 160.944C2.96217 160.62 3.0119 160.278 3.16725 159.996C3.32261 159.713 3.57087 159.511 3.85741 159.436L24.6386 153.948C24.7804 153.91 24.9275 153.905 25.0712 153.932C25.215 153.958 25.3526 154.017 25.4764 154.104C25.6001 154.191 25.7074 154.305 25.7923 154.439C25.8772 154.573 25.9379 154.725 25.971 154.886C26.0041 155.046 26.0089 155.213 25.9852 155.375C25.9615 155.538 25.9097 155.694 25.8328 155.834C25.7558 155.974 25.6553 156.096 25.5369 156.192C25.4185 156.288 25.2845 156.357 25.1426 156.394V156.394Z" fill="#322E25"/>
<g filter="url(#filter0_f_150_39)">
<ellipse cx="1493" cy="300.415" rx="649" ry="333.5" transform="rotate(-34.996 1493 300.415)" fill="#C7A15B" fill-opacity="0.03"/>
</g>
<path d="M567.373 791.727C565.156 791.725 562.989 791.067 561.146 789.835C559.303 788.602 557.866 786.852 557.017 784.804C556.168 782.756 555.945 780.502 556.376 778.327C556.806 776.152 557.872 774.154 559.438 772.584L565.434 766.588C565.498 766.524 565.585 766.487 565.677 766.487C565.768 766.487 565.855 766.523 565.92 766.588L566.51 767.174L567.091 764.996C567.107 764.937 567.138 764.884 567.181 764.841L572.667 759.355C574.774 757.26 577.625 756.086 580.596 756.09C583.567 756.094 586.415 757.276 588.516 759.377C590.617 761.478 591.799 764.326 591.803 767.297C591.807 770.268 590.633 773.119 588.538 775.226L583.249 780.515C583.179 780.571 583.094 780.606 583.005 780.616C582.959 780.616 582.915 780.607 582.873 780.589C582.831 780.572 582.793 780.546 582.761 780.514L582.231 779.981L581.686 782.013C581.67 782.071 581.64 782.124 581.597 782.167L575.309 788.455C574.268 789.498 573.031 790.325 571.669 790.886C570.307 791.448 568.847 791.734 567.373 791.727ZM565.678 767.318L559.924 773.071C557.949 775.046 556.839 777.726 556.839 780.52C556.839 783.313 557.949 785.993 559.924 787.968C561.9 789.944 564.579 791.054 567.373 791.054C570.167 791.054 572.846 789.944 574.822 787.968L581.045 781.745L581.721 779.224C581.737 779.165 581.768 779.112 581.811 779.069C581.853 779.027 581.907 778.996 581.965 778.98C582.024 778.965 582.085 778.965 582.144 778.981C582.202 778.996 582.256 779.027 582.298 779.07L583.006 779.784L588.051 774.739C589.029 773.761 589.805 772.6 590.334 771.322C590.864 770.044 591.136 768.674 591.136 767.29C591.136 765.907 590.864 764.537 590.334 763.259C589.805 761.981 589.029 760.82 588.051 759.842C587.073 758.864 585.911 758.088 584.633 757.558C583.355 757.029 581.985 756.756 580.602 756.756C579.219 756.757 577.849 757.029 576.571 757.558C575.293 758.088 574.131 758.864 573.153 759.842L567.733 765.263L567.022 767.927C567.007 767.985 566.976 768.038 566.934 768.081C566.891 768.124 566.838 768.155 566.78 768.17C566.721 768.186 566.66 768.186 566.602 768.17C566.543 768.155 566.49 768.124 566.447 768.082L565.678 767.318Z" fill="#332F25"/>
<path d="M580.817 784.26C580.764 784.26 580.711 784.247 580.664 784.224C580.617 784.201 580.575 784.167 580.543 784.125C580.511 784.083 580.489 784.034 580.479 783.982C580.468 783.93 580.47 783.877 580.484 783.826L581.721 779.224C581.737 779.165 581.768 779.112 581.811 779.069C581.854 779.027 581.907 778.996 581.965 778.98C582.024 778.965 582.086 778.965 582.144 778.981C582.203 778.996 582.256 779.027 582.298 779.07L583.007 779.784L588.051 774.739C590.027 772.764 591.136 770.084 591.136 767.29C591.136 764.497 590.026 761.817 588.051 759.842C586.075 757.866 583.396 756.756 580.602 756.756C577.808 756.757 575.129 757.866 573.154 759.842L567.668 765.328C567.614 765.381 567.544 765.416 567.469 765.426C567.394 765.436 567.318 765.421 567.252 765.383C567.186 765.345 567.135 765.286 567.106 765.216C567.077 765.146 567.072 765.069 567.092 764.995L567.433 763.723L565.664 764.2C565.591 764.22 565.514 764.215 565.443 764.186C565.373 764.157 565.315 764.105 565.277 764.04C565.239 763.974 565.224 763.898 565.234 763.823C565.243 763.747 565.278 763.678 565.331 763.624L571.137 757.819C573.651 755.315 577.055 753.911 580.603 753.915C584.151 753.919 587.552 755.33 590.06 757.839C592.569 760.348 593.979 763.75 593.982 767.298C593.984 770.845 592.579 774.249 590.075 776.762L590.074 776.763L585.029 781.808L585.662 782.441C585.705 782.484 585.736 782.538 585.752 782.596C585.767 782.654 585.767 782.716 585.752 782.774C585.736 782.833 585.705 782.886 585.662 782.929C585.619 782.972 585.566 783.002 585.507 783.018L580.906 784.248C580.877 784.256 580.847 784.26 580.817 784.26V784.26ZM582.232 779.981L581.305 783.428L584.753 782.506L584.299 782.051C584.267 782.019 584.241 781.981 584.224 781.94C584.207 781.898 584.198 781.853 584.198 781.808C584.198 781.763 584.207 781.718 584.224 781.676C584.241 781.634 584.267 781.596 584.299 781.564L589.587 776.276C590.767 775.096 591.703 773.696 592.342 772.155C592.981 770.614 593.31 768.962 593.31 767.293C593.31 765.625 592.982 763.973 592.344 762.431C591.706 760.89 590.77 759.489 589.591 758.309C588.411 757.129 587.011 756.193 585.47 755.554C583.929 754.916 582.277 754.587 580.608 754.586C578.94 754.586 577.288 754.914 575.746 755.552C574.205 756.191 572.804 757.126 571.624 758.305L566.73 763.2L567.831 762.903C567.889 762.887 567.951 762.887 568.009 762.903C568.068 762.918 568.121 762.949 568.164 762.992C568.207 763.034 568.237 763.088 568.253 763.146C568.269 763.204 568.269 763.266 568.253 763.324L568.09 763.931L572.667 759.355C574.774 757.26 577.625 756.086 580.596 756.09C583.567 756.094 586.415 757.276 588.516 759.377C590.617 761.478 591.799 764.326 591.803 767.297C591.807 770.268 590.633 773.119 588.538 775.226L583.249 780.515C583.179 780.571 583.094 780.606 583.005 780.616C582.96 780.616 582.915 780.607 582.873 780.589C582.831 780.572 582.793 780.546 582.761 780.514L582.232 779.981Z" fill="#332F25"/>
<path d="M567.373 791.727C565.156 791.725 562.989 791.067 561.146 789.835C559.303 788.602 557.866 786.852 557.017 784.804C556.168 782.756 555.945 780.502 556.376 778.327C556.806 776.152 557.872 774.154 559.438 772.584L565.434 766.588C565.498 766.524 565.585 766.487 565.677 766.487C565.768 766.487 565.855 766.523 565.92 766.588L566.51 767.174L567.091 764.996C567.107 764.937 567.138 764.884 567.181 764.841L572.667 759.355C574.774 757.26 577.625 756.086 580.596 756.09C583.567 756.094 586.415 757.276 588.516 759.377C590.617 761.478 591.799 764.326 591.803 767.297C591.807 770.268 590.633 773.119 588.538 775.226L583.249 780.515C583.179 780.571 583.094 780.606 583.005 780.616C582.959 780.616 582.915 780.607 582.873 780.589C582.831 780.572 582.793 780.546 582.761 780.514L582.231 779.981L581.686 782.013C581.67 782.071 581.64 782.124 581.597 782.167L575.309 788.455C574.268 789.498 573.031 790.325 571.669 790.886C570.307 791.448 568.847 791.734 567.373 791.727ZM565.678 767.318L559.924 773.071C557.949 775.046 556.839 777.726 556.839 780.52C556.839 783.313 557.949 785.993 559.924 787.968C561.9 789.944 564.579 791.054 567.373 791.054C570.167 791.054 572.846 789.944 574.822 787.968L581.045 781.745L581.721 779.224C581.737 779.165 581.768 779.112 581.811 779.069C581.853 779.027 581.907 778.996 581.965 778.98C582.024 778.965 582.085 778.965 582.144 778.981C582.202 778.996 582.256 779.027 582.298 779.07L583.006 779.784L588.051 774.739C589.029 773.761 589.805 772.6 590.334 771.322C590.864 770.044 591.136 768.674 591.136 767.29C591.136 765.907 590.864 764.537 590.334 763.259C589.805 761.981 589.029 760.82 588.051 759.842C587.073 758.864 585.911 758.088 584.633 757.558C583.355 757.029 581.985 756.756 580.602 756.756C579.219 756.757 577.849 757.029 576.571 757.558C575.293 758.088 574.131 758.864 573.153 759.842L567.733 765.263L567.022 767.927C567.007 767.985 566.976 768.038 566.934 768.081C566.891 768.124 566.838 768.155 566.78 768.17C566.721 768.186 566.66 768.186 566.602 768.17C566.543 768.155 566.49 768.124 566.447 768.082L565.678 767.318Z" fill="#332F25"/>
<path d="M568.204 787.627C566.702 787.627 565.231 787.202 563.961 786.399C562.692 785.596 561.676 784.45 561.032 783.093C560.388 781.736 560.143 780.225 560.324 778.734C560.505 777.243 561.105 775.834 562.056 774.671C562.065 774.656 562.075 774.642 562.086 774.628C562.791 773.777 563.666 773.082 564.654 772.588C565.643 772.095 566.724 771.813 567.828 771.761C568.932 771.709 570.035 771.888 571.066 772.286C572.096 772.685 573.033 773.294 573.814 774.076C574.596 774.857 575.206 775.793 575.605 776.823C576.005 777.854 576.184 778.956 576.133 780.06C576.082 781.164 575.801 782.245 575.307 783.235C574.814 784.224 574.12 785.099 573.269 785.804L573.267 785.806C571.841 786.981 570.051 787.624 568.204 787.627V787.627ZM562.636 775.044C562.622 775.067 562.606 775.087 562.587 775.106C561.453 776.498 560.876 778.261 560.967 780.053C561.058 781.846 561.81 783.542 563.079 784.812C564.348 786.082 566.042 786.836 567.835 786.929C569.628 787.021 571.391 786.446 572.784 785.314C572.796 785.302 572.808 785.291 572.821 785.281C573.597 784.638 574.231 783.841 574.681 782.939C575.132 782.038 575.39 781.053 575.438 780.046C575.487 779.039 575.325 778.034 574.963 777.093C574.601 776.153 574.047 775.298 573.336 774.583C572.625 773.869 571.773 773.311 570.835 772.944C569.896 772.577 568.891 772.41 567.884 772.454C566.877 772.497 565.89 772.75 564.987 773.196C564.083 773.642 563.282 774.272 562.636 775.044V775.044Z" fill="#332F25"/>
<path d="M567.164 788.667C565.527 788.667 563.931 788.162 562.594 787.22C561.256 786.278 560.242 784.946 559.69 783.406C559.139 781.865 559.077 780.192 559.513 778.615C559.949 777.038 560.861 775.635 562.126 774.596C562.192 774.542 562.276 774.514 562.361 774.519C562.446 774.523 562.527 774.559 562.588 774.619C562.648 774.68 562.684 774.761 562.688 774.846C562.692 774.932 562.664 775.015 562.609 775.081C561.466 776.472 560.881 778.238 560.967 780.036C561.054 781.834 561.806 783.536 563.078 784.81C564.35 786.084 566.05 786.839 567.848 786.929C569.646 787.019 571.413 786.437 572.806 785.296C572.872 785.242 572.956 785.214 573.041 785.219C573.127 785.223 573.207 785.259 573.268 785.32C573.328 785.38 573.364 785.461 573.368 785.547C573.372 785.632 573.344 785.716 573.289 785.782C572.545 786.686 571.609 787.413 570.55 787.912C569.491 788.411 568.334 788.669 567.164 788.667ZM560.455 777.975C559.913 779.297 559.774 780.75 560.056 782.151C560.337 783.552 561.026 784.839 562.035 785.85C563.045 786.861 564.331 787.552 565.732 787.835C567.132 788.118 568.585 787.981 569.909 787.442C568.606 787.729 567.253 787.683 565.973 787.309C564.693 786.935 563.528 786.244 562.586 785.3C561.643 784.357 560.954 783.191 560.582 781.911C560.209 780.63 560.165 779.277 560.455 777.975V777.975Z" fill="#332F25"/>
<path d="M568.203 785.404C567.074 785.404 565.969 785.069 565.03 784.441C564.09 783.813 563.358 782.921 562.926 781.877C562.494 780.833 562.381 779.685 562.601 778.576C562.821 777.468 563.366 776.45 564.165 775.652C564.963 774.853 565.981 774.309 567.089 774.088C568.198 773.868 569.346 773.981 570.39 774.413C571.434 774.846 572.326 775.578 572.954 776.517C573.581 777.457 573.916 778.561 573.916 779.691C573.915 781.206 573.312 782.658 572.241 783.729C571.17 784.8 569.718 785.402 568.203 785.404V785.404ZM568.203 774.667C567.21 774.667 566.239 774.962 565.412 775.514C564.586 776.066 563.942 776.851 563.562 777.769C563.182 778.687 563.083 779.697 563.276 780.671C563.47 781.646 563.949 782.541 564.651 783.244C565.354 783.946 566.249 784.425 567.224 784.619C568.198 784.812 569.208 784.713 570.126 784.333C571.044 783.952 571.829 783.308 572.381 782.482C572.933 781.656 573.228 780.685 573.228 779.691C573.226 778.359 572.696 777.082 571.754 776.14C570.813 775.198 569.535 774.669 568.203 774.667V774.667Z" fill="#332F25"/>
<path d="M581.413 774.418C579.911 774.418 578.44 773.992 577.17 773.19C575.9 772.387 574.885 771.241 574.241 769.883C573.597 768.526 573.352 767.014 573.533 765.523C573.714 764.032 574.315 762.623 575.266 761.46C575.275 761.446 575.284 761.432 575.295 761.419C576 760.568 576.875 759.873 577.864 759.379C578.852 758.885 579.933 758.603 581.037 758.551C582.141 758.499 583.244 758.678 584.275 759.077C585.306 759.476 586.242 760.085 587.024 760.866C587.805 761.647 588.415 762.583 588.815 763.614C589.214 764.644 589.394 765.747 589.342 766.851C589.291 767.955 589.01 769.036 588.517 770.025C588.024 771.014 587.329 771.889 586.479 772.595L586.476 772.597C585.05 773.772 583.26 774.415 581.413 774.418V774.418ZM575.845 761.836C575.831 761.858 575.815 761.878 575.796 761.897C574.663 763.288 574.085 765.051 574.176 766.844C574.267 768.637 575.02 770.332 576.288 771.602C577.557 772.872 579.251 773.627 581.044 773.719C582.837 773.812 584.6 773.237 585.993 772.104C586.005 772.093 586.017 772.082 586.03 772.072C586.807 771.429 587.44 770.631 587.891 769.73C588.342 768.828 588.6 767.843 588.648 766.836C588.696 765.83 588.535 764.824 588.172 763.883C587.81 762.943 587.256 762.088 586.545 761.373C585.834 760.659 584.982 760.101 584.044 759.734C583.105 759.367 582.1 759.201 581.093 759.244C580.086 759.288 579.099 759.541 578.196 759.987C577.292 760.433 576.491 761.063 575.845 761.836H575.845Z" fill="#332F25"/>
<path d="M580.373 775.458C578.737 775.458 577.141 774.953 575.803 774.011C574.465 773.069 573.451 771.737 572.899 770.196C572.348 768.656 572.286 766.983 572.722 765.406C573.158 763.829 574.07 762.425 575.335 761.387C575.401 761.333 575.485 761.305 575.57 761.309C575.656 761.314 575.736 761.349 575.797 761.41C575.857 761.471 575.893 761.551 575.897 761.637C575.901 761.722 575.873 761.806 575.819 761.872C574.675 763.263 574.09 765.028 574.177 766.827C574.263 768.625 575.016 770.326 576.287 771.6C577.559 772.874 579.259 773.63 581.057 773.72C582.855 773.81 584.622 773.228 586.015 772.087C586.081 772.033 586.165 772.005 586.25 772.01C586.336 772.014 586.416 772.05 586.477 772.111C586.537 772.171 586.573 772.252 586.577 772.338C586.581 772.423 586.553 772.507 586.498 772.573C585.754 773.476 584.818 774.204 583.759 774.703C582.7 775.202 581.544 775.459 580.373 775.458V775.458ZM573.664 764.766C573.122 766.088 572.984 767.541 573.265 768.942C573.546 770.343 574.235 771.63 575.245 772.641C576.255 773.652 577.54 774.342 578.941 774.625C580.342 774.908 581.795 774.772 583.118 774.232C581.816 774.52 580.462 774.474 579.182 774.1C577.902 773.726 576.737 773.035 575.795 772.091C574.853 771.148 574.163 769.982 573.791 768.702C573.418 767.421 573.374 766.068 573.664 764.766Z" fill="#332F25"/>
<path d="M581.413 772.195C580.283 772.195 579.179 771.86 578.239 771.232C577.3 770.604 576.568 769.712 576.135 768.668C575.703 767.624 575.59 766.476 575.81 765.367C576.03 764.259 576.574 763.241 577.373 762.442C578.172 761.643 579.19 761.099 580.298 760.879C581.406 760.658 582.555 760.771 583.599 761.204C584.643 761.636 585.535 762.368 586.163 763.308C586.791 764.247 587.126 765.352 587.126 766.482C587.124 767.996 586.522 769.448 585.451 770.519C584.38 771.59 582.928 772.193 581.413 772.195V772.195ZM581.413 761.458C580.419 761.458 579.448 761.752 578.622 762.304C577.796 762.856 577.152 763.641 576.771 764.559C576.391 765.477 576.292 766.487 576.485 767.462C576.679 768.437 577.158 769.332 577.86 770.034C578.563 770.737 579.458 771.216 580.433 771.409C581.407 771.603 582.418 771.504 583.336 771.123C584.254 770.743 585.038 770.099 585.59 769.273C586.142 768.447 586.437 767.475 586.437 766.482C586.436 765.15 585.906 763.873 584.964 762.931C584.022 761.989 582.745 761.459 581.413 761.458Z" fill="#332F25"/>
<path d="M567.372 793.905C564.727 793.9 562.143 793.112 559.945 791.64C557.747 790.169 556.034 788.08 555.021 785.636C554.008 783.193 553.741 780.504 554.254 777.91C554.766 775.315 556.035 772.93 557.901 771.055L563.659 765.296L563.076 764.717C563.033 764.675 563.002 764.621 562.986 764.563C562.97 764.504 562.97 764.443 562.985 764.384C563.001 764.326 563.032 764.272 563.074 764.23C563.117 764.187 563.17 764.156 563.229 764.14L567.831 762.903C567.889 762.887 567.951 762.887 568.009 762.903C568.068 762.918 568.121 762.949 568.164 762.992C568.206 763.035 568.237 763.088 568.253 763.146C568.269 763.205 568.269 763.266 568.253 763.324L567.022 767.927C567.007 767.985 566.976 768.038 566.934 768.081C566.891 768.124 566.838 768.155 566.78 768.17C566.721 768.186 566.66 768.186 566.602 768.17C566.543 768.155 566.49 768.124 566.447 768.082L565.678 767.318L559.924 773.071C557.949 775.046 556.839 777.726 556.839 780.52C556.839 783.313 557.949 785.993 559.924 787.968C561.9 789.944 564.579 791.054 567.373 791.054C570.167 791.054 572.846 789.944 574.822 787.969L581.11 781.68C581.164 781.627 581.233 781.592 581.309 781.582C581.384 781.573 581.46 781.588 581.526 781.626C581.591 781.664 581.643 781.722 581.672 781.792C581.701 781.863 581.706 781.94 581.686 782.013L581.305 783.428L582.929 782.991C583.003 782.972 583.08 782.977 583.15 783.006C583.221 783.035 583.279 783.086 583.317 783.152C583.355 783.217 583.37 783.294 583.36 783.369C583.35 783.444 583.316 783.514 583.262 783.567L576.838 789.992C575.596 791.235 574.12 792.221 572.496 792.893C570.871 793.564 569.13 793.908 567.372 793.905V793.905ZM563.986 764.65L564.39 765.051C564.422 765.083 564.448 765.121 564.465 765.163C564.483 765.204 564.492 765.249 564.492 765.295C564.492 765.34 564.483 765.385 564.466 765.427C564.448 765.469 564.423 765.507 564.391 765.539L558.388 771.542C557.206 772.72 556.268 774.121 555.628 775.663C554.987 777.204 554.657 778.857 554.656 780.527C554.655 782.196 554.983 783.849 555.621 785.392C556.259 786.935 557.196 788.336 558.376 789.517C559.557 790.697 560.958 791.633 562.501 792.272C564.043 792.91 565.697 793.238 567.366 793.237C569.036 793.236 570.689 792.906 572.23 792.265C573.772 791.625 575.172 790.687 576.351 789.505L581.866 783.99L580.906 784.248C580.847 784.264 580.786 784.264 580.727 784.248C580.669 784.232 580.616 784.202 580.573 784.159C580.53 784.116 580.499 784.063 580.484 784.004C580.468 783.946 580.468 783.884 580.484 783.826L580.685 783.079L575.309 788.455C573.202 790.552 570.35 791.728 567.378 791.725C564.406 791.721 561.557 790.539 559.455 788.438C557.353 786.336 556.171 783.487 556.168 780.514C556.165 777.542 557.341 774.69 559.438 772.584L565.434 766.588C565.498 766.524 565.586 766.487 565.677 766.487C565.768 766.487 565.855 766.523 565.92 766.588L566.51 767.174L567.433 763.723L563.986 764.65Z" fill="#332F25"/>
<path d="M583.631 766.817H579.214C579.169 766.817 579.124 766.808 579.082 766.79C579.041 766.773 579.003 766.748 578.971 766.716C578.939 766.684 578.913 766.646 578.896 766.604C578.879 766.562 578.87 766.518 578.87 766.472V763.954C578.87 763.909 578.879 763.864 578.896 763.822C578.913 763.78 578.939 763.742 578.971 763.71C579.003 763.678 579.041 763.653 579.082 763.636C579.124 763.618 579.169 763.61 579.214 763.61H583.631C583.676 763.61 583.721 763.618 583.763 763.636C583.805 763.653 583.843 763.678 583.875 763.71C583.907 763.742 583.932 763.78 583.949 763.822C583.967 763.864 583.976 763.909 583.975 763.954V764.847H583.287V764.298H579.559V766.128H583.631L583.631 766.817Z" fill="#332F25"/>
<path d="M583.631 769.335H579.214C579.169 769.335 579.124 769.326 579.082 769.309C579.041 769.291 579.003 769.266 578.971 769.234C578.939 769.202 578.913 769.164 578.896 769.122C578.879 769.081 578.87 769.036 578.87 768.991V768.097H579.559V768.646H583.287V766.817H579.214V766.128H583.631C583.676 766.128 583.721 766.137 583.763 766.154C583.805 766.171 583.843 766.197 583.875 766.229C583.907 766.261 583.932 766.299 583.949 766.34C583.967 766.382 583.976 766.427 583.975 766.472V768.991C583.976 769.036 583.967 769.081 583.949 769.122C583.932 769.164 583.907 769.202 583.875 769.234C583.843 769.266 583.805 769.291 583.763 769.309C583.721 769.326 583.676 769.335 583.631 769.335V769.335Z" fill="#332F25"/>
<path d="M581.767 762.701H581.078V763.954H581.767V762.701Z" fill="#332F25"/>
<path d="M581.767 768.991H581.078V770.243H581.767V768.991Z" fill="#332F25"/>
<path d="M382.039 800.891C381.931 800.918 381.819 800.922 381.709 800.903C381.6 800.884 381.495 800.842 381.4 800.781C381.306 800.719 381.224 800.638 381.16 800.543C381.095 800.448 381.049 800.34 381.024 800.226L377.33 783.546C377.305 783.432 377.301 783.314 377.319 783.199C377.337 783.083 377.377 782.973 377.435 782.874C377.494 782.774 377.57 782.688 377.661 782.62C377.751 782.552 377.853 782.503 377.961 782.477C378.069 782.45 378.181 782.446 378.291 782.465C378.4 782.484 378.505 782.526 378.599 782.587C378.694 782.649 378.776 782.73 378.84 782.825C378.905 782.92 378.951 783.028 378.976 783.141L382.67 799.822C382.695 799.936 382.699 800.054 382.681 800.169C382.663 800.285 382.624 800.395 382.565 800.494C382.506 800.594 382.43 800.68 382.339 800.748C382.249 800.816 382.147 800.865 382.039 800.891Z" fill="#322E25"/>
<path d="M392.039 798.585C391.931 798.61 391.819 798.614 391.709 798.596C391.6 798.578 391.495 798.538 391.4 798.479C391.306 798.419 391.224 798.342 391.16 798.251C391.095 798.16 391.049 798.057 391.024 797.947L387.33 781.962C387.305 781.853 387.301 781.74 387.319 781.629C387.337 781.519 387.377 781.413 387.435 781.318C387.494 781.222 387.57 781.14 387.661 781.075C387.751 781.009 387.853 780.963 387.961 780.937C388.069 780.912 388.181 780.908 388.291 780.926C388.4 780.944 388.505 780.984 388.599 781.043C388.694 781.103 388.776 781.18 388.84 781.271C388.905 781.362 388.951 781.465 388.976 781.574L392.67 797.56C392.695 797.669 392.699 797.782 392.681 797.893C392.663 798.003 392.624 798.109 392.565 798.204C392.506 798.3 392.43 798.382 392.339 798.447C392.249 798.513 392.147 798.559 392.039 798.585V798.585Z" fill="#322E25"/>
<path d="M392.033 784.892L376.044 788.586C375.824 788.636 375.593 788.597 375.401 788.479C375.21 788.36 375.074 788.171 375.022 787.954C374.971 787.736 375.009 787.507 375.128 787.317C375.246 787.127 375.436 786.991 375.656 786.939L391.645 783.245C391.754 783.219 391.867 783.216 391.978 783.234C392.088 783.252 392.194 783.291 392.289 783.35C392.385 783.409 392.467 783.485 392.533 783.576C392.598 783.666 392.645 783.768 392.67 783.876C392.695 783.984 392.699 784.096 392.681 784.206C392.663 784.315 392.623 784.42 392.564 784.515C392.504 784.609 392.427 784.691 392.336 784.755C392.245 784.82 392.142 784.866 392.033 784.892V784.892Z" fill="#322E25"/>
<path d="M394.34 794.36L378.355 798.582C378.135 798.64 377.903 798.597 377.71 798.461C377.518 798.326 377.381 798.11 377.33 797.86C377.279 797.611 377.317 797.348 377.436 797.131C377.556 796.913 377.747 796.758 377.967 796.7L393.953 792.479C394.062 792.45 394.175 792.445 394.286 792.466C394.396 792.487 394.502 792.532 394.597 792.599C394.692 792.666 394.775 792.753 394.84 792.857C394.906 792.96 394.952 793.076 394.978 793.2C395.003 793.324 395.007 793.452 394.989 793.577C394.97 793.702 394.931 793.822 394.871 793.93C394.812 794.037 394.735 794.131 394.644 794.205C394.553 794.279 394.45 794.332 394.34 794.36V794.36Z" fill="#322E25"/>
<path d="M211.039 391.892C210.931 391.918 210.819 391.922 210.709 391.903C210.6 391.884 210.495 391.842 210.4 391.781C210.306 391.719 210.224 391.638 210.16 391.543C210.095 391.448 210.049 391.341 210.024 391.227L206.33 374.546C206.305 374.432 206.301 374.314 206.319 374.199C206.337 374.084 206.377 373.973 206.435 373.874C206.494 373.774 206.57 373.688 206.661 373.62C206.751 373.552 206.853 373.503 206.961 373.477C207.069 373.45 207.181 373.446 207.291 373.465C207.4 373.484 207.505 373.526 207.599 373.588C207.694 373.649 207.776 373.73 207.84 373.825C207.905 373.92 207.951 374.028 207.976 374.142L211.67 390.822C211.695 390.936 211.699 391.054 211.681 391.169C211.663 391.285 211.624 391.395 211.565 391.495C211.506 391.594 211.43 391.68 211.339 391.748C211.249 391.816 211.147 391.865 211.039 391.892Z" fill="#322E25"/>
<path d="M221.039 389.585C220.931 389.61 220.819 389.614 220.709 389.596C220.6 389.578 220.495 389.538 220.4 389.479C220.306 389.419 220.224 389.342 220.16 389.251C220.095 389.16 220.049 389.057 220.024 388.947L216.33 372.962C216.305 372.853 216.301 372.74 216.319 372.629C216.337 372.519 216.377 372.413 216.435 372.318C216.494 372.222 216.57 372.14 216.661 372.075C216.751 372.009 216.853 371.963 216.961 371.937C217.069 371.912 217.181 371.908 217.291 371.926C217.4 371.944 217.505 371.984 217.599 372.043C217.694 372.103 217.776 372.18 217.84 372.271C217.905 372.362 217.951 372.465 217.976 372.574L221.67 388.56C221.695 388.669 221.699 388.782 221.681 388.893C221.663 389.003 221.624 389.109 221.565 389.204C221.506 389.3 221.43 389.382 221.339 389.447C221.249 389.513 221.147 389.559 221.039 389.585V389.585Z" fill="#322E25"/>
<path d="M221.033 375.891L205.044 379.586C204.824 379.636 204.593 379.597 204.401 379.479C204.21 379.36 204.074 379.171 204.022 378.954C203.971 378.736 204.009 378.507 204.128 378.317C204.246 378.126 204.436 377.991 204.656 377.939L220.645 374.245C220.754 374.219 220.867 374.216 220.978 374.234C221.088 374.252 221.194 374.291 221.289 374.35C221.385 374.409 221.467 374.485 221.533 374.575C221.598 374.666 221.645 374.768 221.67 374.876C221.695 374.984 221.699 375.096 221.681 375.206C221.663 375.315 221.623 375.42 221.564 375.514C221.504 375.609 221.427 375.691 221.336 375.755C221.245 375.82 221.142 375.866 221.033 375.891V375.891Z" fill="#322E25"/>
<path d="M223.34 385.36L207.355 389.582C207.135 389.64 206.903 389.597 206.71 389.462C206.518 389.326 206.381 389.11 206.33 388.861C206.279 388.611 206.317 388.349 206.436 388.131C206.556 387.913 206.747 387.758 206.967 387.7L222.953 383.479C223.062 383.45 223.175 383.446 223.286 383.466C223.396 383.487 223.502 383.532 223.597 383.599C223.692 383.666 223.775 383.754 223.84 383.857C223.906 383.96 223.952 384.077 223.978 384.2C224.003 384.324 224.007 384.452 223.989 384.577C223.97 384.702 223.931 384.822 223.871 384.93C223.812 385.037 223.735 385.131 223.644 385.205C223.553 385.279 223.45 385.332 223.34 385.36V385.36Z" fill="#322E25"/>
<path d="M42.0388 622.891C41.9307 622.918 41.8187 622.922 41.7091 622.903C41.5995 622.884 41.4946 622.842 41.4003 622.781C41.306 622.719 41.2242 622.638 41.1596 622.543C41.0949 622.448 41.0487 622.34 41.0235 622.226L37.3298 605.546C37.3046 605.432 37.3009 605.314 37.319 605.199C37.337 605.083 37.3765 604.973 37.4351 604.874C37.4937 604.774 37.5704 604.688 37.6606 604.62C37.7508 604.552 37.8529 604.503 37.961 604.477C38.0692 604.45 38.1812 604.446 38.2907 604.465C38.4003 604.484 38.5052 604.526 38.5994 604.587C38.6937 604.649 38.7755 604.73 38.8402 604.825C38.9049 604.92 38.9512 605.028 38.9764 605.141L42.6701 621.822C42.6954 621.936 42.6991 622.054 42.6811 622.169C42.663 622.285 42.6236 622.395 42.5649 622.494C42.5063 622.594 42.4297 622.68 42.3394 622.748C42.2491 622.816 42.147 622.865 42.0388 622.891Z" fill="#322E25"/>
<path d="M52.0388 620.585C51.9307 620.61 51.8187 620.614 51.7091 620.596C51.5996 620.578 51.4946 620.538 51.4003 620.479C51.306 620.419 51.2242 620.342 51.1596 620.251C51.0949 620.16 51.0487 620.057 51.0235 619.947L47.3298 603.962C47.3046 603.853 47.3009 603.74 47.319 603.629C47.337 603.519 47.3765 603.413 47.4351 603.318C47.4937 603.222 47.5704 603.14 47.6606 603.075C47.7508 603.009 47.8529 602.963 47.961 602.937C48.0692 602.912 48.1812 602.908 48.2907 602.926C48.4003 602.944 48.5052 602.984 48.5995 603.043C48.6937 603.103 48.7755 603.18 48.8402 603.271C48.9049 603.362 48.9512 603.465 48.9764 603.574L52.6701 619.56C52.6954 619.669 52.6991 619.782 52.6811 619.893C52.663 620.003 52.6236 620.109 52.5649 620.204C52.5063 620.3 52.4297 620.382 52.3394 620.447C52.2491 620.513 52.147 620.559 52.0388 620.585V620.585Z" fill="#322E25"/>
<path d="M52.0326 606.892L36.0438 610.586C35.8238 610.636 35.5928 610.597 35.4013 610.479C35.2099 610.36 35.0736 610.171 35.0223 609.954C34.971 609.736 35.0089 609.507 35.1277 609.317C35.2465 609.127 35.4364 608.991 35.6561 608.939L51.6448 605.245C51.754 605.219 51.8671 605.216 51.9777 605.234C52.0883 605.252 52.1942 605.291 52.2894 605.35C52.3846 605.409 52.4672 605.485 52.5325 605.576C52.5978 605.666 52.6445 605.768 52.67 605.876C52.6955 605.984 52.6992 606.096 52.6809 606.206C52.6627 606.315 52.6228 606.42 52.5636 606.515C52.5044 606.609 52.4271 606.691 52.336 606.755C52.2449 606.82 52.1418 606.866 52.0326 606.892V606.892Z" fill="#322E25"/>
<path d="M54.3404 616.36L38.3549 620.582C38.1345 620.64 37.9027 620.597 37.7105 620.461C37.5183 620.326 37.3814 620.11 37.33 619.86C37.2786 619.611 37.3168 619.348 37.4363 619.131C37.5558 618.913 37.7468 618.758 37.9672 618.7L53.9527 614.479C54.0619 614.45 54.175 614.445 54.2855 614.466C54.3961 614.487 54.502 614.532 54.5972 614.599C54.6924 614.666 54.7749 614.753 54.8402 614.857C54.9055 614.96 54.9522 615.076 54.9777 615.2C55.0031 615.324 55.0068 615.452 54.9886 615.577C54.9704 615.702 54.9305 615.822 54.8713 615.93C54.8122 616.037 54.7348 616.131 54.6437 616.205C54.5526 616.279 54.4496 616.332 54.3404 616.36V616.36Z" fill="#322E25"/>
<path d="M876.312 224.581C869.994 224.574 863.936 222.061 859.468 217.593C855 213.124 852.486 207.066 852.479 200.747C852.475 198.541 852.782 196.346 853.391 194.227C854.604 189.963 856.982 186.122 860.258 183.136C863.534 180.149 867.577 178.135 871.934 177.321C876.292 176.506 880.79 176.923 884.923 178.524C889.056 180.126 892.661 182.848 895.332 186.386C898.004 189.923 899.635 194.136 900.044 198.55C900.453 202.964 899.623 207.404 897.647 211.372C895.671 215.34 892.628 218.679 888.859 221.012C885.09 223.346 880.745 224.582 876.312 224.581V224.581ZM876.312 177.798C871.324 177.809 866.474 179.441 862.493 182.448C858.513 185.455 855.617 189.675 854.242 194.471C853.656 196.511 853.36 198.624 853.364 200.747C853.364 205.286 854.71 209.723 857.232 213.497C859.753 217.271 863.337 220.212 867.531 221.949C871.724 223.686 876.338 224.141 880.789 223.255C885.241 222.37 889.33 220.184 892.539 216.975C895.748 213.765 897.934 209.676 898.819 205.224C899.705 200.772 899.25 196.158 897.513 191.965C895.777 187.771 892.835 184.187 889.062 181.666C885.288 179.144 880.851 177.798 876.312 177.798V177.798Z" fill="#322E25"/>
<path d="M874.568 228.915C870.479 228.913 866.46 227.858 862.9 225.853C859.341 223.848 856.362 220.96 854.253 217.47C852.144 213.98 850.976 210.006 850.863 205.934C850.75 201.862 851.695 197.83 853.607 194.229L855.612 190.457L854.42 194.557C853.836 196.578 853.542 198.672 853.547 200.775C853.547 205.858 855.256 210.794 858.401 214.796C861.546 218.798 865.946 221.636 870.899 222.856C875.852 224.076 881.072 223.609 885.727 221.528C890.383 219.447 894.204 215.873 896.582 211.377L898.521 207.715L897.396 211.7C895.982 216.649 892.991 221.005 888.872 224.111C884.754 227.217 879.733 228.903 874.568 228.915V228.915ZM852.774 198.501C851.058 203.969 851.476 209.881 853.945 215.055C856.414 220.23 860.752 224.285 866.092 226.412C871.432 228.539 877.381 228.58 882.75 226.527C888.119 224.475 892.513 220.48 895.054 215.34C892.011 219.211 887.832 222.039 883.099 223.431C878.366 224.824 873.314 224.71 868.649 223.107C863.984 221.504 859.936 218.491 857.071 214.488C854.206 210.485 852.666 205.691 852.666 200.775C852.666 200.011 852.702 199.253 852.774 198.501Z" fill="#322E25"/>
<path d="M876.312 219.165C872.67 219.165 869.109 218.085 866.081 216.061C863.052 214.037 860.692 211.161 859.298 207.796C857.904 204.431 857.539 200.728 858.25 197.155C858.96 193.583 860.714 190.301 863.29 187.726C865.866 185.15 869.147 183.396 872.72 182.685C876.292 181.975 879.995 182.34 883.36 183.733C886.725 185.127 889.602 187.488 891.625 190.516C893.649 193.545 894.729 197.106 894.729 200.748C894.724 205.631 892.782 210.312 889.329 213.765C885.876 217.217 881.195 219.159 876.312 219.165V219.165ZM876.312 183.217C872.845 183.217 869.455 184.245 866.572 186.172C863.689 188.098 861.442 190.836 860.116 194.039C858.789 197.243 858.442 200.768 859.118 204.169C859.795 207.569 861.464 210.693 863.916 213.145C866.368 215.597 869.492 217.266 872.893 217.943C876.293 218.619 879.818 218.272 883.022 216.945C886.225 215.618 888.963 213.371 890.889 210.488C892.816 207.605 893.844 204.215 893.844 200.748C893.839 196.1 891.99 191.644 888.703 188.357C885.416 185.071 880.96 183.222 876.312 183.217V183.217Z" fill="#322E25"/>
<path d="M877.957 213.748L868.291 211.468L868.645 209.969L864.396 208.967L865.609 203.829L866.685 204.083L869.534 192.011L868.458 191.757L869.671 186.619L873.92 187.621L874.273 186.123L883.939 188.404L883.582 189.915C885.172 190.384 886.522 191.445 887.353 192.878C888.185 194.311 888.437 196.009 888.056 197.622L887.793 198.736C887.587 199.604 887.2 200.419 886.658 201.127C886.823 201.332 886.976 201.547 887.114 201.77C887.565 202.494 887.867 203.3 888.004 204.141C888.14 204.983 888.109 205.843 887.911 206.672L887.647 207.787C887.452 208.616 887.095 209.399 886.597 210.09C886.098 210.782 885.469 211.368 884.744 211.816C884.019 212.264 883.213 212.565 882.371 212.701C881.53 212.838 880.67 212.807 879.841 212.611L878.311 212.25L877.957 213.748ZM873.877 211.881L877.303 212.689L877.656 211.191L880.043 211.754C880.76 211.924 881.503 211.951 882.231 211.833C882.958 211.715 883.655 211.455 884.281 211.068C884.908 210.681 885.452 210.174 885.883 209.576C886.313 208.979 886.622 208.302 886.79 207.585L887.054 206.47C887.225 205.753 887.252 205.01 887.134 204.282C887.016 203.555 886.755 202.858 886.366 202.233C886.188 201.948 885.985 201.679 885.759 201.43L885.503 201.145L885.751 200.852C886.325 200.184 886.731 199.39 886.936 198.534L887.199 197.42C887.368 196.703 887.394 195.96 887.276 195.233C887.158 194.506 886.898 193.81 886.511 193.183C886.124 192.557 885.617 192.013 885.019 191.582C884.422 191.152 883.745 190.843 883.028 190.674L882.6 190.573L882.628 190.128L882.88 189.057L879.454 188.249L879.1 189.748L878 189.488L878.354 187.99L874.928 187.182L874.574 188.68L870.325 187.677L869.517 191.103L870.593 191.357L867.339 205.141L866.263 204.887L865.455 208.313L869.704 209.315L869.35 210.813L872.776 211.621L873.13 210.123L874.23 210.383L873.877 211.881ZM881.335 208.385C881.172 208.385 881.01 208.367 880.852 208.329L870.765 205.949L871.987 200.77L882.074 203.149C882.613 203.276 883.08 203.612 883.371 204.083C883.662 204.554 883.755 205.122 883.628 205.661L883.365 206.776C883.256 207.233 882.997 207.641 882.629 207.932C882.261 208.224 881.805 208.384 881.335 208.385V208.385ZM871.824 205.296L881.054 207.472C881.366 207.546 881.694 207.492 881.967 207.324C882.239 207.156 882.434 206.886 882.508 206.574L882.771 205.459C882.808 205.304 882.813 205.144 882.788 204.988C882.762 204.831 882.706 204.681 882.623 204.546C882.539 204.411 882.43 204.294 882.301 204.201C882.172 204.108 882.026 204.042 881.872 204.006L872.642 201.828L871.824 205.296ZM881.475 199.334C881.314 199.334 881.154 199.316 880.997 199.279L872.796 197.345L874.018 192.165L882.219 194.099C882.758 194.226 883.225 194.563 883.516 195.034C883.807 195.505 883.9 196.072 883.773 196.611L883.51 197.726C883.401 198.183 883.141 198.591 882.772 198.883C882.403 199.175 881.946 199.334 881.475 199.334V199.334ZM873.855 196.69L881.199 198.422C881.511 198.495 881.839 198.442 882.112 198.273C882.384 198.105 882.579 197.835 882.653 197.524L882.916 196.41C882.952 196.255 882.958 196.095 882.933 195.938C882.907 195.782 882.851 195.632 882.768 195.497C882.684 195.362 882.575 195.244 882.446 195.151C882.318 195.059 882.172 194.992 882.017 194.956L874.673 193.223L873.855 196.69Z" fill="#322E25"/>
<path d="M862.441 219.475L860.245 223.735L861.028 224.139L863.224 219.878L862.441 219.475Z" fill="#322E25"/>
<path d="M871.311 223.347L869.676 227.915L870.506 228.212L872.141 223.644L871.311 223.347Z" fill="#322E25"/>
<path d="M881.529 223.056L879.389 227.668L880.189 228.039L882.329 223.427L881.529 223.056Z" fill="#322E25"/>
<path d="M859.03 216.52L856.836 220.657L857.615 221.07L859.809 216.933L859.03 216.52Z" fill="#322E25"/>
<path d="M875.829 223.84L874.807 228.361L875.667 228.556L876.689 224.034L875.829 223.84Z" fill="#322E25"/>
<path d="M111.42 462.994C110.192 462.665 109.089 461.98 108.251 461.024C107.413 460.069 106.877 458.886 106.711 457.626C106.545 456.365 106.756 455.084 107.318 453.944C107.88 452.804 108.768 451.856 109.869 451.22C110.97 450.585 112.235 450.29 113.503 450.373C114.771 450.456 115.987 450.914 116.995 451.688C118.004 452.462 118.76 453.517 119.168 454.721C119.577 455.925 119.619 457.223 119.29 458.45C118.847 460.096 117.77 461.498 116.294 462.35C114.819 463.201 113.066 463.433 111.42 462.994ZM114.271 452.353C113.394 452.118 112.468 452.149 111.608 452.44C110.749 452.732 109.995 453.272 109.442 453.992C108.889 454.712 108.563 455.579 108.503 456.485C108.443 457.391 108.654 458.294 109.108 459.08C109.561 459.866 110.238 460.5 111.052 460.902C111.866 461.303 112.781 461.455 113.681 461.336C114.581 461.218 115.425 460.836 116.108 460.237C116.79 459.639 117.28 458.852 117.515 457.975C117.828 456.799 117.663 455.547 117.055 454.494C116.447 453.44 115.446 452.67 114.271 452.354L114.271 452.353Z" fill="#322E25"/>
<path d="M124.252 483.277C123.025 482.948 121.922 482.262 121.084 481.306C120.246 480.351 119.711 479.168 119.545 477.908C119.379 476.648 119.59 475.367 120.153 474.227C120.715 473.087 121.602 472.139 122.703 471.504C123.804 470.868 125.068 470.573 126.337 470.656C127.605 470.739 128.82 471.197 129.829 471.97C130.837 472.744 131.594 473.799 132.002 475.003C132.411 476.206 132.454 477.504 132.125 478.732C131.682 480.378 130.605 481.781 129.129 482.633C127.653 483.485 125.899 483.717 124.252 483.277V483.277ZM127.104 472.636C126.227 472.401 125.3 472.432 124.441 472.724C123.581 473.016 122.828 473.556 122.275 474.276C121.723 474.997 121.396 475.864 121.337 476.77C121.278 477.676 121.489 478.579 121.943 479.365C122.397 480.151 123.074 480.785 123.888 481.186C124.702 481.587 125.617 481.738 126.517 481.619C127.416 481.501 128.261 481.118 128.943 480.519C129.626 479.921 130.115 479.133 130.35 478.256C130.664 477.081 130.498 475.828 129.889 474.775C129.281 473.721 128.279 472.952 127.104 472.636V472.636Z" fill="#322E25"/>
<path d="M120.359 476.53L108.635 473.389C108.518 473.358 108.409 473.304 108.313 473.231C108.217 473.157 108.137 473.066 108.076 472.961C108.016 472.857 107.977 472.741 107.961 472.621C107.946 472.502 107.954 472.38 107.985 472.264L110.77 461.869C110.833 461.634 110.987 461.433 111.198 461.311C111.409 461.189 111.66 461.156 111.895 461.219C112.131 461.282 112.331 461.436 112.453 461.647C112.575 461.858 112.608 462.109 112.545 462.345L109.998 471.852L120.834 474.756C121.07 474.819 121.27 474.973 121.392 475.184C121.514 475.395 121.547 475.645 121.484 475.881C121.421 476.116 121.267 476.317 121.056 476.439C120.845 476.561 120.594 476.594 120.359 476.53Z" fill="#322E25"/>
<path d="M704.42 200.994C703.192 200.665 702.089 199.98 701.251 199.024C700.413 198.069 699.877 196.886 699.711 195.626C699.545 194.365 699.756 193.084 700.318 191.944C700.88 190.804 701.768 189.856 702.869 189.22C703.97 188.585 705.235 188.29 706.503 188.373C707.771 188.456 708.987 188.914 709.995 189.688C711.004 190.462 711.76 191.517 712.168 192.721C712.577 193.925 712.619 195.223 712.29 196.45C711.847 198.096 710.77 199.498 709.294 200.35C707.819 201.201 706.066 201.433 704.42 200.994ZM707.271 190.353C706.394 190.118 705.468 190.149 704.608 190.44C703.749 190.732 702.995 191.272 702.442 191.992C701.889 192.712 701.563 193.579 701.503 194.485C701.443 195.391 701.654 196.294 702.108 197.08C702.561 197.866 703.238 198.5 704.052 198.902C704.866 199.303 705.781 199.455 706.681 199.336C707.581 199.218 708.425 198.836 709.108 198.237C709.79 197.639 710.28 196.852 710.515 195.975C710.828 194.799 710.663 193.547 710.055 192.494C709.447 191.44 708.446 190.67 707.271 190.354L707.271 190.353Z" fill="#322E25"/>
<path d="M717.252 221.277C716.025 220.948 714.922 220.262 714.084 219.306C713.246 218.351 712.711 217.168 712.545 215.908C712.379 214.648 712.59 213.367 713.153 212.227C713.715 211.087 714.602 210.139 715.703 209.504C716.804 208.868 718.068 208.573 719.337 208.656C720.605 208.739 721.82 209.197 722.829 209.97C723.837 210.744 724.594 211.799 725.002 213.003C725.411 214.206 725.454 215.504 725.125 216.732C724.682 218.378 723.605 219.781 722.129 220.633C720.653 221.485 718.899 221.717 717.252 221.277V221.277ZM720.104 210.636C719.227 210.401 718.3 210.432 717.441 210.724C716.581 211.016 715.828 211.556 715.275 212.276C714.723 212.997 714.396 213.864 714.337 214.77C714.278 215.676 714.489 216.579 714.943 217.365C715.397 218.151 716.074 218.785 716.888 219.186C717.702 219.587 718.617 219.738 719.517 219.619C720.417 219.501 721.261 219.118 721.943 218.519C722.626 217.921 723.115 217.133 723.35 216.256C723.664 215.081 723.498 213.828 722.889 212.775C722.281 211.721 721.279 210.952 720.104 210.636V210.636Z" fill="#322E25"/>
<path d="M713.359 214.53L701.635 211.389C701.518 211.358 701.409 211.304 701.313 211.231C701.217 211.157 701.137 211.066 701.076 210.961C701.016 210.857 700.977 210.741 700.961 210.621C700.946 210.502 700.954 210.38 700.985 210.264L703.77 199.869C703.833 199.634 703.987 199.433 704.198 199.311C704.409 199.189 704.66 199.156 704.895 199.219C705.131 199.282 705.331 199.436 705.453 199.647C705.575 199.858 705.608 200.109 705.545 200.345L702.998 209.852L713.834 212.756C714.07 212.819 714.27 212.973 714.392 213.184C714.514 213.395 714.547 213.645 714.484 213.881C714.421 214.116 714.267 214.317 714.056 214.439C713.845 214.561 713.594 214.594 713.359 214.53Z" fill="#322E25"/>
<path d="M931.42 474.994C930.192 474.665 929.089 473.98 928.251 473.024C927.413 472.069 926.877 470.886 926.711 469.626C926.545 468.365 926.756 467.084 927.318 465.944C927.88 464.804 928.768 463.856 929.869 463.22C930.97 462.585 932.235 462.29 933.503 462.373C934.771 462.456 935.987 462.914 936.995 463.688C938.004 464.462 938.76 465.517 939.168 466.721C939.577 467.925 939.619 469.223 939.29 470.45C938.847 472.096 937.77 473.498 936.294 474.35C934.819 475.201 933.066 475.433 931.42 474.994ZM934.271 464.353C933.394 464.118 932.468 464.149 931.608 464.44C930.749 464.732 929.995 465.272 929.442 465.992C928.889 466.712 928.563 467.579 928.503 468.485C928.443 469.391 928.654 470.294 929.108 471.08C929.561 471.866 930.238 472.5 931.052 472.902C931.866 473.303 932.781 473.455 933.681 473.336C934.581 473.218 935.425 472.836 936.108 472.237C936.79 471.639 937.28 470.852 937.515 469.975C937.828 468.799 937.663 467.547 937.055 466.494C936.447 465.44 935.446 464.67 934.271 464.354L934.271 464.353Z" fill="#322E25"/>
<path d="M944.252 495.277C943.025 494.948 941.922 494.262 941.084 493.307C940.246 492.351 939.711 491.168 939.545 489.908C939.379 488.648 939.59 487.367 940.153 486.227C940.715 485.087 941.602 484.139 942.703 483.504C943.804 482.868 945.068 482.573 946.337 482.656C947.605 482.739 948.82 483.197 949.829 483.97C950.837 484.744 951.594 485.799 952.002 487.003C952.411 488.207 952.454 489.504 952.125 490.732C951.682 492.378 950.605 493.781 949.129 494.633C947.653 495.485 945.899 495.717 944.252 495.277V495.277ZM947.104 484.636C946.227 484.402 945.3 484.432 944.441 484.724C943.581 485.016 942.828 485.556 942.275 486.276C941.723 486.997 941.396 487.864 941.337 488.77C941.278 489.676 941.489 490.579 941.943 491.365C942.397 492.151 943.074 492.785 943.888 493.186C944.702 493.587 945.617 493.738 946.517 493.619C947.417 493.501 948.261 493.118 948.943 492.519C949.626 491.921 950.115 491.133 950.35 490.256C950.664 489.081 950.498 487.829 949.889 486.775C949.281 485.721 948.279 484.952 947.104 484.636V484.636Z" fill="#322E25"/>
<path d="M940.359 488.53L928.635 485.389C928.518 485.358 928.409 485.304 928.313 485.231C928.217 485.157 928.137 485.066 928.076 484.961C928.016 484.857 927.977 484.741 927.961 484.621C927.946 484.502 927.954 484.38 927.985 484.264L930.77 473.869C930.833 473.634 930.987 473.433 931.198 473.311C931.409 473.189 931.66 473.156 931.895 473.219C932.131 473.282 932.331 473.436 932.453 473.647C932.575 473.858 932.608 474.109 932.545 474.345L929.998 483.852L940.834 486.756C941.07 486.819 941.27 486.973 941.392 487.184C941.514 487.395 941.547 487.645 941.484 487.881C941.421 488.116 941.267 488.317 941.056 488.439C940.845 488.561 940.594 488.594 940.359 488.53Z" fill="#322E25"/>
<defs>
<filter id="filter0_f_150_39" x="539.832" y="-549.333" width="1906.34" height="1699.49" filterUnits="userSpaceOnUse" color-interpolation-filters="sRGB">
<feFlood flood-opacity="0" result="BackgroundImageFix"/>
<feBlend mode="normal" in="SourceGraphic" in2="BackgroundImageFix" result="shape"/>
<feGaussianBlur stdDeviation="194" result="effect1_foregroundBlur_150_39"/>
</filter>
</defs>
</svg>
