<svg width="703" height="703" viewBox="0 0 703 703" fill="none" xmlns="http://www.w3.org/2000/svg">
<path d="M175.75 47.0068C115.544 81.7669 66.9973 133.6 36.2493 195.95C5.50134 258.301 -6.06699 328.369 3.00721 397.295C12.0814 466.22 41.3906 530.907 87.2284 583.175C133.066 635.443 193.374 672.944 260.525 690.938C327.676 708.931 398.655 706.607 464.486 684.26C530.317 661.914 588.042 620.548 630.364 565.394C672.685 510.24 697.7 443.775 702.247 374.404C706.794 305.033 690.668 235.871 655.908 175.665C609.221 95.0115 532.448 36.1706 442.432 12.0509C352.416 -12.0688 256.509 0.502521 175.75 47.0068ZM515.533 635.529C452.517 671.805 379.25 686.159 307.203 676.343C235.157 666.528 168.4 633.097 117.385 581.286L148.982 563.043C198.384 610.234 262.786 638.583 330.953 643.143C333.736 649.571 338.391 655.011 344.312 658.753C350.233 662.495 357.144 664.367 364.144 664.123C371.144 663.879 377.908 661.531 383.553 657.386C389.199 653.24 393.464 647.49 395.793 640.884C431.796 635.481 466.457 623.337 497.958 605.088C552.846 573.399 595.974 524.762 620.871 466.478C645.767 408.194 651.088 343.408 636.035 281.843L667.602 263.618C686.962 333.699 682.538 408.221 655.021 475.518C627.504 542.816 578.448 599.089 515.533 635.529ZM352.762 634.8C351.603 632.793 351.066 630.488 351.217 628.176C351.369 625.863 352.203 623.648 353.613 621.809C355.024 619.971 356.948 618.592 359.143 617.847C361.337 617.102 363.703 617.025 365.941 617.624C368.18 618.224 370.19 619.474 371.718 621.216C373.246 622.959 374.223 625.115 374.525 627.412C374.828 629.71 374.442 632.046 373.417 634.124C372.392 636.202 370.774 637.93 368.767 639.089C366.076 640.642 362.878 641.064 359.876 640.259C356.875 639.455 354.316 637.491 352.762 634.8ZM616.385 157.895L544.839 199.203C511.975 157.467 466.477 127.498 415.157 113.78C413.661 113.354 412.095 113.229 410.55 113.415C409.005 113.6 407.513 114.091 406.16 114.859C404.807 115.627 403.621 116.657 402.67 117.888C401.719 119.12 401.023 120.528 400.623 122.032C400.222 123.535 400.125 125.103 400.337 126.644C400.549 128.185 401.066 129.669 401.857 131.008C402.649 132.348 403.699 133.516 404.947 134.445C406.194 135.374 407.615 136.046 409.125 136.42C435.338 143.472 460.036 155.273 481.991 171.238L474.5 199.225L458.407 208.516C455.716 210.07 453.752 212.629 452.948 215.631C452.144 218.632 452.565 221.831 454.118 224.522C455.672 227.213 458.231 229.177 461.233 229.981C464.234 230.785 467.433 230.364 470.124 228.81L490.417 217.094C493.108 215.539 495.071 212.98 495.875 209.979L501.879 187.571C513.13 197.795 523.29 209.158 532.197 221.478C533.894 223.836 536.406 225.479 539.245 226.09C542.085 226.7 545.051 226.234 547.566 224.781L629.502 177.475C633.707 184.031 637.644 190.85 641.219 197.769L559.323 245.052C556.801 246.51 554.912 248.856 554.025 251.631C553.139 254.407 553.318 257.413 554.529 260.064C560.801 273.906 565.593 288.372 568.825 303.221L546.21 297.161C544.722 296.749 543.168 296.634 541.636 296.825C540.105 297.015 538.626 297.506 537.284 298.269L516.99 309.986C514.299 311.539 512.335 314.099 511.531 317.1C510.727 320.102 511.148 323.3 512.702 325.991C514.255 328.682 516.815 330.646 519.816 331.45C522.818 332.254 526.016 331.833 528.707 330.28L544.8 320.988L572.761 328.48C577.048 371.098 569.014 414.051 549.614 452.238C530.214 490.426 500.262 522.243 463.316 543.913L462.808 544.206C460.117 545.76 458.153 548.319 457.349 551.321C456.545 554.322 456.966 557.52 458.52 560.212C459.339 561.561 460.417 562.735 461.691 563.667C462.966 564.598 464.412 565.269 465.946 565.64C467.48 566.011 469.073 566.076 470.632 565.83C472.191 565.584 473.687 565.033 475.032 564.207C525.857 534.294 564.349 487.237 583.592 431.491C602.835 375.744 601.569 314.963 580.02 260.067L651.535 218.777C654.759 226.048 657.62 233.393 660.279 240.787L616.647 265.978C614.398 267.277 612.645 269.287 611.662 271.691C610.679 274.095 610.523 276.757 611.218 279.259C627.21 336.836 623.611 398.094 600.988 453.402C578.365 508.71 538 554.93 486.242 584.794C458.35 600.953 427.76 611.922 395.955 617.168C395.269 615.158 394.396 613.215 393.35 611.367C389.883 605.392 384.733 600.571 378.543 597.506C372.353 594.441 365.397 593.267 358.544 594.132C351.691 594.997 345.245 597.862 340.01 602.369C334.776 606.876 330.986 612.826 329.113 619.474C264.787 614.354 204.462 586.222 159.193 540.236C157.373 538.383 154.99 537.187 152.417 536.836C149.843 536.485 147.226 536.999 144.977 538.297L101.345 563.488C96.2713 557.488 91.3405 551.338 86.6555 544.91L158.222 503.592C190.915 545.498 236.463 575.511 287.868 589.021C290.849 589.765 294.002 589.308 296.649 587.749C299.297 586.189 301.225 583.653 302.021 580.685C302.816 577.718 302.414 574.557 300.901 571.883C299.388 569.209 296.885 567.236 293.932 566.39C267.723 559.255 243.023 547.435 221.025 531.501L228.5 503.604L244.593 494.313C247.284 492.759 249.248 490.2 250.052 487.198C250.856 484.197 250.435 480.999 248.882 478.308C247.328 475.616 244.769 473.653 241.767 472.849C238.766 472.044 235.567 472.465 232.876 474.019L212.582 485.736C209.892 487.29 207.929 489.849 207.125 492.851L201.065 515.466C189.875 505.161 179.753 493.754 170.854 481.416C169.151 479.05 166.628 477.404 163.777 476.799C160.926 476.193 157.951 476.672 155.434 478.142L73.498 525.448C69.2935 518.892 65.3567 512.074 61.7813 505.155L143.718 457.849C146.249 456.404 148.151 454.067 149.053 451.296C149.954 448.524 149.79 445.515 148.592 442.858C142.315 428.996 137.505 414.515 134.24 399.652L156.888 405.72C159.868 406.51 163.04 406.093 165.716 404.56L186.01 392.844C188.701 391.29 190.665 388.731 191.469 385.729C192.273 382.728 191.852 379.529 190.298 376.838C188.745 374.147 186.185 372.184 183.184 371.379C180.182 370.575 176.984 370.996 174.293 372.55L158.2 381.841L130.207 374.34C125.635 331.59 133.6 288.433 153.128 250.13C172.657 211.827 202.908 180.033 240.192 158.623C242.883 157.069 244.847 154.51 245.651 151.509C246.455 148.507 246.034 145.309 244.48 142.618C242.927 139.927 240.367 137.963 237.366 137.159C234.364 136.354 231.166 136.775 228.475 138.329C177.501 168.177 138.864 215.25 119.526 271.064C100.188 326.879 101.42 387.765 123.001 442.751L51.465 484.052C48.2412 476.781 45.3803 469.436 42.7213 462.042L86.3531 436.851C88.6019 435.552 90.3554 433.543 91.338 431.139C92.3206 428.735 92.4766 426.072 91.7816 423.57C81.8534 388.221 79.2807 351.212 84.2225 314.83C89.1643 278.447 101.516 243.465 120.513 212.045C139.51 180.625 164.75 153.436 194.671 132.157C224.593 110.878 258.561 95.9622 294.476 88.3314C297.914 93.8524 302.829 98.3013 308.664 101.175C314.499 104.048 321.022 105.232 327.495 104.592C333.968 103.951 340.132 101.513 345.291 97.5516C350.45 93.5906 354.398 88.265 356.688 82.1773C427.142 83.5651 494.272 112.397 543.788 162.536C545.602 164.403 547.986 165.612 550.563 165.974C553.141 166.335 555.766 165.828 558.023 164.532L601.655 139.342C606.769 145.318 611.7 151.468 616.385 157.895ZM313.939 75.4572C312.78 73.4504 312.243 71.145 312.394 68.8326C312.546 66.5202 313.38 64.3047 314.791 62.4662C316.201 60.6278 318.125 59.2489 320.32 58.504C322.514 57.7592 324.88 57.6817 327.118 58.2815C329.357 58.8812 331.367 60.1313 332.895 61.8736C334.423 63.6158 335.4 65.7721 335.702 68.0696C336.005 70.3671 335.619 72.7027 334.594 74.7811C333.569 76.8594 331.951 78.5872 329.944 79.7458C327.253 81.2996 324.055 81.7206 321.053 80.9163C318.052 80.1121 315.493 78.1484 313.939 75.4572ZM554.018 139.786C500.892 89.2498 430.816 60.3639 357.51 58.7844C355.088 51.1186 350.104 44.5186 343.393 40.0911C336.683 35.6637 328.654 33.6781 320.654 34.4672C312.653 35.2563 305.167 38.7722 299.451 44.4253C293.735 50.0784 290.136 57.5249 289.259 65.5162C251.016 73.6945 214.807 89.4749 182.782 111.92C150.757 134.366 123.569 163.018 102.834 196.176C82.0988 229.334 68.2387 266.321 62.077 304.94C55.9153 343.559 57.5777 383.022 66.9654 420.986L35.3679 439.229C15.8659 369.135 20.2175 294.548 47.7383 227.197C75.259 159.847 124.387 103.556 187.396 67.1781C250.404 30.8001 323.718 16.3992 395.806 26.2406C467.893 36.0821 534.664 69.6074 585.615 121.543L554.018 139.786Z" fill="#C7A15B" fill-opacity="0.11"/>
</svg>
