<svg width="51" height="53" viewBox="0 0 51 53" fill="none" xmlns="http://www.w3.org/2000/svg">
<path d="M26.3124 48.5815C19.9936 48.5743 13.9358 46.0609 9.46773 41.5926C4.9997 37.1243 2.48641 31.0661 2.47924 24.747C2.47472 22.5415 2.78177 20.3464 3.39128 18.2267C4.60417 13.963 6.9821 10.122 10.2578 7.1355C13.5335 4.14899 17.5772 2.13527 21.9344 1.32067C26.2915 0.506065 30.7896 0.922858 34.9229 2.5242C39.0562 4.12555 42.6611 6.84798 45.3323 10.3856C48.0036 13.9231 49.6353 18.1356 50.0442 22.5496C50.4531 26.9636 49.6229 31.4042 47.647 35.3723C45.671 39.3404 42.6276 42.6788 38.8588 45.0122C35.0899 47.3457 30.745 48.5817 26.3124 48.5815V48.5815ZM26.3124 1.79789C21.3237 1.80917 16.4738 3.44128 12.4933 6.44838C8.51268 9.45548 5.61699 13.6747 4.24238 18.4705C3.65561 20.5109 3.36006 22.6239 3.36449 24.747C3.36449 29.2859 4.71035 33.7229 7.2319 37.4969C9.75345 41.2709 13.3374 44.2123 17.5306 45.9493C21.7238 47.6862 26.3379 48.1407 30.7893 47.2552C35.2408 46.3697 39.3297 44.184 42.539 40.9745C45.7483 37.765 47.9339 33.6759 48.8194 29.2242C49.7048 24.7725 49.2504 20.1582 47.5135 15.9648C45.7766 11.7714 42.8353 8.1872 39.0616 5.66551C35.2878 3.14383 30.851 1.79789 26.3124 1.79789V1.79789Z" fill="#322E25"/>
<path d="M24.5682 52.9149C20.479 52.9129 16.4598 51.8581 12.9004 49.8528C9.34102 47.8476 6.36233 44.9599 4.25329 41.47C2.14426 37.98 0.976493 34.0063 0.863283 29.9343C0.750073 25.8623 1.69527 21.8303 3.60716 18.2294L5.61222 14.4565L4.41958 18.5567C3.83592 20.5782 3.542 22.6717 3.54653 24.7752C3.54663 29.8579 5.25558 34.7941 8.40071 38.7963C11.5458 42.7985 15.9459 45.636 20.8989 46.8561C25.8519 48.0762 31.0724 47.6087 35.7275 45.528C40.3825 43.4473 44.204 39.8734 46.582 35.3766L48.5209 31.7147L47.3958 35.7C45.9823 40.649 42.9905 45.0054 38.8723 48.111C34.7542 51.2166 29.7333 52.9028 24.5682 52.9149V52.9149ZM2.77406 22.5014C1.0579 27.9694 1.47606 33.8811 3.94496 39.0554C6.41386 44.2296 10.7517 48.2853 16.0917 50.412C21.4317 52.5388 27.3807 52.58 32.7499 50.5274C38.119 48.4748 42.5131 44.4796 45.0539 39.3401C42.011 43.2106 37.8318 46.0391 33.0987 47.4314C28.3656 48.8237 23.3144 48.7104 18.6489 47.1074C13.9835 45.5043 9.93631 42.4913 7.07131 38.4882C4.20631 34.4852 2.66622 29.6915 2.6657 24.7752C2.6657 24.0112 2.70182 23.2533 2.77406 22.5014Z" fill="#322E25"/>
<path d="M26.3123 43.1649C22.6699 43.1648 19.1092 42.0847 16.0806 40.061C13.0521 38.0374 10.6916 35.1611 9.29771 31.7959C7.90383 28.4307 7.53912 24.7277 8.24974 21.1552C8.96036 17.5828 10.7144 14.3013 13.29 11.7257C15.8656 9.15007 19.1471 7.39605 22.7196 6.68543C26.292 5.97482 29.995 6.33951 33.3602 7.73339C36.7254 9.12728 39.6017 11.4878 41.6253 14.5163C43.649 17.5449 44.7291 21.1055 44.7292 24.748C44.7237 29.6308 42.7815 34.312 39.3289 37.7646C35.8763 41.2172 31.1951 43.1593 26.3123 43.1649V43.1649ZM26.3123 7.21681C22.8449 7.21685 19.4554 8.24509 16.5724 10.1715C13.6894 12.0979 11.4424 14.836 10.1155 18.0394C8.78866 21.2429 8.44153 24.7679 9.11802 28.1686C9.79452 31.5694 11.4643 34.6932 13.9161 37.1449C16.3679 39.5967 19.4918 41.2664 22.8925 41.9428C26.2933 42.6192 29.8183 42.272 33.0217 40.945C36.2251 39.6181 38.9631 37.371 40.8895 34.488C42.8158 31.6049 43.844 28.2154 43.8439 24.748C43.8386 20.1 41.9898 15.6439 38.7031 12.3573C35.4165 9.0707 30.9603 7.22201 26.3123 7.21681V7.21681Z" fill="#322E25"/>
<path d="M27.9568 37.748L18.2914 35.468L18.645 33.9695L14.3959 32.9667L15.609 27.8288L16.6846 28.0827L19.5337 16.0106L18.4577 15.7567L19.6708 10.6188L23.9195 11.6211L24.2728 10.123L33.9391 12.4035L33.5825 13.9145C35.1721 14.3841 36.5215 15.4446 37.3534 16.8779C38.1853 18.3113 38.4366 20.0088 38.0555 21.6216L37.7925 22.736C37.5867 23.6041 37.1999 24.4189 36.6576 25.1273C36.8231 25.332 36.9757 25.5468 37.1144 25.7705C37.5646 26.4942 37.8668 27.3001 38.0035 28.1414C38.1402 28.9826 38.1086 29.8427 37.9107 30.6717L37.6473 31.787C37.4518 32.6163 37.0948 33.3991 36.5966 34.0904C36.0984 34.7817 35.4688 35.3682 34.7439 35.8161C34.0189 36.2641 33.2127 36.5649 32.3714 36.7012C31.5301 36.8376 30.6702 36.8069 29.8408 36.6108L28.3105 36.25L27.9568 37.748ZM23.8766 35.8813L27.3028 36.6894L27.6565 35.1913L30.0432 35.7541C30.76 35.9239 31.5033 35.9506 32.2306 35.8329C32.9578 35.7152 33.6547 35.4553 34.2813 35.0681C34.908 34.6809 35.4521 34.1739 35.8826 33.5763C36.3132 32.9786 36.6216 32.302 36.7904 31.5851L37.0538 30.4698C37.225 29.7531 37.2523 29.0096 37.1342 28.2824C37.0161 27.5551 36.7549 26.8585 36.3658 26.2328C36.1879 25.9477 35.9849 25.679 35.7594 25.4298L35.5029 25.1446L35.7513 24.8516C36.3249 24.1843 36.731 23.3898 36.9357 22.5342L37.1987 21.4197C37.3679 20.703 37.3942 19.96 37.2762 19.2331C37.1581 18.5063 36.8981 17.8098 36.5108 17.1834C36.1235 16.557 35.6167 16.013 35.0191 15.5825C34.4215 15.1519 33.745 14.8433 33.0281 14.6741L32.5997 14.5732L32.6276 14.1276L32.8803 13.0575L29.454 12.2493L29.1004 13.7479L27.9999 13.4883L28.3535 11.9898L24.9277 11.1817L24.5745 12.6798L20.3249 11.6774L19.5165 15.1029L20.5926 15.3568L17.3391 29.1413L16.2631 28.8874L15.4547 32.3128L19.7039 33.3147L19.3502 34.8133L22.7765 35.6214L23.1301 34.1233L24.2302 34.3832L23.8766 35.8813ZM31.3349 32.3854C31.1723 32.3854 31.0102 32.3665 30.8519 32.3292L20.7653 29.9495L21.9875 24.7699L32.0741 27.1492C32.6132 27.2764 33.0797 27.6124 33.3711 28.0834C33.6624 28.5543 33.7549 29.1217 33.628 29.6607L33.3646 30.7761C33.2562 31.2332 32.997 31.6405 32.6288 31.9325C32.2606 32.2244 31.8049 32.384 31.3349 32.3854V32.3854ZM21.8242 29.2956L31.0539 31.4725C31.3658 31.5459 31.6941 31.4925 31.9667 31.324C32.2393 31.1556 32.4339 30.8859 32.5077 30.5741L32.7711 29.4588C32.8076 29.3044 32.8132 29.1442 32.7878 28.9876C32.7623 28.831 32.7062 28.6809 32.6226 28.5459C32.5391 28.411 32.4298 28.2938 32.3009 28.2012C32.1721 28.1085 32.0262 28.0421 31.8717 28.0058L22.6424 25.8285L21.8242 29.2956ZM31.4755 23.3345C31.3144 23.3344 31.154 23.3158 30.9972 23.279L22.7962 21.3449L24.0184 16.1649L32.2193 18.099C32.7585 18.2265 33.2249 18.5627 33.5162 19.0338C33.8075 19.5049 33.8998 20.0724 33.7728 20.6115L33.5098 21.7255C33.4009 22.1832 33.1409 22.5909 32.7718 22.8828C32.4027 23.1747 31.9461 23.3338 31.4755 23.3345V23.3345ZM23.8551 20.6901L31.1987 22.4224C31.5107 22.4954 31.839 22.4418 32.1115 22.2733C32.3841 22.1049 32.5788 21.8353 32.6529 21.5236L32.9159 20.4096C32.9524 20.2551 32.9582 20.095 32.9328 19.9383C32.9074 19.7817 32.8513 19.6316 32.7679 19.4965C32.6845 19.3615 32.5752 19.2443 32.4464 19.1515C32.3177 19.0587 32.1719 18.9922 32.0174 18.9557L24.6733 17.2235L23.8551 20.6901Z" fill="#322E25"/>
<path d="M12.4406 43.4746L10.2446 47.7354L11.028 48.1391L13.2239 43.8783L12.4406 43.4746Z" fill="#322E25"/>
<path d="M21.3109 47.3468L19.6758 51.9153L20.5057 52.2123L22.1407 47.6437L21.3109 47.3468Z" fill="#322E25"/>
<path d="M31.529 47.0556L29.389 51.6682L30.1888 52.0392L32.3287 47.4266L31.529 47.0556Z" fill="#322E25"/>
<path d="M9.03031 40.52L6.83599 44.6572L7.61505 45.0704L9.80937 40.9332L9.03031 40.52Z" fill="#322E25"/>
<path d="M25.8294 47.8399L24.8066 52.3611L25.6666 52.5556L26.6894 48.0345L25.8294 47.8399Z" fill="#322E25"/>
</svg>
