<svg width="64" height="63" viewBox="0 0 64 63" fill="none" xmlns="http://www.w3.org/2000/svg">
<path d="M11.1876 38.5336C9.45155 32.4581 10.1965 25.9419 13.2589 20.4147C16.3214 14.8875 21.4513 10.8006 27.5233 9.05069C29.642 8.43797 31.8367 8.12761 34.0422 8.12879C38.4751 8.11853 42.823 9.34472 46.5972 11.6696C50.3714 13.9944 53.4224 17.3257 55.4073 21.2892C57.3921 25.2526 58.2322 29.6911 57.8331 34.1058C57.4341 38.5205 55.8116 42.7364 53.1481 46.2798C50.4846 49.8232 46.8856 52.5536 42.7557 54.1642C38.6257 55.7748 34.1284 56.2017 29.7692 55.397C25.41 54.5922 21.3616 52.5878 18.0791 49.6088C14.7966 46.6298 12.41 42.7944 11.1876 38.5336V38.5336ZM56.1562 25.629C54.7693 20.837 51.8627 16.6254 47.8743 13.6287C43.8858 10.6321 39.0316 9.01254 34.0426 9.01412C31.9196 9.01293 29.807 9.31171 27.7675 9.9016C23.4046 11.1536 19.511 13.6711 16.579 17.1359C13.647 20.6006 11.8083 24.8569 11.2953 29.3665C10.7824 33.8761 11.6183 38.4366 13.6973 42.4711C15.7763 46.5056 19.0051 49.833 22.9753 52.0325C26.9456 54.232 31.4789 55.2048 36.0022 54.828C40.5254 54.4511 44.8353 52.7415 48.387 49.9153C51.9386 47.0891 54.5724 43.2733 55.9553 38.9504C57.3382 34.6274 57.4081 29.9915 56.1562 25.629V25.629Z" fill="#322E25"/>
<path d="M6.54127 38.0524C5.41522 34.1213 5.32044 29.9671 6.2661 25.9927C7.21177 22.0182 9.16577 18.3586 11.9386 15.3687C14.7114 12.3788 18.2088 10.1603 22.0916 8.92824C25.9744 7.69621 30.1107 7.49256 34.0992 8.33702L38.2788 9.22358L34.0087 9.20821C31.9047 9.2048 29.8113 9.49975 27.7907 10.0843C22.9052 11.4864 18.6319 14.4907 15.6525 18.6177C12.6731 22.7448 11.1594 27.7568 11.3529 32.8542C11.5463 37.9516 13.4357 42.8406 16.7197 46.7412C20.0037 50.6417 24.4931 53.3291 29.4714 54.3745L33.5261 55.228L29.385 55.2459C24.2381 55.2524 19.2255 53.5783 15.1044 50.4765C10.9833 47.3748 7.97759 43.0138 6.54127 38.0524V38.0524ZM29.7632 8.71462C24.0339 8.57332 18.4669 10.6059 14.1744 14.4063C9.88196 18.2067 7.18017 23.4949 6.60891 29.2144C6.03765 34.9339 7.63899 40.6634 11.093 45.2581C14.5469 49.8528 19.5992 52.9743 25.2402 53.999C20.6804 52.1417 16.8089 48.9048 14.165 44.7394C11.5212 40.574 10.2368 35.6875 10.4907 30.7609C10.7447 25.8343 12.5245 21.113 15.5819 17.2549C18.6394 13.3969 22.8223 10.5943 27.5478 9.23764C28.282 9.02693 29.0205 8.85259 29.7632 8.71462Z" fill="#322E25"/>
<path d="M16.3941 37.0395C15.3894 33.5383 15.4455 29.8179 16.5553 26.3486C17.665 22.8793 19.7786 19.817 22.6288 17.549C25.4789 15.2809 28.9376 13.909 32.5675 13.6066C36.1974 13.3042 39.8354 14.085 43.0216 15.8502C46.2077 17.6155 48.7988 20.2859 50.4673 23.5237C52.1357 26.7616 52.8066 30.4215 52.3951 34.0406C51.9835 37.6597 50.508 41.0755 48.1551 43.8561C45.8022 46.6366 42.6777 48.657 39.1766 49.6618C34.4817 51.0033 29.4464 50.4278 25.1753 48.0615C20.9043 45.6952 17.7463 41.7313 16.3941 37.0395V37.0395ZM50.9475 27.1237C49.9911 23.7908 48.0678 20.8164 45.4208 18.5766C42.7739 16.3369 39.5223 14.9323 36.0771 14.5405C32.6319 14.1488 29.1479 14.7874 26.0657 16.3757C22.9835 17.964 20.4415 20.4307 18.7612 23.4637C17.0808 26.4967 16.3376 29.9599 16.6255 33.4153C16.9134 36.8707 18.2194 40.1631 20.3785 42.8763C22.5376 45.5894 25.4528 47.6013 28.7553 48.6577C32.0579 49.714 35.5995 49.7674 38.9324 48.8109C43.3986 47.5237 47.1718 44.5174 49.4243 40.4517C51.6768 36.386 52.2246 31.5928 50.9475 27.1237V27.1237Z" fill="#322E25"/>
<path d="M22.0542 37.1261L21.5797 27.2067L23.1177 27.1332L22.9094 22.7723L28.1827 22.5212L28.2353 23.6251L40.6249 23.0337L40.5722 21.9294L45.8454 21.6782L46.0539 26.0386L47.5913 25.9649L48.0657 35.8853L46.5149 35.9593C46.502 37.6168 45.8549 39.2063 44.7066 40.4013C43.5583 41.5964 41.996 42.3061 40.3407 42.3847L39.1969 42.4393C38.3058 42.4809 37.4159 42.3339 36.5853 42.0081C36.4343 42.2236 36.2699 42.4295 36.0931 42.6245C35.5216 43.2569 34.8304 43.7697 34.0595 44.1331C33.2886 44.4965 32.4532 44.7034 31.6017 44.7419L30.457 44.7963C29.6059 44.8372 28.7551 44.7099 27.9532 44.4217C27.1512 44.1336 26.4139 43.6902 25.7833 43.1169C25.1527 42.5436 24.6413 41.8517 24.2781 41.0807C23.915 40.3096 23.7074 39.4746 23.667 38.6233L23.5918 37.0528L22.0542 37.1261ZM22.7231 32.6892L22.8914 36.2054L24.4289 36.1321L24.5463 38.5815C24.5809 39.3174 24.7602 40.0392 25.0739 40.7057C25.3877 41.3723 25.8297 41.9704 26.3748 42.466C26.9198 42.9615 27.5572 43.3447 28.2504 43.5937C28.9436 43.8427 29.6791 43.9525 30.4148 43.9169L31.5595 43.8625C32.2955 43.8294 33.0177 43.6506 33.6842 43.3364C34.3506 43.0223 34.9482 42.5791 35.4423 42.0325C35.6672 41.7828 35.8695 41.5136 36.0468 41.2282L36.2503 40.9029L36.6004 41.0608C37.4 41.4281 38.2756 41.5993 39.1546 41.56L40.2984 41.5054C41.0339 41.4703 41.7554 41.2907 42.4215 40.9768C43.0876 40.6628 43.6853 40.2207 44.1806 39.6757C44.6759 39.1307 45.0589 38.4934 45.3079 37.8003C45.5569 37.1071 45.667 36.3717 45.6319 35.636L45.6107 35.1963L46.0467 35.1003L47.145 35.0479L46.9767 31.5317L45.4388 31.6051L45.3846 30.4757L46.9226 30.4023L46.7544 26.8865L45.217 26.9601L45.0082 22.5989L41.4927 22.7668L41.5455 23.8712L27.3983 24.5462L27.3455 23.4419L23.83 23.6098L24.0391 27.9704L22.5011 28.0439L22.6695 31.5601L24.207 31.4868L24.2606 32.6159L22.7231 32.6892ZM28.1406 38.8939C28.0958 38.7376 28.0692 38.5766 28.0615 38.4141L27.5666 28.0624L32.8823 27.8084L33.3776 38.16C33.4041 38.7133 33.2097 39.2544 32.8374 39.6644C32.4651 40.0744 31.9452 40.3197 31.3921 40.3464L30.2474 40.4009C29.7781 40.4228 29.3151 40.286 28.9329 40.0127C28.5507 39.7393 28.2717 39.3452 28.1407 38.8939L28.1406 38.8939ZM28.4872 28.8998L28.9406 38.372C28.9561 38.692 29.098 38.9929 29.3351 39.2084C29.5722 39.424 29.8851 39.5366 30.2051 39.5215L31.3498 39.4671C31.5084 39.4596 31.6638 39.4208 31.8074 39.3531C31.9509 39.2854 32.0797 39.1901 32.1864 39.0726C32.293 38.9551 32.3755 38.8177 32.429 38.6683C32.4826 38.5188 32.5061 38.3603 32.4984 38.2018L32.0455 28.7299L28.4872 28.8998ZM36.8792 36.5324C36.8349 36.3776 36.8085 36.2182 36.8006 36.0574L36.3976 27.6411L41.7137 27.3869L42.1167 35.8033C42.1429 36.3566 41.9484 36.8977 41.5759 37.3077C41.2034 37.7176 40.6835 37.9629 40.1302 37.9895L38.9869 38.044C38.5169 38.0655 38.0533 37.9281 37.6709 37.6539C37.2886 37.3796 37.0096 36.9846 36.8792 36.5324L36.8792 36.5324ZM37.319 28.4782L37.6796 36.0148C37.6955 36.3348 37.8375 36.6355 38.0747 36.8511C38.3118 37.0666 38.6246 37.1794 38.9446 37.1647L40.088 37.1102C40.2465 37.1027 40.402 37.064 40.5456 36.9964C40.6891 36.9287 40.818 36.8335 40.9247 36.716C41.0315 36.5986 41.1141 36.4613 41.1677 36.3119C41.2214 36.1625 41.2451 36.004 41.2376 35.8454L40.8768 28.3085L37.319 28.4782Z" fill="#322E25"/>
<path d="M12.2699 23.7912L7.56873 22.8557L7.39674 23.72L12.0979 24.6555L12.2699 23.7912Z" fill="#322E25"/>
<path d="M10.9947 33.3856L6.15247 33.0742L6.0959 33.9538L10.9382 34.2652L10.9947 33.3856Z" fill="#322E25"/>
<path d="M14.0932 43.1269L9.06921 42.3423L8.93318 43.2133L13.9571 43.998L14.0932 43.1269Z" fill="#322E25"/>
<path d="M14.1692 19.6985L9.58722 18.7305L9.40494 19.5933L13.9869 20.5613L14.1692 19.6985Z" fill="#322E25"/>
<path d="M11.7672 37.8647L7.13928 38.1287L7.18949 39.0089L11.8174 38.745L11.7672 37.8647Z" fill="#322E25"/>
</svg>
