<svg width="37" height="37" viewBox="0 0 37 37" fill="none" xmlns="http://www.w3.org/2000/svg">
<path d="M10.4199 14.9943C9.19199 14.6655 8.08918 13.9799 7.25092 13.0242C6.41266 12.0686 5.87662 10.8858 5.7106 9.62551C5.54459 8.3652 5.75607 7.08397 6.31826 5.94385C6.88046 4.80374 7.76812 3.85595 8.86901 3.22035C9.9699 2.58476 11.2345 2.28991 12.503 2.37309C13.7715 2.45628 14.9868 2.91375 15.9952 3.68767C17.0037 4.4616 17.76 5.51719 18.1685 6.72097C18.577 7.92474 18.6193 9.22262 18.2901 10.4505C17.8472 12.0955 16.7699 13.4977 15.2945 14.3495C13.8191 15.2014 12.066 15.4332 10.4199 14.9943ZM13.2711 4.35345C12.3944 4.11835 11.4677 4.1485 10.6081 4.4401C9.74853 4.7317 8.99473 5.27165 8.44203 5.99167C7.88932 6.71168 7.56252 7.57943 7.50298 8.48516C7.44345 9.3909 7.65382 10.294 8.10752 11.0801C8.56122 11.8663 9.23786 12.5003 10.0519 12.9019C10.8659 13.3035 11.7807 13.4547 12.6807 13.3364C13.5806 13.2181 14.4253 12.8355 15.1078 12.2372C15.7903 11.6388 16.2801 10.8515 16.5152 9.97478C16.8284 8.79924 16.6628 7.54746 16.0548 6.49378C15.4467 5.4401 14.4457 4.67045 13.2711 4.35351L13.2711 4.35345Z" fill="#322E25"/>
<path d="M23.2524 35.2772C22.0247 34.948 20.9222 34.2623 20.0842 33.3065C19.2463 32.3508 18.7105 31.1681 18.5447 29.9079C18.3789 28.6477 18.5905 27.3667 19.1527 26.2268C19.7149 25.0868 20.6025 24.1392 21.7032 23.5037C22.804 22.8682 24.0685 22.5733 25.3368 22.6564C26.6051 22.7395 27.8203 23.1968 28.8288 23.9705C29.8372 24.7441 30.5936 25.7995 31.0023 27.003C31.4109 28.2065 31.4536 29.5043 31.1248 30.732C30.6822 32.3778 29.6046 33.7807 28.1287 34.6329C26.6528 35.485 24.899 35.7167 23.2524 35.2772V35.2772ZM26.1036 24.6363C25.2268 24.4016 24.3001 24.4321 23.4406 24.724C22.5812 25.0159 21.8276 25.5562 21.2752 26.2764C20.7227 26.9966 20.3963 27.8645 20.3371 28.7703C20.2779 29.676 20.4886 30.579 20.9426 31.365C21.3966 32.151 22.0735 32.7847 22.8877 33.186C23.7018 33.5873 24.6167 33.7381 25.5166 33.6195C26.4165 33.5008 27.261 33.118 27.9433 32.5194C28.6256 31.9208 29.1151 31.1333 29.3499 30.2565C29.6635 29.0807 29.4979 27.8286 28.8892 26.7749C28.2806 25.7212 27.2788 24.9521 26.1036 24.6363V24.6363Z" fill="#322E25"/>
<path d="M19.3587 28.5305L7.63451 25.389C7.51793 25.3578 7.40866 25.304 7.3129 25.2305C7.21714 25.1571 7.13678 25.0655 7.07644 24.961C7.0161 24.8565 6.97698 24.7411 6.96126 24.6215C6.94555 24.5018 6.95354 24.3803 6.98484 24.2637L9.7701 13.869C9.83317 13.6337 9.98716 13.433 10.1982 13.3112C10.4092 13.1893 10.66 13.1563 10.8954 13.2194C11.1307 13.2824 11.3314 13.4364 11.4532 13.6474C11.5751 13.8585 11.6081 14.1092 11.545 14.3446L8.99756 23.8519L19.8343 26.7556C20.0696 26.8186 20.2703 26.9726 20.3922 27.1836C20.514 27.3947 20.547 27.6454 20.4839 27.8808C20.4209 28.1162 20.2669 28.3169 20.0559 28.4387C19.8449 28.5605 19.5941 28.5935 19.3587 28.5305Z" fill="#322E25"/>
</svg>
