<svg width="91" height="97" viewBox="0 0 91 97" fill="none" xmlns="http://www.w3.org/2000/svg">
<path d="M46.9997 88.9148C35.3344 88.9016 24.1506 84.2614 15.9019 76.0123C7.65326 67.7632 3.01333 56.5788 3.00009 44.9128C2.99176 40.841 3.55862 36.7884 4.68386 32.8752C6.92305 25.0037 11.3131 17.9127 17.3605 12.3992C23.408 6.88562 30.8732 3.16798 38.9172 1.6641C46.9613 0.160217 55.2653 0.929681 62.8961 3.88601C70.5269 6.84234 77.182 11.8684 82.1135 18.3993C87.045 24.9302 90.0575 32.7071 90.8124 40.856C91.5673 49.005 90.0346 57.2029 86.3867 64.5287C82.7388 71.8544 77.1202 78.0176 70.1623 82.3255C63.2045 86.6334 55.1831 88.9153 46.9997 88.9148V88.9148ZM46.9997 2.54512C37.7899 2.56594 28.8363 5.57907 21.4875 11.1306C14.1388 16.6822 8.79287 24.4716 6.25513 33.3253C5.17186 37.0922 4.62622 40.9932 4.63441 44.9128C4.63441 53.2923 7.11907 61.4837 11.7742 68.451C16.4294 75.4183 23.046 80.8487 30.7872 84.0554C38.5285 87.2621 47.0468 88.1011 55.2649 86.4663C63.4829 84.8316 71.0317 80.7965 76.9566 74.8712C82.8815 68.946 86.9164 61.3968 88.5511 53.1783C90.1858 44.9598 89.3468 36.441 86.1402 28.6994C82.9337 20.9577 77.5036 14.3408 70.5367 9.68535C63.5697 5.02994 55.3788 2.54512 46.9997 2.54512V2.54512Z" fill="#322E25"/>
<path d="M43.7797 96.9148C36.2305 96.9112 28.8103 94.9638 22.2392 91.2618C15.668 87.5598 10.1689 82.2287 6.27528 75.7857C2.38168 69.3427 0.225796 62.0066 0.0167927 54.4891C-0.192211 46.9716 1.55277 39.5279 5.08241 32.8801L8.78405 25.9148L6.58227 33.4844C5.50474 37.2164 4.96212 41.0813 4.97047 44.9646C4.97067 54.348 8.12566 63.4611 13.932 70.8497C19.7384 78.2384 27.8616 83.4768 37.0056 85.7294C46.1496 87.9819 55.7874 87.1187 64.3814 83.2775C72.9754 79.4362 80.0304 72.8383 84.4207 64.5364L88 57.7759L85.923 65.1335C83.3135 74.2701 77.7902 82.3126 70.1874 88.0461C62.5845 93.7796 53.3153 96.8925 43.7797 96.9148V96.9148ZM3.54439 40.7669C0.376086 50.8616 1.14807 61.7756 5.70604 71.328C10.264 80.8804 18.2723 88.3678 28.1308 92.2941C37.9893 96.2204 48.972 96.2965 58.8843 92.5071C68.7966 88.7177 76.9087 81.342 81.5996 71.8536C75.9818 78.9993 68.2663 84.2211 59.5283 86.7915C50.7902 89.3619 41.4649 89.1527 32.8518 86.1932C24.2388 83.2337 16.767 77.6712 11.4778 70.281C6.18853 62.8907 3.3453 54.0408 3.34433 44.9645C3.34433 43.5542 3.41101 42.155 3.54439 40.7669Z" fill="#322E25"/>
<path d="M46.9996 78.9148C40.2751 78.9147 33.7016 76.9206 28.1104 73.1846C22.5192 69.4486 18.1614 64.1385 15.588 57.9259C13.0147 51.7132 12.3414 44.8769 13.6533 38.2816C14.9652 31.6863 18.2034 25.6281 22.9584 20.8732C27.7133 16.1182 33.7715 12.88 40.3668 11.5681C46.9621 10.2562 53.7984 10.9295 60.011 13.5028C66.2237 16.0762 71.5338 20.434 75.2698 26.0252C79.0058 31.6164 80.9999 38.1899 81 44.9144C80.9898 53.9287 77.4043 62.571 71.0302 68.9451C64.6561 75.3192 56.0139 78.9046 46.9996 78.9148V78.9148ZM46.9996 12.5491C40.5983 12.5492 34.3407 14.4475 29.0183 18.004C23.6958 21.5604 19.5475 26.6153 17.0979 32.5294C14.6483 38.4434 14.0074 44.9511 15.2563 51.2294C16.5052 57.5077 19.5878 63.2747 24.1143 67.8011C28.6408 72.3274 34.4078 75.4099 40.6861 76.6587C46.9645 77.9074 53.4721 77.2664 59.3862 74.8166C65.3002 72.3669 70.355 68.2184 73.9113 62.8959C77.4676 57.5733 79.3657 51.3157 79.3657 44.9144C79.3559 36.3335 75.9427 28.1068 69.875 22.0393C63.8073 15.9717 55.5805 12.5587 46.9996 12.5491V12.5491Z" fill="#322E25"/>
<path d="M50.0357 68.9148L32.1917 64.7055L32.8446 61.939L25 60.0877L27.2396 50.6024L29.2254 51.0711L34.4852 28.7842L32.4987 28.3155L34.7384 18.8301L42.5822 20.6805L43.2343 17.9148L61.0799 22.1249L60.4214 24.9144C63.3562 25.7814 65.8474 27.7391 67.3832 30.3853C68.919 33.0316 69.3829 36.1654 68.6794 39.1429L68.1939 41.2003C67.8138 42.8028 67.0998 44.3072 66.0987 45.615C66.4042 45.9929 66.6859 46.3894 66.942 46.8024C67.7731 48.1386 68.331 49.6262 68.5834 51.1794C68.8357 52.7325 68.7775 54.3202 68.412 55.8507L67.9257 57.9098C67.5648 59.4409 66.9057 60.8859 65.986 62.1622C65.0662 63.4385 63.904 64.5212 62.5655 65.3482C61.2271 66.1752 59.7388 66.7305 58.1857 66.9822C56.6325 67.234 55.045 67.1773 53.5138 66.8153L50.6887 66.1491L50.0357 68.9148ZM42.5028 65.4685L48.8282 66.9604L49.4811 64.1947L53.8874 65.2337C55.2108 65.5471 56.583 65.5965 57.9256 65.3792C59.2682 65.1618 60.5547 64.682 61.7116 63.9672C62.8685 63.2523 63.8731 62.3164 64.6679 61.2131C65.4628 60.1097 66.0322 58.8605 66.3437 57.537L66.8301 55.4779C67.1461 54.1549 67.1966 52.7824 66.9785 51.4397C66.7605 50.097 66.2783 48.811 65.5599 47.6558C65.2314 47.1296 64.8568 46.6335 64.4405 46.1735L63.9669 45.6468L64.4254 45.1059C65.4844 43.8741 66.234 42.4073 66.612 40.8276L67.0975 38.7702C67.4099 37.447 67.4585 36.0753 67.2406 34.7334C67.0227 33.3915 66.5426 32.1057 65.8276 30.9492C65.1127 29.7928 64.1769 28.7885 63.0737 27.9937C61.9705 27.1989 60.7215 26.6291 59.3981 26.3168L58.6071 26.1304L58.6587 25.3079L59.1251 23.3322L52.7997 21.8402L52.1468 24.6068L50.1151 24.1276L50.768 21.3611L44.4434 19.8692L43.7913 22.6349L35.9459 20.7844L34.4536 27.1083L36.4401 27.577L30.4337 53.0255L28.4472 52.5567L26.9549 58.8806L34.7995 60.7302L34.1465 63.4967L40.4719 64.9887L41.1248 62.223L43.1558 62.7028L42.5028 65.4685ZM56.2722 59.0146C55.9719 59.0146 55.6727 58.9797 55.3805 58.9107L36.759 54.5174L39.0153 44.9551L57.6367 49.3476C58.632 49.5825 59.4932 50.2028 60.0311 51.0723C60.5691 51.9418 60.7397 52.9892 60.5055 53.9844L60.0192 56.0434C59.819 56.8874 59.3406 57.6394 58.6609 58.1784C57.9811 58.7173 57.1397 59.0119 56.2722 59.0145V59.0146ZM38.7138 53.3102L55.7533 57.3291C56.3292 57.4646 56.9353 57.3661 57.4385 57.0551C57.9417 56.7441 58.301 56.2462 58.4372 55.6706L58.9236 53.6116C58.9909 53.3265 59.0013 53.0308 58.9543 52.7417C58.9072 52.4525 58.8036 52.1754 58.6494 51.9263C58.4952 51.6772 58.2934 51.4609 58.0555 51.2898C57.8176 51.1187 57.5484 50.9961 57.2631 50.9292L40.2243 46.9094L38.7138 53.3102ZM56.5316 42.3051C56.2343 42.3049 55.9381 42.2706 55.6486 42.2028L40.5084 38.632L42.7646 29.0689L57.9049 32.6397C58.9002 32.875 59.7613 33.4957 60.2991 34.3654C60.8369 35.2352 61.0073 36.2828 60.7728 37.2781L60.2873 39.3347C60.0862 40.1797 59.6062 40.9324 58.9248 41.4713C58.2435 42.0102 57.4004 42.3039 56.5316 42.3052V42.3051ZM42.4632 37.4232L56.0207 40.6213C56.5967 40.756 57.2027 40.657 57.7059 40.346C58.209 40.035 58.5684 39.5373 58.7054 38.962L59.1909 36.9053C59.2583 36.6202 59.2689 36.3245 59.222 36.0353C59.1751 35.7461 59.0717 35.469 58.9176 35.2197C58.7636 34.9705 58.5619 34.754 58.3242 34.5827C58.0864 34.4114 57.8172 34.2885 57.532 34.2212L43.9737 31.0233L42.4632 37.4232Z" fill="#322E25"/>
<path d="M21.3902 79.4868L17.3362 87.3529L18.7824 88.0982L22.8364 80.2322L21.3902 79.4868Z" fill="#322E25"/>
<path d="M37.7661 86.6354L34.7477 95.0696L36.2797 95.6179L39.2982 87.1837L37.7661 86.6354Z" fill="#322E25"/>
<path d="M56.6304 86.0979L52.6797 94.6135L54.1561 95.2985L58.1068 86.7829L56.6304 86.0979Z" fill="#322E25"/>
<path d="M15.0944 74.0323L11.0433 81.6702L12.4816 82.433L16.5326 74.7951L15.0944 74.0323Z" fill="#322E25"/>
<path d="M46.1081 87.5457L44.2198 95.8925L45.8075 96.2516L47.6958 87.9049L46.1081 87.5457Z" fill="#322E25"/>
</svg>
