<svg width="42" height="26" viewBox="0 0 42 26" fill="none" xmlns="http://www.w3.org/2000/svg">
<path d="M15.6352 11.4063C15.1452 12.9137 14.2191 14.242 12.9741 15.2231C11.7291 16.2042 10.2212 16.794 8.64092 16.918C7.06069 17.0421 5.47917 16.6947 4.09637 15.9198C2.71358 15.145 1.59163 13.9774 0.872419 12.5649C0.153206 11.1524 -0.130955 9.55826 0.0558585 7.98421C0.242672 6.41016 0.892068 4.92687 1.92193 3.72192C2.9518 2.51697 4.31587 1.64449 5.84162 1.21483C7.36737 0.785163 8.98627 0.817615 10.4936 1.30808C12.513 1.96755 14.1883 3.40104 15.1522 5.29412C16.1161 7.1872 16.2898 9.3853 15.6352 11.4063ZM2.57223 7.15768C2.22195 8.23394 2.19869 9.3899 2.50538 10.4794C2.81208 11.5689 3.43495 12.5429 4.29524 13.2784C5.15553 14.0139 6.21461 14.4778 7.33853 14.6113C8.46245 14.7449 9.60074 14.5422 10.6095 14.0289C11.6182 13.5155 12.452 12.7146 13.0055 11.7273C13.559 10.7401 13.8074 9.61088 13.7191 8.48249C13.6308 7.35411 13.21 6.27724 12.5097 5.38806C11.8094 4.49887 10.8612 3.83732 9.78492 3.48705C8.34166 3.01983 6.77205 3.14384 5.42006 3.83189C4.06807 4.51993 3.04398 5.71589 2.57223 7.15768V7.15768Z" fill="#322E25"/>
<path d="M41.6096 19.8545C41.1196 21.3619 40.1935 22.6902 38.9486 23.6713C37.7036 24.6524 36.1956 25.2423 34.6154 25.3663C33.0351 25.4903 31.4536 25.1429 30.0708 24.3681C28.688 23.5932 27.5661 22.4257 26.8469 21.0131C26.1276 19.6006 25.8435 18.0065 26.0303 16.4325C26.2171 14.8584 26.8665 13.3751 27.8964 12.1702C28.9262 10.9652 30.2903 10.0927 31.816 9.66307C33.3418 9.2334 34.9607 9.26586 36.468 9.75632C38.4874 10.4158 40.1627 11.8493 41.1266 13.7424C42.0905 15.6354 42.2642 17.8335 41.6096 19.8545V19.8545ZM28.5467 15.6059C28.1964 16.6822 28.1731 17.8382 28.4798 18.9276C28.7865 20.0171 29.4094 20.9912 30.2697 21.7267C31.13 22.4622 32.189 22.926 33.313 23.0596C34.4369 23.1932 35.5752 22.9905 36.5839 22.4771C37.5926 21.9638 38.4264 21.1628 38.9799 20.1756C39.5335 19.1883 39.7818 18.0591 39.6935 16.9307C39.6053 15.8024 39.1844 14.7255 38.4841 13.8363C37.7838 12.9471 36.8356 12.2856 35.7594 11.9353C34.3161 11.4681 32.7465 11.5921 31.3945 12.2801C30.0425 12.9682 29.0184 14.1641 28.5467 15.6059V15.6059Z" fill="#322E25"/>
<path d="M28.6979 15.6549C28.6515 15.798 28.5772 15.9306 28.4795 16.045C28.3818 16.1594 28.2625 16.2535 28.1284 16.3217C27.9943 16.39 27.8481 16.4312 27.698 16.4429C27.548 16.4546 27.3972 16.4367 27.2541 16.39L14.1911 12.1414C13.9021 12.0475 13.6624 11.8425 13.5245 11.5718C13.3866 11.301 13.362 10.9865 13.456 10.6976C13.5499 10.4086 13.7548 10.1688 14.0256 10.031C14.2964 9.8931 14.6108 9.86845 14.8998 9.96243L27.9628 14.211C28.1059 14.2575 28.2385 14.3317 28.3529 14.4294C28.4674 14.5271 28.5614 14.6465 28.6297 14.7806C28.6979 14.9147 28.7391 15.0609 28.7508 15.2109C28.7625 15.361 28.7446 15.5118 28.6979 15.6549V15.6549Z" fill="#322E25"/>
</svg>
