<svg width="40" height="41" viewBox="0 0 40 41" fill="none" xmlns="http://www.w3.org/2000/svg">
<path d="M13.3732 38.7272C11.1561 38.7255 8.98921 38.0669 7.14607 36.8347C5.30294 35.6025 3.86617 33.8518 3.01715 31.8037C2.16813 29.7556 1.94492 27.5019 2.37569 25.3271C2.80645 23.1522 3.87189 21.1538 5.4375 19.5839L11.4336 13.5882C11.498 13.5236 11.5854 13.4873 11.6766 13.4872C11.7677 13.4871 11.8552 13.5232 11.9198 13.5875L12.5103 14.1743L13.0914 11.9956C13.1069 11.9371 13.1377 11.8837 13.1805 11.8409L18.6668 6.35463C20.7735 4.25972 23.6249 3.08566 26.5959 3.08985C29.5669 3.09405 32.415 4.27616 34.5158 6.37699C36.6166 8.47783 37.7986 11.326 37.8027 14.297C37.8069 17.268 36.6327 20.1194 34.5378 22.226L29.2489 27.5149C29.1786 27.5707 29.094 27.6057 29.0048 27.6158C28.9595 27.6158 28.9146 27.6068 28.8728 27.5893C28.8309 27.5719 28.7929 27.5464 28.761 27.5142L28.2314 26.9806L27.6859 29.0127C27.6703 29.071 27.6395 29.1243 27.5968 29.167L21.3085 35.4553C20.2679 36.4983 19.0307 37.3245 17.6686 37.8862C16.3065 38.4478 14.8465 38.7336 13.3732 38.7272ZM11.6777 14.3179L5.92442 20.0709C3.94889 22.0464 2.83904 24.7257 2.83901 27.5195C2.83897 30.3133 3.94877 32.9927 5.92426 34.9682C7.89975 36.9438 10.5791 38.0536 13.3729 38.0537C16.1667 38.0537 18.8461 36.9439 20.8216 34.9684L27.0447 28.7453L27.7213 26.224C27.7369 26.1655 27.7677 26.1121 27.8106 26.0693C27.8534 26.0266 27.9068 25.9958 27.9653 25.9802C28.0238 25.9647 28.0854 25.9648 28.1439 25.9806C28.2023 25.9964 28.2556 26.0273 28.2983 26.0703L29.0065 26.7835L34.0509 21.7391C35.029 20.7609 35.8049 19.5997 36.3343 18.3216C36.8637 17.0436 37.1361 15.6737 37.1361 14.2904C37.1361 12.9071 36.8636 11.5373 36.3342 10.2592C35.8048 8.98117 35.0289 7.81991 34.0507 6.84175C33.0725 5.86358 31.9112 5.08767 30.6332 4.5583C29.3551 4.02893 27.9853 3.75648 26.602 3.7565C25.2186 3.75651 23.8488 4.02899 22.5708 4.55839C21.2928 5.08779 20.1315 5.86373 19.1533 6.84191L13.733 12.2626L13.0224 14.9266C13.0069 14.985 12.9762 15.0382 12.9336 15.081C12.891 15.1238 12.8379 15.1546 12.7796 15.1704C12.7213 15.1857 12.66 15.1856 12.6017 15.1701C12.5434 15.1546 12.4901 15.1242 12.4471 15.082L11.6777 14.3179Z" fill="#332F25"/>
<path d="M26.8165 31.2597C26.7637 31.2596 26.7115 31.2474 26.6641 31.224C26.6167 31.2006 26.5753 31.1666 26.5431 31.1246C26.511 31.0827 26.4889 31.0339 26.4787 30.982C26.4684 30.9301 26.4702 30.8766 26.4839 30.8255L27.7214 26.224C27.7371 26.1655 27.7679 26.1121 27.8107 26.0693C27.8536 26.0265 27.907 25.9958 27.9655 25.9802C28.024 25.9646 28.0856 25.9648 28.1441 25.9806C28.2025 25.9964 28.2558 26.0273 28.2984 26.0703L29.0066 26.7835L34.0511 21.7391C36.0265 19.7636 37.1363 17.0842 37.1363 14.2904C37.1363 11.4966 36.0264 8.81723 34.0509 6.84174C32.0753 4.86625 29.396 3.75646 26.6022 3.75649C23.8084 3.75652 21.129 4.86638 19.1535 6.84191L13.6675 12.3279C13.6139 12.3815 13.5442 12.4159 13.469 12.4258C13.3939 12.4357 13.3175 12.4205 13.2519 12.3826C13.1862 12.3447 13.1349 12.2862 13.106 12.2162C13.077 12.1461 13.0719 12.0685 13.0915 11.9953L13.4328 10.7232L11.6644 11.2C11.5912 11.2197 11.5135 11.2146 11.4435 11.1856C11.3734 11.1567 11.3149 11.1054 11.2769 11.0397C11.239 10.9741 11.2238 10.8978 11.2336 10.8226C11.2435 10.7474 11.2779 10.6776 11.3315 10.624L17.1372 4.81861C19.6509 2.31497 23.0552 0.910974 26.603 0.914803C30.1508 0.918631 33.5521 2.32997 36.0603 4.83903C38.5686 7.34809 39.9789 10.7499 39.9815 14.2976C39.9842 17.8454 38.5791 21.2493 36.0747 23.7622L36.0744 23.7625L31.0289 28.8079L31.6625 29.4415C31.7053 29.4842 31.736 29.5376 31.7517 29.596C31.7673 29.6545 31.7673 29.716 31.7516 29.7745C31.7359 29.8329 31.705 29.8862 31.6622 29.9289C31.6193 29.9716 31.566 30.0023 31.5075 30.0178L26.9059 31.2479C26.8768 31.2558 26.8467 31.2597 26.8165 31.2597V31.2597ZM28.2315 26.9806L27.3048 30.4277L30.7529 29.506L30.2986 29.0513C30.2666 29.0194 30.2412 28.9814 30.2239 28.9397C30.2066 28.8979 30.1977 28.8531 30.1977 28.8079C30.1977 28.7627 30.2066 28.7179 30.2239 28.6761C30.2412 28.6344 30.2666 28.5964 30.2986 28.5644L35.5872 23.2759C36.7671 22.0964 37.7032 20.6961 38.342 19.1549C38.9807 17.6136 39.3097 15.9617 39.31 14.2933C39.3104 12.6249 38.9821 10.9728 38.344 9.43134C37.7058 7.88985 36.7703 6.48913 35.5908 5.30918C34.4114 4.12923 33.011 3.19315 31.4698 2.55437C29.9286 1.9156 28.2766 1.58665 26.6083 1.58631C24.9399 1.58597 23.2878 1.91424 21.7463 2.55238C20.2048 3.19051 18.8041 4.12602 17.6241 5.30549L12.73 10.1996L13.831 9.90267C13.8894 9.88699 13.9509 9.88694 14.0093 9.90257C14.0678 9.91819 14.121 9.94892 14.1638 9.99166C14.2066 10.0344 14.2373 10.0876 14.253 10.146C14.2687 10.2045 14.2687 10.2659 14.253 10.3243L14.0903 10.9314L18.6669 6.35468C20.7736 4.25978 23.6251 3.08572 26.5961 3.08991C29.5671 3.0941 32.4152 4.27621 34.516 6.37705C36.6168 8.47789 37.7988 11.326 37.8029 14.297C37.807 17.268 36.6329 20.1194 34.5379 22.2261L29.2491 27.5149C29.1788 27.5708 29.0942 27.6057 29.005 27.6158C28.9597 27.6158 28.9148 27.6068 28.8729 27.5894C28.8311 27.5719 28.7931 27.5464 28.7612 27.5143L28.2315 26.9806Z" fill="#332F25"/>
<path d="M13.3732 38.7272C11.1561 38.7255 8.98921 38.0669 7.14607 36.8347C5.30294 35.6025 3.86617 33.8518 3.01715 31.8037C2.16813 29.7556 1.94492 27.5019 2.37569 25.3271C2.80645 23.1522 3.87189 21.1538 5.4375 19.5839L11.4336 13.5882C11.498 13.5236 11.5854 13.4873 11.6766 13.4872C11.7677 13.4871 11.8552 13.5232 11.9198 13.5875L12.5103 14.1743L13.0914 11.9956C13.1069 11.9371 13.1377 11.8837 13.1805 11.8409L18.6668 6.35463C20.7735 4.25972 23.6249 3.08566 26.5959 3.08985C29.5669 3.09405 32.415 4.27616 34.5158 6.37699C36.6166 8.47783 37.7986 11.326 37.8027 14.297C37.8069 17.268 36.6327 20.1194 34.5378 22.226L29.2489 27.5149C29.1786 27.5707 29.094 27.6057 29.0048 27.6158C28.9595 27.6158 28.9146 27.6068 28.8728 27.5893C28.8309 27.5719 28.7929 27.5464 28.761 27.5142L28.2314 26.9806L27.6859 29.0127C27.6703 29.071 27.6395 29.1243 27.5968 29.167L21.3085 35.4553C20.2679 36.4983 19.0307 37.3245 17.6686 37.8862C16.3065 38.4478 14.8465 38.7336 13.3732 38.7272ZM11.6777 14.3179L5.92442 20.0709C3.94889 22.0464 2.83904 24.7257 2.83901 27.5195C2.83897 30.3133 3.94877 32.9927 5.92426 34.9682C7.89975 36.9438 10.5791 38.0536 13.3729 38.0537C16.1667 38.0537 18.8461 36.9439 20.8216 34.9684L27.0447 28.7453L27.7213 26.224C27.7369 26.1655 27.7677 26.1121 27.8106 26.0693C27.8534 26.0266 27.9068 25.9958 27.9653 25.9802C28.0238 25.9647 28.0854 25.9648 28.1439 25.9806C28.2023 25.9964 28.2556 26.0273 28.2983 26.0703L29.0065 26.7835L34.0509 21.7391C35.029 20.7609 35.8049 19.5997 36.3343 18.3216C36.8637 17.0436 37.1361 15.6737 37.1361 14.2904C37.1361 12.9071 36.8636 11.5373 36.3342 10.2592C35.8048 8.98117 35.0289 7.81991 34.0507 6.84175C33.0725 5.86358 31.9112 5.08767 30.6332 4.5583C29.3551 4.02893 27.9853 3.75648 26.602 3.7565C25.2186 3.75651 23.8488 4.02899 22.5708 4.55839C21.2928 5.08779 20.1315 5.86373 19.1533 6.84191L13.733 12.2626L13.0224 14.9266C13.0069 14.985 12.9762 15.0382 12.9336 15.081C12.891 15.1238 12.8379 15.1546 12.7796 15.1704C12.7213 15.1857 12.66 15.1856 12.6017 15.1701C12.5434 15.1546 12.4901 15.1242 12.4471 15.082L11.6777 14.3179Z" fill="#332F25"/>
<path d="M14.2036 34.6271C12.7017 34.6274 11.2306 34.2016 9.96115 33.399C8.69168 32.5965 7.67601 31.4502 7.03215 30.0933C6.38828 28.7365 6.14266 27.2248 6.32382 25.7339C6.50497 24.243 7.10547 22.8341 8.05554 21.6709C8.06455 21.6558 8.07479 21.6416 8.08615 21.6282C8.79097 20.7769 9.66573 20.0821 10.6545 19.5883C11.6432 19.0946 12.7242 18.8126 13.8282 18.7606C14.9322 18.7086 16.0348 18.8876 17.0656 19.2863C18.0964 19.6849 19.0327 20.2943 19.8144 21.0756C20.5961 21.8568 21.2062 22.7927 21.6054 23.8232C22.0047 24.8538 22.1844 25.9563 22.1331 27.0603C22.0818 28.1643 21.8006 29.2455 21.3074 30.2345C20.8143 31.2236 20.12 32.0988 19.2692 32.8042L19.2672 32.8062C17.8408 33.9806 16.0513 34.6242 14.2036 34.6271V34.6271ZM8.63562 22.0445C8.62184 22.0667 8.60558 22.0874 8.58718 22.106C7.45338 23.4978 6.87607 25.2606 6.96693 27.0535C7.05779 28.8463 7.81039 30.5417 9.0791 31.8117C10.3478 33.0818 12.0425 33.8361 13.8352 33.9288C15.628 34.0215 17.3914 33.446 18.7843 32.3136C18.7958 32.302 18.8081 32.2912 18.821 32.2813C19.5971 31.6385 20.2308 30.8409 20.6814 29.9394C21.1321 29.038 21.3899 28.0526 21.4383 27.0459C21.4868 26.0393 21.3249 25.0336 20.9629 24.0931C20.6009 23.1525 20.0468 22.2978 19.336 21.5833C18.6252 20.8689 17.7732 20.3105 16.8345 19.9438C15.8958 19.5771 14.891 19.4101 13.8841 19.4535C12.8772 19.4969 11.8905 19.7497 10.9868 20.1958C10.0831 20.642 9.28234 21.2716 8.63562 22.0445V22.0445Z" fill="#332F25"/>
<path d="M13.1636 35.6672C11.5275 35.6673 9.93137 35.1618 8.59362 34.22C7.25588 33.2781 6.24186 31.9458 5.69037 30.4055C5.13887 28.8652 5.07684 27.1921 5.51275 25.6152C5.94867 24.0383 6.86122 22.6346 8.12555 21.5962C8.19168 21.542 8.27563 21.5143 8.36103 21.5186C8.44644 21.5229 8.5272 21.5588 8.58758 21.6194C8.64796 21.6799 8.68364 21.7608 8.68768 21.8462C8.69172 21.9316 8.66384 22.0155 8.60945 22.0814C7.46605 23.4719 6.88071 25.2379 6.96733 27.036C7.05394 28.8341 7.80631 30.5357 9.07806 31.8098C10.3498 33.0839 12.05 33.8394 13.848 33.9294C15.6459 34.0193 17.413 33.4372 18.8056 32.2964C18.8717 32.2422 18.9557 32.2145 19.0411 32.2188C19.1266 32.2231 19.2074 32.2591 19.2677 32.3197C19.3281 32.3803 19.3637 32.4613 19.3677 32.5467C19.3716 32.6322 19.3436 32.716 19.2891 32.782C18.5447 33.6856 17.6092 34.413 16.5501 34.9119C15.4909 35.4108 14.3343 35.6688 13.1636 35.6672ZM6.45456 24.9748C5.91323 26.2972 5.77447 27.7501 6.05571 29.1511C6.33694 30.5522 7.02564 31.8389 8.0354 32.8501C9.04515 33.8612 10.331 34.5516 11.7316 34.8347C13.1323 35.1178 14.5854 34.981 15.9086 34.4415C14.6064 34.7288 13.2528 34.6833 11.9729 34.3091C10.693 33.9348 9.52803 33.244 8.58574 32.3005C7.64344 31.3569 6.95419 30.1911 6.58169 28.9106C6.2092 27.6302 6.16548 26.2766 6.45456 24.9748V24.9748Z" fill="#332F25"/>
<path d="M14.2035 32.4037C13.0736 32.4036 11.9692 32.0685 11.0298 31.4408C10.0904 30.8131 9.35829 29.9208 8.92597 28.877C8.49365 27.8331 8.38056 26.6845 8.60102 25.5764C8.82148 24.4683 9.36558 23.4505 10.1645 22.6516C10.9634 21.8527 11.9813 21.3087 13.0895 21.0883C14.1976 20.8679 15.3462 20.981 16.39 21.4134C17.4338 21.8458 18.326 22.578 18.9537 23.5174C19.5814 24.4568 19.9164 25.5613 19.9164 26.6911C19.9147 28.2057 19.3122 29.6578 18.2412 30.7287C17.1702 31.7997 15.7181 32.4021 14.2035 32.4037V32.4037ZM14.2035 21.6672C13.2098 21.6673 12.2386 21.962 11.4124 22.514C10.5863 23.0661 9.94241 23.8508 9.56221 24.7688C9.18202 25.6868 9.08258 26.6969 9.27646 27.6714C9.47035 28.646 9.94886 29.5411 10.6515 30.2437C11.3541 30.9462 12.2493 31.4247 13.2238 31.6185C14.1983 31.8123 15.2085 31.7128 16.1264 31.3326C17.0444 30.9523 17.829 30.3084 18.381 29.4822C18.9331 28.656 19.2277 27.6847 19.2277 26.6911C19.2262 25.3591 18.6964 24.0821 17.7545 23.1402C16.8125 22.1984 15.5355 21.6686 14.2035 21.6672V21.6672Z" fill="#332F25"/>
<path d="M27.4129 21.4177C25.9109 21.4181 24.4395 20.9923 23.1699 20.1897C21.9003 19.387 20.8846 18.2405 20.2408 16.8835C19.597 15.5264 19.3515 14.0145 19.533 12.5234C19.7144 11.0324 20.3154 9.62346 21.2659 8.46042C21.2746 8.44587 21.2845 8.43203 21.2954 8.41905C22.0002 7.56776 22.875 6.87298 23.8637 6.37918C24.8525 5.88538 25.9334 5.60345 27.0374 5.55141C28.1413 5.49937 29.244 5.67838 30.2748 6.07698C31.3056 6.47559 32.2418 7.085 33.0236 7.86623C33.8053 8.64746 34.4154 9.58329 34.8146 10.6138C35.2139 11.6444 35.3937 12.7469 35.3424 13.8509C35.2911 14.9549 35.0098 16.036 34.5167 17.0251C34.0236 18.0142 33.3294 18.8894 32.4785 19.5947L32.4762 19.5971C31.0499 20.7715 29.2605 21.415 27.4129 21.4177V21.4177ZM21.8446 8.83603C21.8308 8.8579 21.8147 8.87819 21.7965 8.89656C20.6627 10.2883 20.0854 12.0511 20.1763 13.8439C20.2671 15.6367 21.0196 17.3321 22.2883 18.6021C23.5569 19.8721 25.2515 20.6265 27.0442 20.7193C28.8369 20.8121 30.6003 20.2367 31.9933 19.1044C32.0049 19.0928 32.0173 19.0819 32.0303 19.0718C32.8065 18.429 33.4402 17.6314 33.891 16.73C34.3417 15.8285 34.5995 14.843 34.648 13.8363C34.6965 12.8296 34.5345 11.8238 34.1725 10.8832C33.8104 9.94263 33.2563 9.08786 32.5454 8.37345C31.8345 7.65903 30.9824 7.10068 30.0436 6.73404C29.1048 6.3674 28.0999 6.20052 27.0929 6.24405C26.086 6.28758 25.0992 6.54056 24.1956 6.98685C23.2919 7.43314 22.4912 8.06293 21.8446 8.83603H21.8446Z" fill="#332F25"/>
<path d="M26.3729 22.4578C24.7367 22.458 23.1405 21.9526 21.8027 21.0108C20.4649 20.0689 19.4509 18.7366 18.8993 17.1963C18.3478 15.6559 18.2858 13.9828 18.7218 12.4058C19.1578 10.8288 20.0704 9.42516 21.3348 8.38685C21.401 8.33264 21.4849 8.30499 21.5703 8.30927C21.6557 8.31355 21.7365 8.34948 21.7969 8.41002C21.8572 8.47057 21.8929 8.55142 21.897 8.63683C21.901 8.72224 21.8731 8.80611 21.8187 8.87209C20.6754 10.2625 20.0901 12.0285 20.1767 13.8265C20.2633 15.6246 21.0156 17.3262 22.2873 18.6003C23.5589 19.8744 25.2591 20.6299 27.0569 20.7199C28.8548 20.81 30.6219 20.2281 32.0145 19.0874C32.0807 19.0331 32.1647 19.0055 32.2501 19.0098C32.3356 19.0141 32.4163 19.0501 32.4767 19.1107C32.5371 19.1713 32.5727 19.2522 32.5767 19.3377C32.5806 19.4231 32.5526 19.507 32.4981 19.5729C31.7537 20.4765 30.8183 21.2038 29.7592 21.7027C28.7 22.2015 27.5436 22.4594 26.3729 22.4578V22.4578ZM19.6635 11.7657C19.1223 13.0882 18.9837 14.5411 19.265 15.9421C19.5463 17.343 20.235 18.6298 21.2448 19.6408C22.2546 20.6519 23.5404 21.3422 24.941 21.6253C26.3416 21.9084 27.7947 21.7717 29.1178 21.2321C27.8157 21.5196 26.462 21.4741 25.1821 21.0999C23.9022 20.7258 22.7372 20.035 21.7949 19.0915C20.8525 18.1479 20.1633 16.9821 19.7907 15.7016C19.4182 14.4212 19.3745 13.0675 19.6635 11.7657Z" fill="#332F25"/>
<path d="M27.4131 19.1946C26.2832 19.1946 25.1787 18.8596 24.2393 18.2319C23.2998 17.6042 22.5675 16.712 22.1351 15.6681C21.7027 14.6243 21.5895 13.4756 21.8099 12.3675C22.0303 11.2593 22.5744 10.2414 23.3733 9.44239C24.1722 8.64342 25.1901 8.09931 26.2983 7.87885C27.4065 7.65839 28.5551 7.77148 29.599 8.20383C30.6429 8.63619 31.5351 9.36838 32.1628 10.3078C32.7906 11.2473 33.1257 12.3518 33.1257 13.4816C33.124 14.9962 32.5217 16.4483 31.4507 17.5193C30.3798 18.5903 28.9277 19.1928 27.4131 19.1946V19.1946ZM27.4131 8.45774C26.4194 8.4577 25.4481 8.75233 24.6218 9.30437C23.7956 9.85641 23.1516 10.6411 22.7713 11.5591C22.391 12.4771 22.2915 13.4873 22.4854 14.4619C22.6792 15.4365 23.1577 16.3317 23.8604 17.0344C24.563 17.737 25.4583 18.2155 26.4328 18.4094C27.4074 18.6032 28.4176 18.5037 29.3357 18.1234C30.2537 17.7431 31.0384 17.0992 31.5904 16.2729C32.1424 15.4467 32.4371 14.4753 32.437 13.4816C32.4355 12.1497 31.9057 10.8727 30.9639 9.93085C30.0221 8.98901 28.7451 8.45923 27.4131 8.45774Z" fill="#332F25"/>
<path d="M13.3722 40.905C10.7272 40.8997 8.14299 40.1117 5.94508 38.6402C3.74716 37.1688 2.0339 35.0798 1.02114 32.6363C0.00838411 30.1929 -0.258558 27.5044 0.253944 24.9096C0.766445 22.3147 2.03546 19.9296 3.90111 18.0546L9.65943 12.2963L9.07566 11.7173C9.03263 11.6746 9.00161 11.6214 8.98574 11.5629C8.96987 11.5045 8.96971 11.4429 8.98527 11.3844C9.00082 11.3258 9.03155 11.2724 9.07435 11.2296C9.11714 11.1867 9.1705 11.1559 9.22901 11.1403L13.8309 9.90278C13.8893 9.88709 13.9508 9.88706 14.0092 9.90269C14.0676 9.91831 14.1209 9.94903 14.1637 9.99177C14.2064 10.0345 14.2372 10.0878 14.2529 10.1462C14.2685 10.2046 14.2685 10.2661 14.2529 10.3245L13.0225 14.9267C13.0069 14.985 12.9763 15.0383 12.9337 15.0811C12.8911 15.1238 12.838 15.1547 12.7797 15.1705C12.7213 15.1857 12.66 15.1856 12.6017 15.1701C12.5434 15.1546 12.4902 15.1243 12.4471 15.082L11.6777 14.318L5.92445 20.071C3.94891 22.0465 2.83904 24.7258 2.83901 27.5196C2.83898 30.3134 3.94879 32.9928 5.92428 34.9683C7.89977 36.9439 10.5791 38.0537 13.3729 38.0538C16.1667 38.0538 18.8461 36.944 20.8216 34.9685L27.1099 28.6802C27.1636 28.6266 27.2334 28.5923 27.3086 28.5824C27.3838 28.5726 27.4602 28.5878 27.5258 28.6258C27.5915 28.6638 27.6427 28.7224 27.6717 28.7925C27.7006 28.8626 27.7056 28.9402 27.6859 29.0135L27.3046 30.4278L28.9295 29.9914C29.0027 29.9717 29.0804 29.9767 29.1504 30.0057C29.2205 30.0346 29.2791 30.0859 29.317 30.1516C29.355 30.2172 29.3702 30.2936 29.3603 30.3687C29.3504 30.4439 29.316 30.5137 29.2624 30.5674L22.8382 36.9918C21.5959 38.2354 20.1201 39.2213 18.4956 39.8928C16.8712 40.5644 15.13 40.9084 13.3722 40.905V40.905ZM9.98595 11.6504L10.3898 12.0508C10.422 12.0828 10.4476 12.1207 10.4651 12.1626C10.4826 12.2044 10.4916 12.2493 10.4917 12.2946C10.4918 12.3399 10.4829 12.3849 10.4656 12.4268C10.4483 12.4687 10.4229 12.5067 10.3908 12.5388L4.38804 18.5416C3.20599 19.7205 2.26794 21.1209 1.62754 22.6626C0.987136 24.2044 0.656933 25.8572 0.65583 27.5267C0.654727 29.1962 0.98275 30.8495 1.62112 32.3921C2.25948 33.9347 3.19568 35.3363 4.37617 36.5168C5.55665 37.6972 6.95827 38.6335 8.50086 39.2718C10.0435 39.9102 11.6968 40.2382 13.3662 40.2371C15.0357 40.236 16.6885 39.9058 18.2303 39.2654C19.772 38.625 21.1724 37.6869 22.3514 36.5049L27.8659 30.99L26.9059 31.2479C26.8474 31.2636 26.7859 31.2636 26.7274 31.248C26.6689 31.2323 26.6156 31.2015 26.5729 31.1587C26.5301 31.1159 26.4993 31.0626 26.4837 31.0041C26.4681 30.9456 26.4682 30.884 26.4839 30.8256L26.6853 30.0787L21.3087 35.4554C19.2024 37.5523 16.3503 38.7281 13.3782 38.7248C10.406 38.7215 7.5566 37.5393 5.45501 35.4377C3.35342 33.336 2.17132 30.4866 2.16807 27.5144C2.16481 24.5423 3.34068 21.6903 5.43766 19.584L11.4337 13.5883C11.4981 13.5237 11.5855 13.4874 11.6767 13.4873C11.7679 13.4872 11.8554 13.5233 11.92 13.5876L12.5105 14.1744L13.4329 10.7232L9.98595 11.6504Z" fill="#332F25"/>
<path d="M29.6311 13.8167H25.2142C25.169 13.8167 25.1242 13.8078 25.0824 13.7905C25.0406 13.7732 25.0027 13.7478 24.9707 13.7159C24.9387 13.6839 24.9133 13.6459 24.896 13.6041C24.8787 13.5623 24.8698 13.5175 24.8699 13.4723V10.954C24.8698 10.9087 24.8787 10.8639 24.896 10.8222C24.9133 10.7804 24.9387 10.7424 24.9707 10.7104C25.0027 10.6784 25.0406 10.6531 25.0824 10.6358C25.1242 10.6185 25.169 10.6096 25.2142 10.6096H29.6311C29.6764 10.6096 29.7212 10.6185 29.763 10.6358C29.8047 10.6531 29.8427 10.6784 29.8747 10.7104C29.9067 10.7424 29.932 10.7804 29.9493 10.8222C29.9666 10.8639 29.9755 10.9087 29.9755 10.954V11.8474H29.2868V11.2983H25.5585V13.128H29.6311L29.6311 13.8167Z" fill="#332F25"/>
<path d="M29.6311 16.3349H25.2142C25.169 16.335 25.1242 16.3261 25.0824 16.3088C25.0406 16.2915 25.0027 16.2661 24.9707 16.2341C24.9387 16.2022 24.9133 16.1642 24.896 16.1224C24.8787 16.0806 24.8698 16.0358 24.8699 15.9906V15.0971H25.5585V15.6463H29.2868V13.8166H25.2142V13.1279H29.6311C29.6764 13.1279 29.7212 13.1368 29.763 13.1541C29.8047 13.1714 29.8427 13.1967 29.8747 13.2287C29.9067 13.2607 29.932 13.2987 29.9493 13.3405C29.9666 13.3822 29.9755 13.427 29.9755 13.4723V15.9906C29.9755 16.0358 29.9666 16.0806 29.9493 16.1224C29.932 16.1642 29.9067 16.2022 29.8747 16.2342C29.8427 16.2661 29.8047 16.2915 29.7629 16.3088C29.7211 16.3261 29.6764 16.335 29.6311 16.3349V16.3349Z" fill="#332F25"/>
<path d="M27.7668 9.70129H27.0781V10.9539H27.7668V9.70129Z" fill="#332F25"/>
<path d="M27.7668 15.9906H27.0781V17.2432H27.7668V15.9906Z" fill="#332F25"/>
</svg>
