<svg width="40" height="41" viewBox="0 0 40 41" fill="none" xmlns="http://www.w3.org/2000/svg">
<path d="M13.382 38.737C11.1649 38.7352 8.998 38.0767 7.15486 36.8445C5.31173 35.6122 3.87496 33.8616 3.02594 31.8135C2.17692 29.7654 1.95371 27.5117 2.38448 25.3368C2.81524 23.162 3.88068 21.1635 5.44629 19.5937L11.4424 13.5979C11.5068 13.5334 11.5942 13.4971 11.6853 13.497C11.7765 13.4968 11.864 13.5329 11.9286 13.5973L12.5191 14.1841L13.1002 12.0054C13.1157 11.9468 13.1465 11.8935 13.1893 11.8507L18.6756 6.36439C20.7823 4.26949 23.6337 3.09543 26.6047 3.09962C29.5757 3.10381 32.4238 4.28592 34.5246 6.38676C36.6254 8.4876 37.8074 11.3357 37.8115 14.3067C37.8157 17.2777 36.6415 20.1291 34.5466 22.2358L29.2577 27.5247C29.1874 27.5805 29.1028 27.6154 29.0136 27.6256C28.9683 27.6255 28.9234 27.6165 28.8816 27.5991C28.8397 27.5817 28.8017 27.5561 28.7698 27.524L28.2402 26.9903L27.6947 29.0224C27.679 29.0808 27.6483 29.134 27.6056 29.1768L21.3173 35.4651C20.2767 36.5081 19.0395 37.3343 17.6774 37.8959C16.3153 38.4575 14.8553 38.7434 13.382 38.737ZM11.6865 14.3277L5.93321 20.0806C3.95768 22.0561 2.84783 24.7355 2.84779 27.5293C2.84776 30.3231 3.95755 33.0025 5.93304 34.978C7.90854 36.9535 10.5879 38.0634 13.3817 38.0634C16.1755 38.0635 18.8549 36.9537 20.8304 34.9782L27.0535 28.7551L27.73 26.2337C27.7457 26.1752 27.7765 26.1219 27.8194 26.0791C27.8622 26.0363 27.9156 26.0056 27.9741 25.99C28.0326 25.9744 28.0942 25.9745 28.1527 25.9903C28.2111 26.0062 28.2644 26.0371 28.3071 26.0801L29.0152 26.7933L34.0597 21.7489C35.0378 20.7707 35.8137 19.6094 36.3431 18.3314C36.8725 17.0533 37.1449 15.6835 37.1449 14.3002C37.1449 12.9168 36.8724 11.547 36.343 10.269C35.8136 8.99094 35.0377 7.82968 34.0595 6.85151C33.0813 5.87335 31.92 5.09744 30.642 4.56807C29.3639 4.0387 27.9941 3.76625 26.6108 3.76626C25.2274 3.76628 23.8576 4.03876 22.5796 4.56816C21.3015 5.09756 20.1403 5.87349 19.1621 6.85168L13.7417 12.2724L13.0312 14.9364C13.0156 14.9947 12.985 15.048 12.9424 15.0908C12.8998 15.1335 12.8467 15.1644 12.7884 15.1802C12.7301 15.1955 12.6687 15.1953 12.6105 15.1798C12.5522 15.1643 12.4989 15.134 12.4558 15.0917L11.6865 14.3277Z" fill="#332F25"/>
<path d="M26.8253 31.2694C26.7724 31.2694 26.7203 31.2572 26.6729 31.2338C26.6255 31.2104 26.5841 31.1764 26.5519 31.1344C26.5198 31.0924 26.4977 31.0436 26.4875 30.9918C26.4772 30.9399 26.479 30.8863 26.4927 30.8353L27.7302 26.2337C27.7459 26.1752 27.7767 26.1219 27.8195 26.0791C27.8624 26.0363 27.9158 26.0056 27.9743 25.99C28.0328 25.9744 28.0944 25.9745 28.1528 25.9903C28.2113 26.0061 28.2646 26.0371 28.3072 26.0801L29.0154 26.7933L34.0598 21.7489C36.0353 19.7733 37.1451 17.094 37.1451 14.3002C37.1451 11.5064 36.0352 8.827 34.0597 6.85151C32.0841 4.87602 29.4048 3.76623 26.611 3.76626C23.8172 3.76629 21.1378 4.87614 19.1623 6.85168L13.6763 12.3376C13.6227 12.3912 13.5529 12.4257 13.4778 12.4356C13.4026 12.4455 13.3263 12.4303 13.2607 12.3924C13.195 12.3545 13.1437 12.296 13.1147 12.2259C13.0857 12.1559 13.0807 12.0783 13.1003 12.0051L13.4416 10.7329L11.6732 11.2098C11.5999 11.2294 11.5223 11.2244 11.4522 11.1954C11.3822 11.1664 11.3237 11.1151 11.2857 11.0495C11.2478 10.9839 11.2326 10.9075 11.2424 10.8324C11.2523 10.7572 11.2867 10.6874 11.3403 10.6338L17.146 4.82838C19.6597 2.32474 23.064 0.92074 26.6118 0.924568C30.1596 0.928397 33.5609 2.33973 36.0691 4.84879C38.5774 7.35785 39.9876 10.7596 39.9903 14.3074C39.993 17.8552 38.5879 21.2591 36.0835 23.7719L36.0832 23.7723L31.0377 28.8177L31.6713 29.4512C31.7141 29.494 31.7448 29.5473 31.7605 29.6058C31.7761 29.6642 31.7761 29.7258 31.7604 29.7842C31.7447 29.8427 31.7138 29.8959 31.671 29.9387C31.6281 29.9814 31.5748 30.0121 31.5163 30.0276L26.9147 31.2577C26.8856 31.2656 26.8555 31.2695 26.8253 31.2694V31.2694ZM28.2403 26.9903L27.3135 30.4375L30.7617 29.5158L30.3074 29.0611C30.2754 29.0291 30.25 28.9912 30.2327 28.9494C30.2154 28.9077 30.2065 28.8629 30.2065 28.8176C30.2065 28.7724 30.2154 28.7277 30.2327 28.6859C30.25 28.6441 30.2754 28.6062 30.3074 28.5742L35.5959 23.2856C36.7759 22.1062 37.712 20.7059 38.3507 19.1646C38.9895 17.6234 39.3185 15.9714 39.3188 14.3031C39.3192 12.6347 38.9909 10.9826 38.3527 9.44111C37.7146 7.89961 36.7791 6.4989 35.5996 5.31895C34.4202 4.13899 33.0198 3.20291 31.4786 2.56414C29.9374 1.92537 28.2854 1.59642 26.617 1.59608C24.9487 1.59573 23.2966 1.924 21.7551 2.56214C20.2136 3.20028 18.8129 4.13579 17.6329 5.31525L12.7388 10.2094L13.8398 9.91244C13.8982 9.89675 13.9597 9.89671 14.0181 9.91233C14.0766 9.92795 14.1298 9.95869 14.1726 10.0014C14.2154 10.0442 14.2461 10.0974 14.2618 10.1558C14.2775 10.2142 14.2775 10.2757 14.2618 10.3341L14.0991 10.9411L18.6757 6.36445C20.7824 4.26955 23.6339 3.09549 26.6049 3.09968C29.5759 3.10387 32.424 4.28598 34.5248 6.38682C36.6255 8.48766 37.8076 11.3358 37.8117 14.3068C37.8158 17.2778 36.6417 20.1292 34.5467 22.2358L29.2579 27.5247C29.1876 27.5805 29.103 27.6155 29.0138 27.6256C28.9684 27.6255 28.9236 27.6166 28.8817 27.5991C28.8399 27.5817 28.8019 27.5562 28.77 27.524L28.2403 26.9903Z" fill="#332F25"/>
<path d="M13.382 38.737C11.1649 38.7352 8.998 38.0767 7.15486 36.8445C5.31173 35.6122 3.87496 33.8616 3.02594 31.8135C2.17692 29.7654 1.95371 27.5117 2.38448 25.3368C2.81524 23.162 3.88068 21.1635 5.44629 19.5937L11.4424 13.5979C11.5068 13.5334 11.5942 13.4971 11.6853 13.497C11.7765 13.4968 11.864 13.5329 11.9286 13.5973L12.5191 14.1841L13.1002 12.0054C13.1157 11.9468 13.1465 11.8935 13.1893 11.8507L18.6756 6.36439C20.7823 4.26949 23.6337 3.09543 26.6047 3.09962C29.5757 3.10381 32.4238 4.28592 34.5246 6.38676C36.6254 8.4876 37.8074 11.3357 37.8115 14.3067C37.8157 17.2777 36.6415 20.1291 34.5466 22.2358L29.2577 27.5247C29.1874 27.5805 29.1028 27.6154 29.0136 27.6256C28.9683 27.6255 28.9234 27.6165 28.8816 27.5991C28.8397 27.5817 28.8017 27.5561 28.7698 27.524L28.2402 26.9903L27.6947 29.0224C27.679 29.0808 27.6483 29.134 27.6056 29.1768L21.3173 35.4651C20.2767 36.5081 19.0395 37.3343 17.6774 37.8959C16.3153 38.4575 14.8553 38.7434 13.382 38.737ZM11.6865 14.3277L5.93321 20.0806C3.95768 22.0561 2.84783 24.7355 2.84779 27.5293C2.84776 30.3231 3.95755 33.0025 5.93304 34.978C7.90854 36.9535 10.5879 38.0634 13.3817 38.0634C16.1755 38.0635 18.8549 36.9537 20.8304 34.9782L27.0535 28.7551L27.73 26.2337C27.7457 26.1752 27.7765 26.1219 27.8194 26.0791C27.8622 26.0363 27.9156 26.0056 27.9741 25.99C28.0326 25.9744 28.0942 25.9745 28.1527 25.9903C28.2111 26.0062 28.2644 26.0371 28.3071 26.0801L29.0152 26.7933L34.0597 21.7489C35.0378 20.7707 35.8137 19.6094 36.3431 18.3314C36.8725 17.0533 37.1449 15.6835 37.1449 14.3002C37.1449 12.9168 36.8724 11.547 36.343 10.269C35.8136 8.99094 35.0377 7.82968 34.0595 6.85151C33.0813 5.87335 31.92 5.09744 30.642 4.56807C29.3639 4.0387 27.9941 3.76625 26.6108 3.76626C25.2274 3.76628 23.8576 4.03876 22.5796 4.56816C21.3015 5.09756 20.1403 5.87349 19.1621 6.85168L13.7417 12.2724L13.0312 14.9364C13.0156 14.9947 12.985 15.048 12.9424 15.0908C12.8998 15.1335 12.8467 15.1644 12.7884 15.1802C12.7301 15.1955 12.6687 15.1953 12.6105 15.1798C12.5522 15.1643 12.4989 15.134 12.4558 15.0917L11.6865 14.3277Z" fill="#332F25"/>
<path d="M14.2124 34.637C12.7105 34.6373 11.2394 34.2115 9.96994 33.4089C8.70047 32.6064 7.6848 31.4601 7.04093 30.1032C6.39707 28.7464 6.15145 27.2347 6.33261 25.7438C6.51376 24.2528 7.11426 22.8439 8.06433 21.6808C8.07334 21.6657 8.08358 21.6514 8.09494 21.6381C8.79975 20.7868 9.67452 20.092 10.6633 19.5982C11.652 19.1045 12.733 18.8225 13.837 18.7705C14.9409 18.7185 16.0436 18.8975 17.0744 19.2962C18.1052 19.6948 19.0415 20.3042 19.8232 21.0855C20.6049 21.8667 21.2149 22.8026 21.6142 23.8331C22.0135 24.8637 22.1932 25.9662 22.1419 27.0702C22.0906 28.1742 21.8094 29.2554 21.3162 30.2444C20.823 31.2335 20.1288 32.1087 19.278 32.8141L19.276 32.8161C17.8496 33.9905 16.0601 34.6341 14.2124 34.637V34.637ZM8.6444 22.0544C8.63063 22.0766 8.61437 22.0973 8.59597 22.1159C7.46216 23.5077 6.88485 25.2705 6.97572 27.0633C7.06658 28.8562 7.81917 30.5516 9.08789 31.8216C10.3566 33.0916 12.0513 33.846 13.844 33.9387C15.6368 34.0313 17.4002 33.4558 18.7931 32.3235C18.8046 32.3119 18.8168 32.3011 18.8298 32.2912C19.6059 31.6483 20.2396 30.8508 20.6902 29.9493C21.1409 29.0479 21.3987 28.0624 21.4471 27.0558C21.4956 26.0492 21.3337 25.0435 20.9717 24.1029C20.6097 23.1624 20.0556 22.3076 19.3448 21.5932C18.634 20.8788 17.782 20.3204 16.8433 19.9537C15.9046 19.587 14.8997 19.42 13.8929 19.4634C12.886 19.5068 11.8993 19.7596 10.9956 20.2057C10.0919 20.6518 9.29113 21.2814 8.6444 22.0544V22.0544Z" fill="#332F25"/>
<path d="M13.1723 35.6769C11.5363 35.677 9.94016 35.1715 8.60241 34.2296C7.26467 33.2877 6.25065 31.9555 5.69915 30.4152C5.14766 28.8748 5.08563 27.2017 5.52154 25.6248C5.95746 24.0479 6.87001 22.6442 8.13434 21.6059C8.20047 21.5516 8.28442 21.524 8.36982 21.5283C8.45523 21.5325 8.53599 21.5685 8.59637 21.629C8.65675 21.6896 8.69243 21.7704 8.69647 21.8558C8.70051 21.9412 8.67263 22.0251 8.61824 22.0911C7.47484 23.4815 6.8895 25.2476 6.97612 27.0457C7.06273 28.8438 7.8151 30.5454 9.08685 31.8195C10.3586 33.0936 12.0588 33.8491 13.8567 33.939C15.6547 34.0289 17.4218 33.4469 18.8143 32.306C18.8805 32.2518 18.9645 32.2241 19.0499 32.2284C19.1354 32.2328 19.2161 32.2687 19.2765 32.3294C19.3369 32.39 19.3725 32.4709 19.3765 32.5564C19.3804 32.6418 19.3524 32.7257 19.2979 32.7916C18.5535 33.6953 17.618 34.4227 16.5589 34.9216C15.4997 35.4204 14.3431 35.6784 13.1723 35.6769ZM6.46334 24.9844C5.92202 26.3069 5.78326 27.7598 6.0645 29.1608C6.34573 30.5618 7.03443 31.8486 8.04419 32.8597C9.05394 33.8708 10.3398 34.5612 11.7404 34.8444C13.1411 35.1275 14.5941 34.9907 15.9173 34.4511C14.6152 34.7385 13.2616 34.6929 11.9817 34.3187C10.7017 33.9445 9.53682 33.2537 8.59452 32.3101C7.65223 31.3665 6.96298 30.2007 6.59048 28.9203C6.21799 27.6399 6.17427 26.2862 6.46334 24.9844V24.9844Z" fill="#332F25"/>
<path d="M14.2123 32.4135C13.0824 32.4134 11.978 32.0783 11.0386 31.4506C10.0992 30.8228 9.36708 29.9306 8.93476 28.8868C8.50244 27.8429 8.38935 26.6943 8.60981 25.5862C8.83027 24.4781 9.37437 23.4602 10.1733 22.6613C10.9722 21.8625 11.9901 21.3184 13.0983 21.098C14.2064 20.8776 15.355 20.9908 16.3988 21.4232C17.4426 21.8555 18.3348 22.5877 18.9625 23.5272C19.5902 24.4666 19.9252 25.5711 19.9252 26.7009C19.9235 28.2155 19.321 29.6675 18.25 30.7385C17.179 31.8094 15.7269 32.4118 14.2123 32.4135V32.4135ZM14.2123 21.677C13.2186 21.677 12.2473 21.9717 11.4212 22.5238C10.5951 23.0759 9.9512 23.8605 9.571 24.7785C9.19081 25.6965 9.09137 26.7067 9.28525 27.6812C9.47914 28.6557 9.95765 29.5509 10.6603 30.2534C11.3629 30.956 12.2581 31.4345 13.2326 31.6283C14.2071 31.8221 15.2172 31.7226 16.1352 31.3423C17.0532 30.9621 17.8378 30.3181 18.3898 29.492C18.9419 28.6658 19.2365 27.6945 19.2365 26.7009C19.235 25.3689 18.7052 24.0918 17.7632 23.15C16.8213 22.2081 15.5443 21.6784 14.2123 21.677V21.677Z" fill="#332F25"/>
<path d="M27.4217 21.4273C25.9197 21.4278 24.4483 21.0019 23.1787 20.1993C21.9091 19.3967 20.8934 18.2502 20.2496 16.8931C19.6058 15.536 19.3603 14.0241 19.5418 12.5331C19.7232 11.042 20.3241 9.63311 21.2746 8.47006C21.2834 8.45551 21.2933 8.44168 21.3042 8.4287C22.009 7.5774 22.8838 6.88263 23.8725 6.38883C24.8613 5.89503 25.9422 5.61309 27.0462 5.56105C28.1501 5.50902 29.2528 5.68802 30.2836 6.08663C31.3144 6.48523 32.2506 7.09465 33.0324 7.87587C33.8141 8.6571 34.4241 9.59294 34.8234 10.6235C35.2227 11.654 35.4025 12.7566 35.3512 13.8606C35.2998 14.9645 35.0186 16.0457 34.5255 17.0347C34.0323 18.0238 33.3381 18.899 32.4873 19.6044L32.4849 19.6067C31.0587 20.7812 29.2693 21.4246 27.4217 21.4273V21.4273ZM21.8534 8.84567C21.8396 8.86754 21.8235 8.88784 21.8053 8.90621C20.6715 10.298 20.0942 12.0607 20.185 13.8535C20.2759 15.6463 21.0284 17.3417 22.297 18.6118C23.5657 19.8818 25.2603 20.6362 27.053 20.7289C28.8457 20.8217 30.6091 20.2463 32.0021 19.1141C32.0137 19.1024 32.026 19.0915 32.0391 19.0815C32.8153 18.4387 33.449 17.6411 33.8998 16.7396C34.3505 15.8381 34.6083 14.8526 34.6568 13.8459C34.7052 12.8392 34.5433 11.8335 34.1813 10.8929C33.8192 9.95228 33.2651 9.0975 32.5542 8.38309C31.8432 7.66868 30.9912 7.11033 30.0524 6.74369C29.1136 6.37704 28.1086 6.21017 27.1017 6.25369C26.0948 6.29722 25.108 6.5502 24.2043 6.99649C23.3007 7.44278 22.5 8.07258 21.8534 8.84567H21.8534Z" fill="#332F25"/>
<path d="M26.3816 22.4676C24.7455 22.4678 23.1493 21.9624 21.8115 21.0205C20.4737 20.0787 19.4596 18.7464 18.9081 17.206C18.3566 15.6657 18.2946 13.9925 18.7306 12.4156C19.1666 10.8386 20.0792 9.43492 21.3436 8.39661C21.4098 8.34241 21.4937 8.31475 21.5791 8.31904C21.6645 8.32332 21.7453 8.35924 21.8057 8.41979C21.866 8.48034 21.9017 8.56118 21.9058 8.6466C21.9098 8.73201 21.8819 8.81587 21.8275 8.88186C20.6842 10.2723 20.0989 12.0383 20.1855 13.8363C20.2721 15.6344 21.0244 17.3359 22.2961 18.61C23.5677 19.8841 25.2678 20.6397 27.0657 20.7297C28.8636 20.8197 30.6307 20.2378 32.0233 19.0971C32.0895 19.0429 32.1735 19.0152 32.2589 19.0196C32.3443 19.0239 32.4251 19.0598 32.4855 19.1204C32.5458 19.1811 32.5815 19.262 32.5854 19.3474C32.5894 19.4329 32.5614 19.5168 32.5069 19.5827C31.7625 20.4863 30.8271 21.2136 29.768 21.7124C28.7088 22.2113 27.5523 22.4692 26.3816 22.4676V22.4676ZM19.6723 11.7755C19.1311 13.098 18.9925 14.5508 19.2738 15.9518C19.5551 17.3528 20.2438 18.6395 21.2536 19.6506C22.2634 20.6616 23.5492 21.352 24.9498 21.6351C26.3504 21.9182 27.8034 21.7814 29.1266 21.2419C27.8245 21.5293 26.4708 21.4838 25.1909 21.1097C23.9109 20.7355 22.746 20.0448 21.8036 19.1012C20.8613 18.1577 20.172 16.9918 19.7995 15.7114C19.427 14.431 19.3833 13.0773 19.6723 11.7755Z" fill="#332F25"/>
<path d="M27.4219 19.2043C26.292 19.2044 25.1875 18.8693 24.248 18.2416C23.3086 17.6139 22.5763 16.7217 22.1439 15.6779C21.7115 14.634 21.5983 13.4854 21.8187 12.3772C22.0391 11.2691 22.5832 10.2511 23.3821 9.45215C24.181 8.65319 25.1989 8.10908 26.3071 7.88862C27.4152 7.66816 28.5639 7.78124 29.6078 8.2136C30.6517 8.64595 31.5439 9.37815 32.1716 10.3176C32.7994 11.257 33.1345 12.3615 33.1345 13.4914C33.1328 15.006 32.5305 16.4581 31.4595 17.5291C30.3886 18.6001 28.9365 19.2026 27.4219 19.2043V19.2043ZM27.4219 8.4675C26.4282 8.46747 25.4568 8.7621 24.6306 9.31414C23.8044 9.86618 23.1604 10.6508 22.7801 11.5689C22.3998 12.4869 22.3003 13.4971 22.4942 14.4717C22.688 15.4463 23.1665 16.3415 23.8692 17.0441C24.5718 17.7468 25.467 18.2253 26.4416 18.4191C27.4162 18.613 28.4264 18.5135 29.3445 18.1332C30.2625 17.7529 31.0471 17.1089 31.5992 16.2827C32.1512 15.4565 32.4459 14.4851 32.4458 13.4914C32.4443 12.1594 31.9145 10.8825 30.9727 9.94062C30.0308 8.99878 28.7539 8.469 27.4219 8.4675Z" fill="#332F25"/>
<path d="M13.381 40.9149C10.736 40.9096 8.15178 40.1215 5.95386 38.6501C3.75595 37.1787 2.04269 35.0896 1.02993 32.6462C0.0171732 30.2028 -0.249769 27.5143 0.262733 24.9195C0.775234 22.3246 2.04425 19.9394 3.9099 18.0645L9.66822 12.3062L9.08445 11.7271C9.04142 11.6845 9.0104 11.6313 8.99453 11.5728C8.97866 11.5144 8.9785 11.4528 8.99406 11.3942C9.00961 11.3357 9.04034 11.2823 9.08314 11.2395C9.12593 11.1966 9.17929 11.1658 9.2378 11.1502L13.8397 9.91266C13.8981 9.89698 13.9596 9.89695 14.018 9.91257C14.0764 9.92819 14.1297 9.95891 14.1724 10.0017C14.2152 10.0444 14.246 10.0977 14.2616 10.1561C14.2773 10.2145 14.2773 10.2759 14.2617 10.3344L13.0313 14.9366C13.0157 14.9949 12.9851 15.0482 12.9425 15.0909C12.8999 15.1337 12.8468 15.1646 12.7885 15.1804C12.7301 15.1956 12.6688 15.1955 12.6105 15.18C12.5522 15.1645 12.499 15.1342 12.4559 15.0919L11.6865 14.3279L5.93323 20.0809C3.9577 22.0564 2.84783 24.7357 2.8478 27.5295C2.84777 30.3233 3.95758 33.0027 5.93307 34.9782C7.90856 36.9538 10.5879 38.0636 13.3817 38.0637C16.1755 38.0637 18.8549 36.9539 20.8304 34.9784L27.1187 28.6901C27.1724 28.6365 27.2422 28.6021 27.3174 28.5923C27.3926 28.5825 27.469 28.5977 27.5346 28.6357C27.6003 28.6737 27.6515 28.7322 27.6805 28.8023C27.7094 28.8724 27.7144 28.9501 27.6947 29.0234L27.3134 30.4377L28.9382 30.0012C29.0115 29.9815 29.0892 29.9866 29.1592 30.0155C29.2293 30.0445 29.2879 30.0958 29.3258 30.1615C29.3638 30.2271 29.379 30.3035 29.3691 30.3786C29.3592 30.4538 29.3248 30.5236 29.2712 30.5772L22.847 37.0017C21.6047 38.2453 20.1289 39.2312 18.5044 39.9027C16.8799 40.5743 15.1388 40.9183 13.381 40.9149V40.9149ZM9.99474 11.6602L10.3986 12.0607C10.4308 12.0927 10.4564 12.1306 10.4739 12.1724C10.4914 12.2143 10.5004 12.2592 10.5005 12.3045C10.5006 12.3498 10.4917 12.3947 10.4744 12.4367C10.4571 12.4786 10.4317 12.5166 10.3996 12.5487L4.39683 18.5515C3.21478 19.7304 2.27673 21.1308 1.63633 22.6725C0.995926 24.2143 0.665722 25.8671 0.664619 27.5366C0.663516 29.2061 0.991539 30.8594 1.62991 32.402C2.26827 33.9445 3.20447 35.3462 4.38496 36.5266C5.56544 37.7071 6.96706 38.6433 8.50965 39.2817C10.0522 39.9201 11.7055 40.2481 13.375 40.247C15.0445 40.2459 16.6973 39.9157 18.2391 39.2753C19.7808 38.6349 21.1812 37.6968 22.3601 36.5148L27.8747 30.9999L26.9147 31.2578C26.8562 31.2735 26.7947 31.2735 26.7362 31.2578C26.6777 31.2422 26.6244 31.2114 26.5817 31.1686C26.5389 31.1258 26.5081 31.0724 26.4925 31.014C26.4769 30.9555 26.4769 30.8939 26.4927 30.8355L26.6941 30.0886L21.3175 35.4653C19.2112 37.5622 16.3591 38.738 13.387 38.7347C10.4148 38.7314 7.56539 37.5492 5.4638 35.4476C3.36221 33.3459 2.18011 30.4964 2.17686 27.5243C2.1736 24.5522 3.34946 21.7001 5.44645 19.5939L11.4425 13.5982C11.5069 13.5336 11.5943 13.4973 11.6855 13.4972C11.7767 13.4971 11.8642 13.5331 11.9288 13.5975L12.5193 14.1843L13.4417 10.7331L9.99474 11.6602Z" fill="#332F25"/>
<path d="M29.6399 13.8264H25.223C25.1778 13.8264 25.133 13.8176 25.0912 13.8003C25.0494 13.783 25.0114 13.7576 24.9795 13.7256C24.9475 13.6936 24.9221 13.6557 24.9048 13.6139C24.8875 13.5721 24.8786 13.5273 24.8787 13.4821V10.9637C24.8786 10.9185 24.8875 10.8737 24.9048 10.8319C24.9221 10.7901 24.9475 10.7522 24.9795 10.7202C25.0114 10.6882 25.0494 10.6629 25.0912 10.6456C25.133 10.6283 25.1778 10.6194 25.223 10.6194H29.6399C29.6852 10.6194 29.73 10.6283 29.7717 10.6456C29.8135 10.6629 29.8515 10.6882 29.8835 10.7202C29.9155 10.7522 29.9408 10.7901 29.9581 10.8319C29.9754 10.8737 29.9843 10.9185 29.9843 10.9637V11.8572H29.2956V11.3081H25.5673V13.1377H29.6399L29.6399 13.8264Z" fill="#332F25"/>
<path d="M29.6399 16.3447H25.223C25.1778 16.3447 25.133 16.3359 25.0912 16.3186C25.0494 16.3013 25.0114 16.2759 24.9795 16.2439C24.9475 16.2119 24.9221 16.174 24.9048 16.1322C24.8875 16.0904 24.8786 16.0456 24.8787 16.0004V15.1069H25.5673V15.656H29.2956V13.8264H25.223V13.1377H29.6399C29.6852 13.1377 29.73 13.1466 29.7717 13.1638C29.8135 13.1811 29.8515 13.2065 29.8835 13.2385C29.9155 13.2705 29.9408 13.3084 29.9581 13.3502C29.9754 13.392 29.9843 13.4368 29.9843 13.482V16.0004C29.9843 16.0456 29.9754 16.0904 29.9581 16.1322C29.9408 16.174 29.9155 16.2119 29.8835 16.2439C29.8515 16.2759 29.8135 16.3013 29.7717 16.3186C29.7299 16.3359 29.6852 16.3447 29.6399 16.3447V16.3447Z" fill="#332F25"/>
<path d="M27.7756 9.71094H27.0869V10.9635H27.7756V9.71094Z" fill="#332F25"/>
<path d="M27.7756 16.0005H27.0869V17.2531H27.7756V16.0005Z" fill="#332F25"/>
</svg>
