<svg width="445" height="529" viewBox="0 0 445 529" fill="none" xmlns="http://www.w3.org/2000/svg">
<g filter="url(#filter0_b_107_7)">
<path d="M433.67 63.7004L226.783 1.56758C223.887 0.697201 220.799 0.697201 217.901 1.56758L11.0113 63.7004C4.47602 65.6629 0 71.6854 0 78.5164V306.336C0 335.968 11.9838 366.301 35.6166 396.493C53.6659 419.552 78.6379 442.706 109.836 465.315C162.247 503.293 213.857 526.591 216.029 527.564C218.036 528.464 220.189 528.915 222.342 528.915C224.496 528.915 226.649 528.465 228.656 527.564C230.827 526.591 282.436 503.293 334.847 465.315C366.045 442.706 391.016 419.552 409.066 396.493C432.699 366.302 444.681 335.969 444.681 306.336V78.5164C444.681 71.6854 440.207 65.6629 433.67 63.7004Z" fill="white" fill-opacity="0.14"/>
</g>
<path d="M116.085 351.511V154.915H234.979V176.033H139.941V242.461H202.273V263.58H139.941V330.392H179.7V351.511H116.085Z" fill="#1E1E1E"/>
<path d="M233.106 351.511V154.915H277.974C293.27 154.915 305.825 157.539 315.64 162.786C325.455 167.97 332.72 175.106 337.436 184.193C342.153 193.28 344.511 203.616 344.511 215.199C344.511 226.782 342.153 237.054 337.436 246.013C332.72 254.973 325.487 262.012 315.736 267.132C305.984 272.187 293.525 274.715 278.356 274.715H246.108V253.213H277.592C288.044 253.213 296.456 251.677 302.83 248.605C309.267 245.533 313.919 241.181 316.787 235.55C319.719 229.854 321.185 223.071 321.185 215.199C321.185 207.328 319.719 200.448 316.787 194.56C313.855 188.673 309.171 184.129 302.734 180.929C296.297 177.665 287.789 176.033 277.209 176.033H256.815V351.511H233.106ZM286.387 263.196L342.471 351.511H314.939L265.228 263.196H286.387Z" fill="#1E1E1E"/>
<defs>
<filter id="filter0_b_107_7" x="-36" y="-35.0852" width="516.681" height="600" filterUnits="userSpaceOnUse" color-interpolation-filters="sRGB">
<feFlood flood-opacity="0" result="BackgroundImageFix"/>
<feGaussianBlur in="BackgroundImage" stdDeviation="18"/>
<feComposite in2="SourceAlpha" operator="in" result="effect1_backgroundBlur_107_7"/>
<feBlend mode="normal" in="SourceGraphic" in2="effect1_backgroundBlur_107_7" result="shape"/>
</filter>
</defs>
</svg>
