<svg width="229" height="198" viewBox="0 0 229 198" fill="none" xmlns="http://www.w3.org/2000/svg">
<path d="M0.085083 197.511V0.914795H118.979V22.0335H23.9408V88.4613H86.2732V109.58H23.9408V176.392H63.7001V197.511H0.085083Z" fill="#1E1E1E"/>
<path d="M117.106 197.511V0.914795H161.974C177.27 0.914795 189.825 3.53863 199.64 8.7863C209.455 13.97 216.72 21.1055 221.436 30.193C226.153 39.2804 228.511 49.6158 228.511 61.199C228.511 72.7823 226.153 83.0537 221.436 92.0131C216.72 100.973 209.487 108.012 199.736 113.132C189.984 118.187 177.525 120.715 162.356 120.715H130.108V99.2127H161.592C172.044 99.2127 180.456 97.6768 186.83 94.605C193.267 91.5332 197.919 87.1814 200.787 81.5498C203.719 75.8541 205.185 69.0705 205.185 61.199C205.185 53.3275 203.719 46.448 200.787 40.5603C197.855 34.6727 193.171 30.129 186.734 26.9292C180.297 23.6654 171.789 22.0335 161.209 22.0335H140.815V197.511H117.106ZM170.387 109.196L226.471 197.511H198.939L149.228 109.196H170.387Z" fill="#1E1E1E"/>
</svg>
