<svg width="50" height="50" viewBox="0 0 50 50" fill="none" xmlns="http://www.w3.org/2000/svg">
<g clip-path="url(#clip0_11_293)">
<path d="M45.0336 5.94561L25.4211 0.0618164C25.1468 -0.0206055 24.8539 -0.0206055 24.5793 0.0618164L4.96661 5.94561C4.34699 6.13145 3.92267 6.70176 3.92267 7.34863V28.9225C3.92267 31.7285 5.05861 34.601 7.29894 37.4601C9.01007 39.6437 11.3773 41.8363 14.3349 43.9772C19.3033 47.5737 24.1957 49.78 24.4016 49.8721C24.592 49.9573 24.796 50 25.0001 50C25.2041 50 25.4082 49.9574 25.5986 49.8721C25.8045 49.78 30.6968 47.5737 35.6652 43.9772C38.6228 41.8363 40.99 39.6437 42.7011 37.4601C44.9414 34.6011 46.0774 31.7286 46.0774 28.9225V7.34863C46.0775 6.70176 45.6532 6.13145 45.0336 5.94561ZM43.1478 28.9225C43.1478 33.8885 38.1651 38.5449 33.9851 41.5769C30.2376 44.2949 26.4371 46.2236 25.0002 46.9165C23.5633 46.2236 19.7627 44.2949 16.0152 41.5769C11.8352 38.5449 6.85236 33.8885 6.85236 28.9225V8.43848L25.0001 2.99414L43.1478 8.43848V28.9225Z" fill="#C7A15B"/>
<path d="M13.0952 33.8744V13.0952H25.6358V15.3274H15.6114V22.3485H22.1861V24.5806H15.6114V31.6423H19.8052V33.8744H13.0952Z" fill="#C7A15B"/>
<path d="M25.46 33.8744V13.0952H30.2219C31.8452 13.0952 33.1778 13.3725 34.2194 13.9272C35.2611 14.4751 36.0322 15.2293 36.5327 16.1898C37.0333 17.1503 37.2836 18.2427 37.2836 19.467C37.2836 20.6913 37.0333 21.7769 36.5327 22.7239C36.0322 23.6708 35.2645 24.4149 34.2296 24.956C33.1947 25.4904 31.8723 25.7576 30.2625 25.7576H26.8398V23.4848H30.1813C31.2906 23.4848 32.1834 23.3225 32.8599 22.9978C33.543 22.6731 34.0368 22.2132 34.3412 21.6179C34.6523 21.0159 34.8079 20.2989 34.8079 19.467C34.8079 18.635 34.6523 17.9078 34.3412 17.2856C34.03 16.6633 33.5329 16.183 32.8497 15.8448C32.1665 15.4998 31.2635 15.3274 30.1407 15.3274H27.9762V33.8744H25.46ZM31.1147 24.54L37.0671 33.8744H34.145L28.8691 24.54H31.1147Z" fill="#C7A15B"/>
</g>
<defs>
<clipPath id="clip0_11_293">
<rect width="50" height="50" fill="white"/>
</clipPath>
</defs>
</svg>
