<svg width="42" height="42" viewBox="0 0 42 42" fill="none" xmlns="http://www.w3.org/2000/svg">
<g clip-path="url(#clip0_11_362)">
<path d="M16.0781 7.54688V8.85938H22.05C21.9616 8.42634 21.9616 7.97991 22.05 7.54688H16.0781Z" fill="#1E1E1E"/>
<path d="M19.3594 23.2969C19.1853 23.2969 19.0184 23.366 18.8953 23.4891C18.7723 23.6122 18.7031 23.7791 18.7031 23.9531V25.2656H31.8281V23.9531C31.8281 23.7791 31.759 23.6122 31.6359 23.4891C31.5128 23.366 31.3459 23.2969 31.1719 23.2969H19.3594Z" fill="#1E1E1E"/>
<path d="M16.0781 16.0781C16.0781 16.2522 16.1473 16.4191 16.2703 16.5422C16.3934 16.6652 16.5603 16.7344 16.7344 16.7344H19.3594C19.5334 16.7344 19.7003 16.6652 19.8234 16.5422C19.9465 16.4191 20.0156 16.2522 20.0156 16.0781V15.4219H16.0781V16.0781Z" fill="#1E1E1E"/>
<path d="M16.4837 14.1094H19.61L18.0469 10.983L16.4837 14.1094Z" fill="#1E1E1E"/>
<path d="M25.2656 11.4843C25.0452 11.4845 24.8254 11.4626 24.6094 11.4187V21.9843H25.9219V11.4187C25.7059 11.4626 25.486 11.4845 25.2656 11.4843Z" fill="#1E1E1E"/>
<path d="M28.5469 8.20312C28.5471 8.42352 28.5251 8.64338 28.4813 8.85938H34.4531V7.54688H28.4813C28.5251 7.76287 28.5471 7.98273 28.5469 8.20312Z" fill="#1E1E1E"/>
<path d="M37.4062 0H12.4688V31.5H37.4062C37.5803 31.5 37.7472 31.4309 37.8703 31.3078C37.9934 31.1847 38.0625 31.0178 38.0625 30.8438V0.65625C38.0625 0.482202 37.9934 0.315282 37.8703 0.192211C37.7472 0.0691404 37.5803 0 37.4062 0V0ZM35.7656 9.51562C35.7656 9.68967 35.6965 9.85659 35.5734 9.97966C35.4503 10.1027 35.2834 10.1719 35.1094 10.1719H33.5462L35.7 14.4723C35.7415 14.5646 35.7638 14.6644 35.7656 14.7656V16.0781C35.7656 16.6003 35.5582 17.101 35.189 17.4702C34.8198 17.8395 34.319 18.0469 33.7969 18.0469H31.1719C30.6497 18.0469 30.149 17.8395 29.7798 17.4702C29.4105 17.101 29.2031 16.6003 29.2031 16.0781V14.7656C29.2051 14.6644 29.2274 14.5647 29.2687 14.4723L31.4226 10.1719H27.8736C27.6911 10.4134 27.4759 10.6286 27.2344 10.8111V21.9844H31.1719C31.694 21.9844 32.1948 22.1918 32.564 22.561C32.9332 22.9302 33.1406 23.431 33.1406 23.9531V25.9219C33.1406 26.0959 33.0715 26.2628 32.9484 26.3859C32.8253 26.509 32.6584 26.5781 32.4844 26.5781H18.0469C17.8728 26.5781 17.7059 26.509 17.5828 26.3859C17.4598 26.2628 17.3906 26.0959 17.3906 25.9219V23.9531C17.3906 23.431 17.598 22.9302 17.9673 22.561C18.3365 22.1918 18.8372 21.9844 19.3594 21.9844H23.2969V10.8111C23.0553 10.6286 22.8402 10.4134 22.6577 10.1719H19.1087L21.2625 14.4723C21.3039 14.5647 21.3262 14.6644 21.3281 14.7656V16.0781C21.3281 16.6003 21.1207 17.101 20.7515 17.4702C20.3823 17.8395 19.8815 18.0469 19.3594 18.0469H16.7344C16.2122 18.0469 15.7115 17.8395 15.3423 17.4702C14.973 17.101 14.7656 16.6003 14.7656 16.0781V14.7656C14.7686 14.6642 14.792 14.5644 14.8345 14.4723L16.9851 10.1719H15.4219C15.2478 10.1719 15.0809 10.1027 14.9578 9.97966C14.8348 9.85659 14.7656 9.68967 14.7656 9.51562V6.89062C14.7656 6.71658 14.8348 6.54966 14.9578 6.42659C15.0809 6.30352 15.2478 6.23438 15.4219 6.23438H22.6577C22.9597 5.82718 23.3529 5.49638 23.8058 5.26845C24.2587 5.04052 24.7586 4.9218 25.2656 4.9218C25.7726 4.9218 26.2726 5.04052 26.7254 5.26845C27.1783 5.49638 27.5715 5.82718 27.8736 6.23438H35.1094C35.2834 6.23438 35.4503 6.30352 35.5734 6.42659C35.6965 6.54966 35.7656 6.71658 35.7656 6.89062V9.51562Z" fill="#1E1E1E"/>
<path d="M25.2656 10.1719C26.3529 10.1719 27.2344 9.29044 27.2344 8.20312C27.2344 7.11581 26.3529 6.23438 25.2656 6.23438C24.1783 6.23438 23.2969 7.11581 23.2969 8.20312C23.2969 9.29044 24.1783 10.1719 25.2656 10.1719Z" fill="#1E1E1E"/>
<path d="M30.9212 14.1094H34.0476L32.4844 10.983L30.9212 14.1094Z" fill="#1E1E1E"/>
<path d="M30.5156 16.0781C30.5156 16.2522 30.5848 16.4191 30.7078 16.5422C30.8309 16.6652 30.9978 16.7344 31.1719 16.7344H33.7969C33.9709 16.7344 34.1378 16.6652 34.2609 16.5422C34.384 16.4191 34.4531 16.2522 34.4531 16.0781V15.4219H30.5156V16.0781Z" fill="#1E1E1E"/>
<path d="M11.1562 34.125H36.0938V32.8125H11.1562C10.6341 32.8125 10.1333 33.0199 9.76413 33.3891C9.39492 33.7583 9.1875 34.2591 9.1875 34.7812C9.1875 35.3034 9.39492 35.8042 9.76413 36.1734C10.1333 36.5426 10.6341 36.75 11.1562 36.75H36.0938V35.4375H11.1562C10.9822 35.4375 10.8153 35.3684 10.6922 35.2453C10.5691 35.1222 10.5 34.9553 10.5 34.7812C10.5 34.6072 10.5691 34.4403 10.6922 34.3172C10.8153 34.1941 10.9822 34.125 11.1562 34.125Z" fill="#1E1E1E"/>
<path d="M37.4062 38.0625H11.2973C10.4644 38.0765 9.65572 37.7821 9.02675 37.2358C8.39779 36.6896 7.99295 35.9301 7.89009 35.1035C7.8451 34.6475 7.89609 34.1873 8.03976 33.7522C8.18344 33.3172 8.41662 32.9171 8.72429 32.5776C9.03197 32.2382 9.40732 31.9669 9.82617 31.7813C10.245 31.5957 10.6981 31.4999 11.1562 31.5V0C9.24172 0 7.4056 0.760545 6.05182 2.11432C4.69804 3.4681 3.9375 5.30422 3.9375 7.21875V34.7812C3.9375 36.6958 4.69804 38.5319 6.05182 39.8857C7.4056 41.2395 9.24172 42 11.1562 42H37.4062C37.5803 42 37.7472 41.9309 37.8703 41.8078C37.9934 41.6847 38.0625 41.5178 38.0625 41.3438V38.7188C38.0625 38.5447 37.9934 38.3778 37.8703 38.2547C37.7472 38.1316 37.5803 38.0625 37.4062 38.0625Z" fill="#1E1E1E"/>
</g>
<defs>
<clipPath id="clip0_11_362">
<rect width="42" height="42" fill="white"/>
</clipPath>
</defs>
</svg>
