<svg width="43" height="43" viewBox="0 0 43 43" fill="none" xmlns="http://www.w3.org/2000/svg">
<g clip-path="url(#clip0_11_476)">
<path d="M21.1795 14.764C18.8893 14.764 17.5436 10.9248 17.4282 9.22885C17.3112 7.50772 17.4202 3.69373 21.3556 3.69373C25.2899 3.69373 25.4 7.50772 25.283 9.22885C25.1643 10.9759 23.822 14.7654 21.1795 14.764Z" fill="#1E1E1E"/>
<path d="M31.7537 11.601C29.4635 11.601 28.1178 7.76181 28.0025 6.06588C27.8854 4.34476 27.9945 0.530762 31.9298 0.530762C35.8641 0.530762 35.9742 4.34476 35.8572 6.06588C35.7385 7.81291 34.3962 11.6024 31.7537 11.601Z" fill="#1E1E1E"/>
<path d="M10.8999 11.601C8.60979 11.601 7.26406 7.76181 7.14871 6.06588C7.03169 4.34476 7.14071 0.530762 11.0761 0.530762C15.0104 0.530762 15.1205 4.34476 15.0034 6.06588C14.8847 7.81291 13.5425 11.6024 10.8999 11.601Z" fill="#1E1E1E"/>
<path d="M30.1822 24.1025C29.183 24.0992 28.3705 24.9066 28.3672 25.9057C28.3664 26.1529 28.4162 26.3978 28.5138 26.6249H27.0984V22.9401C27.098 21.8485 26.2132 20.9637 25.1216 20.9633H17.8864C16.7981 20.9597 15.9131 21.839 15.9095 22.9273V22.9401V26.6249H14.4941C14.8838 25.7002 14.4498 24.6345 13.525 24.245C13.3011 24.1507 13.0606 24.1023 12.8178 24.1025H12.1852V20.7419C13.9197 18.4642 16.6206 17.1298 19.4836 17.1361H23.2159C26.2669 17.1293 29.1202 18.6449 30.8227 21.1768V24.1025H30.1822Z" fill="#1E1E1E"/>
<path d="M43 23.1773C43.0007 23.3338 42.8743 23.4612 42.7177 23.4619C42.7169 23.4619 42.7161 23.4619 42.7153 23.4619H39.0701V19.1208C39.0671 18.1176 38.2546 17.3051 37.2514 17.3021H32.6414C31.7839 17.3042 31.0434 17.9031 30.8623 18.7413C29.2108 17.078 27.0622 15.9981 24.742 15.6653C26.2968 14.5616 28.157 13.9701 30.0636 13.9732H33.7959C38.8784 13.9724 42.9992 18.0919 43 23.1744V23.1773Z" fill="#1E1E1E"/>
<path d="M18.2106 15.6337C15.9106 15.9062 13.7607 16.916 12.0824 18.512C11.8226 17.7874 11.1363 17.3034 10.3665 17.3022H5.75653C4.75022 17.305 3.93626 18.1224 3.93784 19.1288V23.462H0.284664C0.128099 23.4627 0.000692034 23.3362 1.44055e-07 23.1797C1.44055e-07 23.1789 1.44055e-07 23.1781 1.44055e-07 23.1773C-0.000889429 18.095 4.11833 13.9741 9.20076 13.9732H9.20412H12.9364C14.8238 13.9679 16.6666 14.5481 18.2106 15.6337Z" fill="#1E1E1E"/>
<path d="M29.2808 34.208L21.9903 42.2497C21.7484 42.5205 21.3328 42.5439 21.062 42.302C21.0437 42.2856 21.0262 42.2681 21.0097 42.2497L13.7192 34.208C13.5725 34.0438 13.5868 33.7918 13.7509 33.6451C13.8228 33.5808 13.9155 33.5449 14.0119 33.5438H17.499C17.4895 25.2429 17.4911 27.5807 17.4911 22.9401C17.489 22.7238 17.6626 22.5468 17.8788 22.5447H17.8865H25.1217C25.3379 22.5426 25.5149 22.7162 25.517 22.9325V22.9401C25.517 27.5918 25.5155 25.2939 25.5249 33.5438H28.9883C29.2085 33.5463 29.3849 33.7269 29.3822 33.9471C29.381 34.0434 29.345 34.1361 29.2808 34.208Z" fill="#1E1E1E"/>
<path d="M39.8766 26.0872L35.2508 31.0609C35.0959 31.2312 34.8323 31.2438 34.6619 31.0888C34.6521 31.0799 34.6428 31.0706 34.634 31.0609L30.5064 26.6249L30.0083 26.0872C29.9185 25.9892 29.9251 25.837 30.0232 25.7471C30.0667 25.7073 30.1232 25.6849 30.1822 25.684H32.4042V19.1209C32.4046 18.99 32.5105 18.8841 32.6414 18.8837H37.2514C37.381 18.8868 37.4854 18.9912 37.4886 19.1209V25.684H39.7026C39.8356 25.6859 39.9417 25.7953 39.9398 25.9282C39.9389 25.9872 39.9164 26.0437 39.8766 26.0872Z" fill="#1E1E1E"/>
<path d="M12.9917 26.0872L12.4936 26.6249L8.36596 31.0609C8.21107 31.2312 7.94746 31.2438 7.77706 31.0888C7.76727 31.0799 7.75798 31.0706 7.74919 31.0609L3.1234 26.0872C3.03366 25.9892 3.04028 25.837 3.13833 25.7471C3.18182 25.7073 3.23836 25.6849 3.29737 25.684H5.51932V19.1209C5.51972 18.99 5.62568 18.8841 5.75654 18.8837H10.3665C10.4962 18.8868 10.6006 18.9912 10.6037 19.1209V25.684H12.8178C12.9507 25.6859 13.0569 25.7953 13.0549 25.9282C13.054 25.9872 13.0316 26.0437 12.9917 26.0872Z" fill="#1E1E1E"/>
</g>
<defs>
<clipPath id="clip0_11_476">
<rect width="43" height="43" fill="white"/>
</clipPath>
</defs>
</svg>
