<svg width="42" height="42" viewBox="0 0 42 42" fill="none" xmlns="http://www.w3.org/2000/svg">
<path d="M24.537 32.0964C24.8952 31.4877 25.1016 30.7794 25.1016 30.0234C25.1016 27.7618 23.2616 25.9219 21 25.9219C18.7384 25.9219 16.8984 27.7618 16.8984 30.0234C16.8984 30.7794 17.1048 31.4877 17.463 32.0964C15.5649 32.9136 14.2324 34.8019 14.2324 36.9961V40.6875C14.2324 41.367 14.7833 41.918 15.4629 41.918H26.5371C27.2167 41.918 27.7676 41.367 27.7676 40.6875V36.9961C27.7676 34.8019 26.4351 32.9136 24.537 32.0964Z" fill="#1E1E1E"/>
<path d="M10.3866 18.5613C10.7448 17.9525 10.9512 17.2443 10.9512 16.4883C10.9512 14.2267 9.11121 12.3867 6.84961 12.3867C4.58801 12.3867 2.74805 14.2267 2.74805 16.4883C2.74805 17.2328 2.94845 17.931 3.29667 18.5336C1.36352 19.335 0 21.2414 0 23.4609V27.1523C0 27.8319 0.550922 28.3828 1.23047 28.3828H12.3867C13.0663 28.3828 13.6172 27.8319 13.6172 27.1523V23.4609C13.6172 21.2668 12.2847 19.3785 10.3866 18.5613Z" fill="#1E1E1E"/>
<path d="M38.7694 18.5613C39.1276 17.9525 39.334 17.2443 39.334 16.4883C39.334 14.2267 37.494 12.3867 35.2324 12.3867C32.9708 12.3867 31.1309 14.2267 31.1309 16.4883C31.1309 17.2328 31.3313 17.931 31.6795 18.5336C29.7463 19.335 28.3828 21.2414 28.3828 23.4609V27.1523C28.3828 27.8319 28.9337 28.3828 29.6133 28.3828H40.7695C41.4491 28.3828 42 27.8319 42 27.1523V23.4609C42 21.2668 40.6675 19.3785 38.7694 18.5613Z" fill="#1E1E1E"/>
<path d="M24.537 6.25661C24.8952 5.64785 25.1016 4.93951 25.1016 4.18359C25.1016 1.92199 23.2616 0.0820312 21 0.0820312C18.7384 0.0820312 16.8984 1.92199 16.8984 4.18359C16.8984 4.93951 17.1048 5.64785 17.463 6.25661C15.5649 7.0738 14.2324 8.96208 14.2324 11.1562V14.8477C14.2324 15.5272 14.7833 16.0781 15.4629 16.0781H26.5371C27.2167 16.0781 27.7676 15.5272 27.7676 14.8477V11.1562C27.7676 8.96208 26.4351 7.0738 24.537 6.25661Z" fill="#1E1E1E"/>
<path d="M33.9609 32.0742C33.9609 34.1097 32.305 35.7656 30.2695 35.7656H30.1306C30.2509 36.5201 30.2285 36.9334 30.2285 38.2266C33.7593 38.2266 36.4219 35.3857 36.4219 32.0742V30.8438H33.9609V32.0742Z" fill="#1E1E1E"/>
<path d="M27.5101 5.00391H30.2695C32.305 5.00391 33.9609 6.65987 33.9609 8.69531V10.0505C34.7665 9.89166 35.5867 9.88214 36.4219 10.0358V8.69531C36.4219 5.30291 33.6619 2.54297 30.2695 2.54297H27.3548C27.5549 3.31743 27.618 4.1507 27.5101 5.00391Z" fill="#1E1E1E"/>
<path d="M8.08008 10.0432V8.69531C8.08008 6.65987 9.73604 5.00391 11.7715 5.00391H14.4899C14.3884 4.20107 14.4324 3.36681 14.6452 2.54297H11.7715C8.37908 2.54297 5.61914 5.30291 5.61914 8.69531V10.0432C6.44003 9.88673 7.25845 9.88665 8.08008 10.0432Z" fill="#1E1E1E"/>
<path d="M8.08008 32.0742V30.8438H5.61914V32.0742C5.61914 35.4666 8.37908 38.2266 11.7715 38.2266C11.7715 36.9324 11.7492 36.5195 11.8694 35.7656H11.7715C9.73604 35.7656 8.08008 34.1097 8.08008 32.0742Z" fill="#1E1E1E"/>
</svg>
