<svg width="43" height="42" viewBox="0 0 43 42" fill="none" xmlns="http://www.w3.org/2000/svg">
<g clip-path="url(#clip0_52_930)">
<path d="M41.7397 39.539H40.3959V15.258C40.3959 14.5785 39.8319 14.0276 39.1362 14.0276H34.0972C33.4015 14.0276 32.8374 14.5785 32.8374 15.258V39.539H30.3179V23.4611C30.3179 22.7815 29.7539 22.2306 29.0582 22.2306H24.0192C23.3235 22.2306 22.7595 22.7815 22.7595 23.4611V39.539H20.24V27.9727C20.24 27.2932 19.6759 26.7423 18.9802 26.7423H13.9412C13.2455 26.7423 12.6815 27.2932 12.6815 27.9727V39.539H10.162V30.9258C10.162 30.2463 9.59794 29.6953 8.90222 29.6953H3.86323C3.16751 29.6953 2.60348 30.2463 2.60348 30.9258V39.539H1.25975C0.564031 39.539 0 40.0899 0 40.7694C0 41.4489 0.564031 41.9999 1.25975 41.9999H41.7397C42.4354 41.9999 42.9994 41.4489 42.9994 40.7694C42.9994 40.0899 42.4354 39.539 41.7397 39.539Z" fill="#1E1E1E"/>
<path d="M1.25975 26.4393C9.12209 26.4393 17.6482 23.6812 25.2677 18.6732C31.2351 14.751 36.2095 9.7403 39.2994 4.60957L40.5229 9.0693C40.6737 9.61906 41.402 10.094 42.0658 9.93931C42.7425 9.78165 43.1366 9.08874 42.9565 8.43233L40.8936 0.912632C40.7135 0.256309 40.023 -0.133334 39.3508 0.0426208L31.652 2.05753C30.98 2.2334 30.5812 2.9081 30.7613 3.5645C30.9414 4.22091 31.6319 4.61055 32.3041 4.43451L37.2638 3.13647C34.3811 8.02924 29.6169 12.8483 23.8611 16.6315C16.6529 21.3692 8.62634 23.9784 1.25975 23.9784C0.564031 23.9784 0 24.5293 0 25.2088C0 25.8883 0.564031 26.4393 1.25975 26.4393Z" fill="#1E1E1E"/>
</g>
<defs>
<clipPath id="clip0_52_930">
<rect width="43" height="42" fill="white"/>
</clipPath>
</defs>
</svg>
