<svg width="44" height="44" viewBox="0 0 44 44" fill="none" xmlns="http://www.w3.org/2000/svg">
<path d="M35.0533 13.2C35.279 12.0325 35.2439 10.8295 34.9503 9.6772C34.6567 8.52489 34.112 7.45174 33.3552 6.53456C32.5983 5.61739 31.6481 4.87889 30.5725 4.37192C29.4968 3.86495 28.3224 3.60205 27.1333 3.60205C25.9442 3.60205 24.7698 3.86495 23.6942 4.37192C22.6185 4.87889 21.6683 5.61739 20.9115 6.53456C20.1546 7.45174 19.6099 8.52489 19.3164 9.6772C19.0228 10.8295 18.9876 12.0325 19.2133 13.2H35.0533Z" fill="#1E1E1E"/>
<path d="M42.5333 30.8V26.4C42.5333 26.2055 42.4561 26.0189 42.3186 25.8814C42.181 25.7439 41.9945 25.6666 41.8 25.6666H37.4C36.622 25.6666 35.8759 25.9757 35.3258 26.5258C34.7757 27.0759 34.4667 27.822 34.4667 28.6C34.4667 29.3779 34.7757 30.124 35.3258 30.6741C35.8759 31.2242 36.622 31.5333 37.4 31.5333H41.8C41.9945 31.5333 42.181 31.456 42.3186 31.3185C42.4561 31.181 42.5333 30.9945 42.5333 30.8Z" fill="#1E1E1E"/>
<path d="M21.827 3.81697C20.4686 2.45745 18.6691 1.62814 16.7531 1.47865C14.8371 1.32916 12.9307 1.86934 11.3779 3.00174C9.82512 4.13413 8.72815 5.78418 8.2849 7.65421C7.84165 9.52423 8.0813 11.4911 8.96062 13.2H17.7254C17.6461 12.715 17.6041 12.2247 17.6 11.7333C17.5973 10.1676 17.9818 8.62548 18.7193 7.24431C19.4568 5.86313 20.5244 4.68575 21.827 3.81697Z" fill="#1E1E1E"/>
<path d="M40.3333 13.2V8.06671C40.3333 7.87222 40.256 7.68569 40.1185 7.54816C39.981 7.41064 39.7944 7.33337 39.6 7.33337H35.5908C36.3 8.69146 36.6691 10.2013 36.6666 11.7334C36.6625 12.2248 36.6206 12.7151 36.5412 13.2H40.3333Z" fill="#1E1E1E"/>
<path d="M11 21.2667C11.81 21.2667 12.4667 20.6101 12.4667 19.8C12.4667 18.99 11.81 18.3334 11 18.3334C10.19 18.3334 9.53333 18.99 9.53333 19.8C9.53333 20.6101 10.19 21.2667 11 21.2667Z" fill="#1E1E1E"/>
<path d="M16.8667 30.0666C17.6767 30.0666 18.3334 29.41 18.3334 28.6C18.3334 27.7899 17.6767 27.1333 16.8667 27.1333C16.0567 27.1333 15.4 27.7899 15.4 28.6C15.4 29.41 16.0567 30.0666 16.8667 30.0666Z" fill="#1E1E1E"/>
<path d="M7.43014 34.2613C7.29165 34.096 7.11864 33.9631 6.92328 33.8719C6.72792 33.7807 6.51495 33.7334 6.29934 33.7333H1.46667V39.6C1.46667 40.3779 1.77572 41.124 2.32583 41.6741C2.87593 42.2242 3.62204 42.5333 4.40001 42.5333H40.3333C40.5278 42.5333 40.7144 42.456 40.8519 42.3185C40.9894 42.181 41.0667 41.9944 41.0667 41.8V33H37.4C36.2331 33 35.1139 32.5364 34.2887 31.7112C33.4636 30.8861 33 29.7669 33 28.6C33 27.433 33.4636 26.3138 34.2887 25.4887C35.1139 24.6635 36.2331 24.2 37.4 24.2H41.0667V15.4C41.0667 15.2055 40.9894 15.0189 40.8519 14.8814C40.7144 14.7439 40.5278 14.6666 40.3333 14.6666H4.55401C3.416 14.6664 2.31758 14.2489 1.46667 13.4933V23.4666H6.29934C6.51547 23.4664 6.72893 23.4189 6.92468 23.3273C7.12044 23.2357 7.29372 23.1022 7.43234 22.9364L8.62254 21.505C8.19421 20.9188 7.99469 20.1963 8.06149 19.4734C8.12828 18.7505 8.4568 18.0768 8.98529 17.5791C9.51378 17.0813 10.2059 16.7937 10.9315 16.7702C11.6571 16.7468 12.3663 16.9892 12.9258 17.4518C13.4853 17.9144 13.8566 18.5655 13.9699 19.2826C14.0833 19.9997 13.9308 20.7335 13.5412 21.3461C13.1515 21.9587 12.5516 22.4079 11.8541 22.6093C11.1566 22.8108 10.4096 22.7505 9.75334 22.44L8.55727 23.8773C8.28125 24.208 7.93594 24.474 7.54576 24.6564C7.15559 24.8389 6.73008 24.9334 6.29934 24.9333H1.46667V27.8666H14.0375C14.216 27.1753 14.6404 26.5729 15.2313 26.1722C15.8223 25.7715 16.539 25.6 17.2473 25.69C17.9555 25.78 18.6067 26.1251 19.0786 26.6608C19.5506 27.1966 19.811 27.886 19.811 28.6C19.811 29.3139 19.5506 30.0034 19.0786 30.5391C18.6067 31.0748 17.9555 31.4199 17.2473 31.5099C16.539 31.5999 15.8223 31.4284 15.2313 31.0277C14.6404 30.627 14.216 30.0246 14.0375 29.3333H1.46667V32.2666H6.29934C6.72967 32.2662 7.15482 32.3604 7.54466 32.5427C7.93449 32.7249 8.27945 32.9907 8.55507 33.3212L9.75334 34.76C10.1418 34.5704 10.5678 34.4702 11 34.4666C11.6636 34.4622 12.3093 34.6814 12.8331 35.0889C13.3568 35.4964 13.728 36.0683 13.8869 36.7126C14.0458 37.3569 13.9831 38.0359 13.7088 38.6402C13.4345 39.2445 12.9648 39.7387 12.3752 40.0433C11.7857 40.3479 11.1107 40.4451 10.4592 40.3191C9.80765 40.1932 9.21753 39.8515 8.78398 39.3491C8.35043 38.8467 8.09872 38.213 8.06943 37.55C8.04014 36.8871 8.23498 36.2336 8.62254 35.695L7.43014 34.2613Z" fill="#1E1E1E"/>
<path d="M11 38.8667C11.81 38.8667 12.4667 38.21 12.4667 37.4C12.4667 36.59 11.81 35.9333 11 35.9333C10.19 35.9333 9.53333 36.59 9.53333 37.4C9.53333 38.21 10.19 38.8667 11 38.8667Z" fill="#1E1E1E"/>
<path d="M1.46665 10.274C1.46445 10.3619 1.46739 10.4498 1.47545 10.5373C1.57038 11.2825 1.93708 11.9663 2.50522 12.4577C3.07336 12.9491 3.80293 13.2135 4.55398 13.2H7.32891C6.55411 11.3436 6.392 9.28833 6.86618 7.33337H4.39998C3.62296 7.33646 2.87865 7.6465 2.32921 8.19594C1.77978 8.74538 1.46974 9.48969 1.46665 10.2667V10.274Z" fill="#1E1E1E"/>
</svg>
