<svg width="41" height="41" viewBox="0 0 41 41" fill="none" xmlns="http://www.w3.org/2000/svg">
<path d="M20.5 32.6719C22.6228 32.6719 24.3438 30.951 24.3438 28.8281C24.3438 26.7053 22.6228 24.9844 20.5 24.9844C18.3772 24.9844 16.6562 26.7053 16.6562 28.8281C16.6562 30.951 18.3772 32.6719 20.5 32.6719Z" fill="#1E1E1E"/>
<path d="M22.4219 32.6719H18.5781C17.5591 32.673 16.5821 33.0784 15.8615 33.799C15.1409 34.5196 14.7355 35.4966 14.7344 36.5156V39.7188C14.7344 40.0586 14.8694 40.3845 15.1096 40.6247C15.3499 40.865 15.6758 41 16.0156 41H24.9844C25.3242 41 25.6501 40.865 25.8904 40.6247C26.1306 40.3845 26.2656 40.0586 26.2656 39.7188V36.5156C26.2645 35.4966 25.8591 34.5196 25.1385 33.799C24.4179 33.0784 23.4409 32.673 22.4219 32.6719Z" fill="#1E1E1E"/>
<path d="M35.2344 32.6719C37.3572 32.6719 39.0781 30.951 39.0781 28.8281C39.0781 26.7053 37.3572 24.9844 35.2344 24.9844C33.1115 24.9844 31.3906 26.7053 31.3906 28.8281C31.3906 30.951 33.1115 32.6719 35.2344 32.6719Z" fill="#1E1E1E"/>
<path d="M37.1562 32.6719H33.3125C32.2934 32.673 31.3164 33.0784 30.5958 33.799C29.8753 34.5196 29.4699 35.4966 29.4688 36.5156V39.7188C29.4688 40.0586 29.6037 40.3845 29.844 40.6247C30.0843 40.865 30.4102 41 30.75 41H39.7188C40.0586 41 40.3845 40.865 40.6247 40.6247C40.865 40.3845 41 40.0586 41 39.7188V36.5156C40.9988 35.4966 40.5935 34.5196 39.8729 33.799C39.1523 33.0784 38.1753 32.673 37.1562 32.6719Z" fill="#1E1E1E"/>
<path d="M5.76562 32.6719C7.88847 32.6719 9.60938 30.951 9.60938 28.8281C9.60938 26.7053 7.88847 24.9844 5.76562 24.9844C3.64278 24.9844 1.92188 26.7053 1.92188 28.8281C1.92188 30.951 3.64278 32.6719 5.76562 32.6719Z" fill="#1E1E1E"/>
<path d="M7.6875 32.6719H3.84375C2.82468 32.673 1.84769 33.0784 1.1271 33.799C0.406505 34.5196 0.00116568 35.4966 0 36.5156L0 39.7188C0 40.0586 0.134988 40.3845 0.375269 40.6247C0.61555 40.865 0.941441 41 1.28125 41H10.25C10.5898 41 10.9157 40.865 11.156 40.6247C11.3963 40.3845 11.5312 40.0586 11.5312 39.7188V36.5156C11.5301 35.4966 11.1247 34.5196 10.4042 33.799C9.68356 33.0784 8.70657 32.673 7.6875 32.6719Z" fill="#1E1E1E"/>
<path d="M10.25 19.8594C10.9576 19.8594 11.5312 19.2857 11.5312 18.5781C11.5312 17.8705 10.9576 17.2969 10.25 17.2969C9.54239 17.2969 8.96875 17.8705 8.96875 18.5781C8.96875 19.2857 9.54239 19.8594 10.25 19.8594Z" fill="#1E1E1E"/>
<path d="M7.04688 23.0625C7.75449 23.0625 8.32812 22.4889 8.32812 21.7812C8.32812 21.0736 7.75449 20.5 7.04688 20.5C6.33926 20.5 5.76562 21.0736 5.76562 21.7812C5.76562 22.4889 6.33926 23.0625 7.04688 23.0625Z" fill="#1E1E1E"/>
<path d="M30.75 19.8594C31.4576 19.8594 32.0312 19.2857 32.0312 18.5781C32.0312 17.8705 31.4576 17.2969 30.75 17.2969C30.0424 17.2969 29.4688 17.8705 29.4688 18.5781C29.4688 19.2857 30.0424 19.8594 30.75 19.8594Z" fill="#1E1E1E"/>
<path d="M33.9531 23.0625C34.6607 23.0625 35.2344 22.4889 35.2344 21.7812C35.2344 21.0736 34.6607 20.5 33.9531 20.5C33.2455 20.5 32.6719 21.0736 32.6719 21.7812C32.6719 22.4889 33.2455 23.0625 33.9531 23.0625Z" fill="#1E1E1E"/>
<path d="M20.5 23.0625C21.2076 23.0625 21.7812 22.4889 21.7812 21.7812C21.7812 21.0736 21.2076 20.5 20.5 20.5C19.7924 20.5 19.2188 21.0736 19.2188 21.7812C19.2188 22.4889 19.7924 23.0625 20.5 23.0625Z" fill="#1E1E1E"/>
<path d="M32.0312 8.96875C32.0312 6.50234 30.7831 4.20771 28.5166 2.50789C26.3603 0.890629 23.5133 0 20.5 0C17.4867 0 14.6397 0.890629 12.4834 2.50789C10.2169 4.20771 8.96875 6.50234 8.96875 8.96875C8.96875 11.4352 10.2169 13.7298 12.4834 15.4296C14.6397 17.0469 17.4867 17.9375 20.5 17.9375C23.5133 17.9375 26.3603 17.0469 28.5166 15.4296C30.7831 13.7298 32.0312 11.4352 32.0312 8.96875ZM15.375 10.25C15.1216 10.25 14.8739 10.1749 14.6632 10.0341C14.4525 9.89328 14.2883 9.69318 14.1913 9.45906C14.0943 9.22495 14.0689 8.96733 14.1184 8.71879C14.1678 8.47025 14.2898 8.24196 14.469 8.06277C14.6482 7.88358 14.8765 7.76156 15.125 7.71212C15.3736 7.66268 15.6312 7.68805 15.8653 7.78503C16.0994 7.882 16.2995 8.04623 16.4403 8.25693C16.5811 8.46763 16.6562 8.71534 16.6562 8.96875C16.6562 9.30856 16.5213 9.63445 16.281 9.87473C16.0407 10.115 15.7148 10.25 15.375 10.25ZM20.5 10.25C20.2466 10.25 19.9989 10.1749 19.7882 10.0341C19.5775 9.89328 19.4133 9.69318 19.3163 9.45906C19.2193 9.22495 19.1939 8.96733 19.2434 8.71879C19.2928 8.47025 19.4148 8.24196 19.594 8.06277C19.7732 7.88358 20.0015 7.76156 20.25 7.71212C20.4986 7.66268 20.7562 7.68805 20.9903 7.78503C21.2244 7.882 21.4245 8.04623 21.5653 8.25693C21.7061 8.46763 21.7812 8.71534 21.7812 8.96875C21.7812 9.30856 21.6463 9.63445 21.406 9.87473C21.1657 10.115 20.8398 10.25 20.5 10.25ZM25.625 10.25C25.3716 10.25 25.1239 10.1749 24.9132 10.0341C24.7025 9.89328 24.5383 9.69318 24.4413 9.45906C24.3443 9.22495 24.3189 8.96733 24.3684 8.71879C24.4178 8.47025 24.5398 8.24196 24.719 8.06277C24.8982 7.88358 25.1265 7.76156 25.375 7.71212C25.6236 7.66268 25.8812 7.68805 26.1153 7.78503C26.3494 7.882 26.5495 8.04623 26.6903 8.25693C26.8311 8.46763 26.9062 8.71534 26.9062 8.96875C26.9062 9.30856 26.7713 9.63445 26.531 9.87473C26.2907 10.115 25.9648 10.25 25.625 10.25Z" fill="#1E1E1E"/>
</svg>
