<svg width="91" height="108" viewBox="0 0 91 108" fill="none" xmlns="http://www.w3.org/2000/svg">
<g filter="url(#filter0_b_11_245)">
<path d="M88.7466 12.8425L46.4092 0.133523C45.8164 -0.0445078 45.1846 -0.0445078 44.5916 0.133523L2.25337 12.8425C0.915979 13.2439 0 14.4758 0 15.873V62.4725C0 68.5336 2.45238 74.7381 7.28862 80.9137C10.9823 85.6303 16.0926 90.3665 22.477 94.9909C33.2025 102.759 43.764 107.525 44.2084 107.724C44.6192 107.908 45.0598 108 45.5004 108C45.941 108 46.3816 107.908 46.7925 107.724C47.2367 107.525 57.7979 102.759 68.5234 94.9909C74.9079 90.3665 80.018 85.6303 83.7118 80.9137C88.548 74.7383 91 68.5338 91 62.4725V15.873C91 14.4758 90.0844 13.2439 88.7466 12.8425Z" fill="white" fill-opacity="0.14"/>
<path d="M88.3154 14.2792L88.3155 14.2792C89.0181 14.49 89.5 15.1373 89.5 15.873V62.4725C89.5 68.1111 87.2217 73.9992 82.5309 79.9889C78.9456 84.5668 73.9481 89.2095 67.6435 93.776C57.0401 101.456 46.5865 106.172 46.1794 106.355L46.1784 106.355C45.9634 106.452 45.7323 106.5 45.5004 106.5C45.269 106.5 45.0377 106.452 44.8218 106.355L44.8212 106.355C44.4142 106.172 33.9603 101.456 23.3569 93.776C17.0523 89.2095 12.0546 84.5668 8.46958 79.9889C3.7787 73.9989 1.5 68.1108 1.5 62.4725V15.873C1.5 15.1375 1.98214 14.49 2.68459 14.2792L2.68463 14.2792L45.0229 1.57019L45.0229 1.57018C45.3346 1.47659 45.6665 1.47664 45.9778 1.57014L45.978 1.57019L88.3154 14.2792Z" stroke="#231F20" stroke-width="3"/>
</g>
<defs>
<filter id="filter0_b_11_245" x="-36" y="-36" width="163" height="180" filterUnits="userSpaceOnUse" color-interpolation-filters="sRGB">
<feFlood flood-opacity="0" result="BackgroundImageFix"/>
<feGaussianBlur in="BackgroundImage" stdDeviation="18"/>
<feComposite in2="SourceAlpha" operator="in" result="effect1_backgroundBlur_11_245"/>
<feBlend mode="normal" in="SourceGraphic" in2="effect1_backgroundBlur_11_245" result="shape"/>
</filter>
</defs>
</svg>
